<svg xmlns="http://www.w3.org/2000/svg" aria-label="Litoral Hogar - Hogar, paz y raíces en Paysandú" viewBox="0 0 720 531"><title>Litoral Hogar</title><path fill="#296175" d="M271.811 136.316h2.671l3.05 1.525 3.817 3.433 3.053 2.668 3.05 2.288 5.722 4.958 4.199 3.43 4.958 4.196 8.392 6.86 3.816 3.434 3.05 2.288 1.909 1.905 3.053 2.67 4.196 3.43 3.813 3.051 4.2 3.433 4.195 3.43 4.196 3.434 4.196 3.813 3.433 2.668 4.58 4.196v.762l1.907.38 1.525 1.525v.763l1.909.762 2.287 1.908v.763l1.908.763 3.05 2.667L371 216.39l1.526 1.905.762 2.288v3.05l-1.908 3.434-2.288 1.142-1.525.383-21.365.38-1.526.382v5.718l38.532-.38 3.817-3.433 3.05-2.667 4.196-3.434 4.196-3.43h.762v-.762l1.529-.383v-.763l5.341-3.813 7.63-4.576 6.103-3.05 6.867-3.05 5.341-1.526 9.538-2.667 7.629-1.525 2.288-.383h16.404l9.537 1.525 11.445 3.05 5.342 1.526 8.012 3.433 9.537 4.955 4.579 3.05 3.433 2.671 5.341 4.193 4.196 3.434 3.813 3.05 3.434 3.43 2.67 1.525 3.816.763 1.526 1.905.382.763v4.958l-1.525 2.668-1.145.762h-30.52l.383 15.253h1.142l9.158-.763h17.166l.763.763.383 2.67-1.529 5.339-2.288 8.005-1.908 4.959-1.908 4.193-1.142 3.05-1.528 3.05-1.143 2.671-1.908 3.43-.762 2.288h-.763l-.763 1.909-2.29 3.813-1.909 2.667-1.525 3.05-2.67 3.43h-.763l-.763 1.909-2.288 3.05-1.528 1.526h-.763v.762h-.762l-.38 1.143-2.29.382.762-6.1v-7.244l-1.143-4.575-3.433-6.484-1.145-1.142v-.763h-.763l-2.29-2.67-4.197-3.051-4.958-3.05-3.817-1.906v-.762l-2.287-.763-5.342-3.433-1.908-1.143-2.67-2.287-.38-2.288.38-2.67.765-1.526 2.288-1.905 1.908-1.146 1.908-1.525 9.155-2.667 3.816-1.146v-18.303l-66.381.383-.383.763v8.389l.383 4.575 48.069.38.38 2.288-1.526 1.145-5.72 1.905-3.817 2.288-2.67 2.67-1.526 2.668v4.196l1.908 3.813 2.67 2.668 4.577 2.67 3.816 2.668 6.483 3.434 4.962 3.05 3.813 2.668 4.962 4.575 1.905 2.671v.763h.765l1.905 5.718.383 4.955-1.525 5.338-1.908 3.813h-.763l-.382 1.526-3.434 4.575h-.762l-.763 1.526-3.054 2.67-6.483 4.576-9.92 4.576-9.538 3.05-8.392 2.288-4.958 1.142-11.828 1.908-6.484.763-6.487.763h-8.012l-11.825-.763-13.733-1.908-8.012-1.525-10.683-2.668-6.104-1.908-7.63-2.288-6.103-2.288-4.196-1.525-9.92-3.813-5.342-1.905-5.338-1.908-11.445-4.193-1.908-.383-9.538-3.05-8.392-2.288-2.29-.38-14.116-2.288-10.68-1.145-13.733-.38-11.066 1.143-10.68 2.287-6.87 1.526-7.629 2.287-1.908.763-3.433-.38-2.288-1.908-2.67-3.813-2.288-2.667v-.763l-1.146-.383-3.816-5.338-.762-2.668.762-2.288 1.528-1.142 8.01-3.05 6.103-1.909 4.2-1.525 10.3-2.667 3.433-.383 14.495-2.288 9.538-.763h11.062l8.395.383 11.063 1.525 6.104 1.143 3.816.383 13.733 3.43 7.63 2.288 3.433.762 12.59 4.196 4.576 1.143 11.828 3.813 6.867 1.905 4.958 1.145 10.3 2.288 6.867 1.142 10.303.763h9.154l9.155-1.142 4.578-1.146 6.487-2.288 4.576-2.288h.766l.38-1.142 3.053-2.668 2.288-3.05.762-1.908v-4.576l-.762-3.43-2.67-3.813-1.909-2.288-5.341-3.433-2.668-1.525-5.724-2.288-3.816-1.143-8.01-1.908-9.537-1.525-10.682-1.142-5.721-.763-6.87-2.288-3.05-2.67v-4.576l1.525-1.905 4.578-2.288 3.817-.763 8.391-1.145 25.559-.38.765-2.288-.382-11.439-62.948-.383-1.526-.38.383 43.087 3.05 1.525 8.013 2.288 7.25 2.288 8.391 1.908 6.104 1.142 7.63.763.382.382h11.445l4.959-.382 4.958-1.526 3.817-2.287 2.287-.38 2.291.762 1.905 1.143 1.529 2.288v3.433l-1.529 2.668-3.05 2.67-3.054 1.905-7.246 1.908-3.433.38-19.837-.38-7.25-1.145-6.487-1.525-4.958-1.526-4.579-1.142-5.341-1.145-10.3-3.43-4.576-1.526-5.724-1.525-9.155-2.67-3.816-1.526-4.196-.763-4.196-1.142-10.682-2.288-5.342-1.525-2.288-1.146-3.433-2.667-1.528-1.908-1.143-3.813-.382-4.193v-35.843l-.763-1.145-21.362-.38-.763 1.142-.383 25.93-.383 3.432-.38 8.006-1.525 3.434-2.29 3.05-2.289 1.525-3.816 1.525-3.433.38-2.67.763-8.392 1.525-4.959.383-4.962 1.525-8.774 1.905-5.339 1.908-3.053.763-11.445 4.193-3.05.762h-2.292l-2.288-1.525-1.525-1.905-.763-2.288v-2.67l1.143-1.905 2.29-1.526 6.105-2.67 3.05-1.526.383-1.142v-53.383l-1.145-.762-17.167-.38v-.763h-3.433l-3.816-2.288-1.526-2.67v-3.43l1.146-2.288 2.288-2.288h.762v-.763l4.196-3.433 5.724-4.956 5.722-4.958 5.341-4.576h.763l.762-1.525 3.816-3.43h.763l.383-39.656.762-4.193 1.526-2.288 2.287-1.525 1.146-.383h22.508l3.433 1.525 1.908 1.908 1.146 4.576.38 6.48 1.145 1.146 2.288-.383v-.762l2.29-1.525 5.339-4.576 4.962-4.193 5.34-4.196 4.96-4.193 3.05-2.287Zm.383 13.727-1.145.383-1.908 1.905-3.434 3.05-4.196 3.433-5.34 4.573-4.58 3.813-4.196 3.433-4.195 3.43v.763l-1.526.763-5.724 4.958-2.67 2.288v.763l-1.906.762-1.528 1.143v.762h-.763v.763l-1.525.762-3.433 3.05-4.196 3.434-3.816 3.43-5.341 4.196-4.196 3.813-3.817 3.05-3.433 3.051-2.667 1.905v2.288l.762.383h9.155l3.433.763 2.29 1.905 1.143 2.287.383 57.959.38.763h4.579l10.682-2.288 3.05-.763 9.92-1.525 5.342-1.146.763-1.142.38-40.798 1.145-3.433 1.908-1.905 2.288-.763h37.387l3.816 1.142 1.525 1.908.383 1.905.38 44.232 1.145 1.905 1.525 1.145 7.63 1.526 3.816.762 9.537 2.668 6.487 1.908h4.575l.383-62.914.763-2.67 1.525-1.906 2.291-1.145 1.525-.38h9.917l1.908-.383-.38-1.905-3.816-3.433-4.195-3.43-5.342-4.576-4.196-3.433-3.816-3.43-3.813-3.051-3.433-3.05-3.054-2.671h-.762v-.763l-5.342-4.193-1.525-1.525h-.763v-.762l-5.341-4.196-3.816-3.43-4.196-3.434-5.341-4.576-4.196-3.43-3.817-3.05-1.904-1.905-1.909-1.525h-.762l-.763-1.526-2.29-1.908-1.526-.762Zm-53.41 4.575-.383.383-.38 23.638 1.525.763 3.054-2.668 4.575-3.813 1.146-1.145.383-2.668v-13.344l-.763-1.146Zm246.064 54.526-.763 1.525v8.771l.38 15.253.383.762h12.588l.383-.762v-23.641l-.763-.763-7.25-1.145Zm-9.92 0-6.867.382-4.196 1.143-.762.762v23.262l1.908 1.142 11.445-.38 1.143-1.525v-20.973l-.38-3.05-1.146-.763Zm-22.125 3.813-4.579 1.525-4.579 2.288-1.142 1.145v17.157l.38.383h12.208l.762-.762.383-20.974-.762-.762Zm53.79.383-.762.762v20.59l.762.763h12.208l.763-.762v-16.398l-1.908-1.525-3.813-1.905-4.962-1.525Zm-74.39 9.53-2.29 1.909-1.146.38v.762l-1.905.763v.762l-1.908.763-4.58 3.433-1.907 1.905.383 1.908h14.878l.763-.762v-11.44l-.383-.382Zm95.753 0-.763.763v11.06l.763.762h14.499l.38-.383v-2.287l-4.96-3.813h-.762v-.763l-3.433-2.288-4.579-3.05Zm0 0"/><path fill="#bf7349" d="M271.811 136.316h2.671l3.05 1.525 3.817 3.433 3.053 2.668 3.05 2.288 5.722 4.958 4.199 3.43 4.958 4.196 8.392 6.86 3.816 3.434 3.05 2.288 1.909 1.905 3.053 2.67 4.196 3.43 3.813 3.051 4.2 3.433 4.195 3.43 4.196 3.434 4.196 3.813 3.433 2.668 4.58 4.196v.762l1.907.38 1.525 1.525v.763l1.909.762 2.287 1.908v.763l1.908.763 3.05 2.667L371 216.39l1.526 1.905.762 2.288v3.05l-1.908 3.434-2.288 1.142-1.525.383-21.365.38-1.526.382.383 60.244 3.05 1.525 8.013 2.288 7.25 2.288 8.391 1.908 6.104 1.142 7.63.763.382.382h11.445l4.959-.382 4.958-1.526 3.817-2.287 2.287-.38 2.291.762 1.905 1.143 1.529 2.288v3.433l-1.529 2.668-3.05 2.67-3.054 1.905-7.246 1.908-3.433.38-19.837-.38-7.25-1.145-6.487-1.525-4.958-1.526-4.579-1.142-5.341-1.145-10.3-3.43-4.576-1.526-5.724-1.525-9.155-2.67-3.816-1.526-4.196-.763-4.196-1.142-10.682-2.288-5.342-1.525-2.288-1.146-3.433-2.667-1.528-1.908-1.143-3.813-.382-4.193v-35.843l-.763-1.145-21.362-.38-.763 1.142-.383 25.93-.383 3.432-.38 8.006-1.525 3.434-2.29 3.05-2.289 1.525-3.816 1.525-3.433.38-2.67.763-8.392 1.525-4.959.383-4.962 1.525-8.774 1.905-5.339 1.908-3.053.763-11.445 4.193-3.05.762h-2.292l-2.288-1.525-1.525-1.905-.763-2.288v-2.67l1.143-1.905 2.29-1.526 6.105-2.67 3.05-1.526.383-1.142v-53.383l-1.145-.762-17.167-.38v-.763h-3.433l-3.816-2.288-1.526-2.67v-3.43l1.146-2.288 2.288-2.288h.762v-.763l4.196-3.433 5.724-4.956 5.722-4.958 5.341-4.576h.763l.762-1.525 3.816-3.43h.763l.383-39.656.762-4.193 1.526-2.288 2.287-1.525 1.146-.383h22.508l3.433 1.525 1.908 1.908 1.146 4.576.38 6.48 1.145 1.146 2.288-.383v-.762l2.29-1.525 5.339-4.576 4.962-4.193 5.34-4.196 4.96-4.193 3.05-2.287Zm.383 13.727-1.145.383-1.908 1.905-3.434 3.05-4.196 3.433-5.34 4.573-4.58 3.813-4.196 3.433-4.195 3.43v.763l-1.526.763-5.724 4.958-2.67 2.288v.763l-1.906.762-1.528 1.143v.762h-.763v.763l-1.525.762-3.433 3.05-4.196 3.434-3.816 3.43-5.341 4.196-4.196 3.813-3.817 3.05-3.433 3.051-2.667 1.905v2.288l.762.383h9.155l3.433.763 2.29 1.905 1.143 2.287.383 57.959.38.763h4.579l10.682-2.288 3.05-.763 9.92-1.525 5.342-1.146.763-1.142.38-40.798 1.145-3.433 1.908-1.905 2.288-.763h37.387l3.816 1.142 1.525 1.908.383 1.905.38 44.232 1.145 1.905 1.525 1.145 7.63 1.526 3.816.762 9.537 2.668 6.487 1.908h4.575l.383-62.914.763-2.67 1.525-1.906 2.291-1.145 1.525-.38h9.917l1.908-.383-.38-1.905-3.816-3.433-4.195-3.43-5.342-4.576-4.196-3.433-3.816-3.43-3.813-3.051-3.433-3.05-3.054-2.671h-.762v-.763l-5.342-4.193-1.525-1.525h-.763v-.762l-5.341-4.196-3.816-3.43-4.196-3.434-5.341-4.576-4.196-3.43-3.817-3.05-1.904-1.905-1.909-1.525h-.762l-.763-1.526-2.29-1.908-1.526-.762Zm-53.41 4.575-.383.383-.38 23.638 1.525.763 3.054-2.668 4.575-3.813 1.146-1.145.383-2.668v-13.344l-.763-1.146Zm0 0"/><path fill="#2c687a" d="M253.5 328.108h12.97l13.733 1.525 12.591 2.671 8.012 1.905 11.825 3.813 6.104 2.288 8.012 3.05 6.484 2.288 8.012 3.05 9.92 3.434 5.342 1.905 11.825 3.433 9.92 2.668 7.246 1.145 3.054.38 11.825 1.525 10.3.383.762.38h8.775l14.879-1.143 8.395-1.145 3.433-.38 8.775-1.908 10.3-3.43 6.103-2.288 4.959-2.67 1.908.382.38 1.526-1.143 1.905-4.199 2.67-7.629 4.956-3.813 2.287-2.29 1.146-6.105 3.43-2.67 1.525-2.671 1.146-6.484 3.05-4.958 1.905-5.725 2.288-4.958 1.908-7.25 2.288-8.012 2.668-6.483 1.525-8.392.762-.766.38-6.104.383-7.246.763-6.487.38h-31.662l-19.84-1.906-6.102-.38-11.065-2.287-10.68-3.433-6.487-1.905-7.629-3.05-6.487-2.672-6.104-3.05-8.012-3.813-6.104-3.43-6.866-4.576-3.813-2.67-4.962-3.43-3.813-2.672v-.762l-1.525-.763-4.962-3.813-4.576-3.43-2.67-2.288-2.291-2.67v-2.288l1.528-1.143 6.104-1.525 7.246-1.525 7.25-1.525Zm0 0"/><path fill="#8b936a" d="M501.09 157.29h15.26l5.722.379 6.104 1.908 3.433 1.522v.763l1.908.762 1.525 3.05 2.671 8.01 1.146 2.667 2.67 9.914.763 4.576.38 3.433 1.528 6.101.38 3.05.382 1.906-.762 5.338-1.146 1.145-1.908.763h-8.012l-4.958-1.146-12.208-4.192-6.104-3.05-1.908-1.526-5.721-2.288-5.342-1.908-3.433-1.525-6.104-1.143-7.63-1.525-8.774-.762-1.525-.383h-18.312l-9.92 1.525-6.484 1.145-8.012 1.526-1.908.762-2.288 1.526-6.104 2.287-4.196 1.526-2.67 1.905-4.2 1.908-3.813 1.142h-3.433l-.383.763-4.958 1.908-8.392 1.142-1.528-.38-3.814-1.145-2.67-2.288-3.054-1.525-2.67-3.05-.38-1.526-3.434-1.905-.382-2.288.382-.762 4.576-.763 5.724-.763 4.196-1.145 6.487-1.142 6.867-1.908 4.958-1.526 7.63-2.667 7.629-3.05 3.816-1.146 1.908-.38v-.763l7.25-2.67 4.575-1.905 2.67-1.525 2.671-1.146 6.867-3.05 5.341-2.288 6.487-1.905 3.434-1.146 8.774-3.05 6.104-1.525 4.196-1.523 13.35-2.287Zm0 0"/><path fill="#e19e63" d="M419.45 97.043h4.578l.38.38 3.054.382 3.433 1.143 4.579 1.908.762 1.525h1.146l1.905 1.905 1.908 1.525.762 1.525 1.908 1.908 2.288 2.668 1.146 2.288 1.908 5.338.762 2.67v4.956l-1.525 6.101-1.525 3.434-1.528 2.287-1.905 3.813h-.766l-.763 1.526-1.142 1.142-1.908 1.145-1.146.38v.763H437l-.383 1.145-3.813 2.288-9.537 2.288h-3.434l-5.341-.763-5.341-1.908-3.434-1.905-1.908-1.525-.762-1.145-2.288-1.143-2.291-1.908-1.143-2.288-1.145-2.287-1.525-1.905-1.529-3.814-1.142-4.575-.383-4.576 1.525-6.484 2.671-5.338 2.67-4.193 3.054-3.05 3.05-1.908 1.909-1.526 4.579-2.287 6.483-1.526Zm0 0"/><path fill="#587e7c" d="M522.455 261.381h17.166l.763.763.383 2.67-1.529 5.339-2.288 8.005-1.908 4.959-1.908 4.193-1.142 3.05-1.528 3.05-1.143 2.671-1.908 3.43-.762 2.288h-.763l-.763 1.909-2.29 3.813-1.909 2.667-1.525 3.05-2.67 3.43h-.763l-.763 1.909-2.288 3.05-1.528 1.526h-.763v.762h-.762l-.38 1.143-2.29.382.762-6.1v-7.244l-1.143-4.575-3.433-6.484-1.145-1.142v-.763h-.763l-2.29-2.67-4.197-3.051-4.958-3.05-3.817-1.906v-.762l-2.287-.763-5.342-3.433-1.908-1.143-2.67-2.287-.38-2.288.38-2.67.765-1.526 2.288-1.905 1.908-1.146 1.908-1.525 9.155-2.667 5.72-1.526 12.971-1.908 3.437-.762h1.142Zm0 0"/><path fill="#8b936a" d="M341.243 159.194h9.92l11.446.763 5.72 1.142 8.013 2.288 4.196.762 4.578 1.526 4.576 1.525 5.341 1.908 3.817 1.142 2.287 1.526 8.013 3.433 1.525 1.525.383 2.668-1.526 1.525-3.433 1.145-3.816 1.526-2.67 1.142-4.96 1.525-9.157 2.67-9.154 1.906-10.683 1.525h-7.63l-3.053-1.142-2.288-1.525-2.67-2.288-4.196-3.434-3.054-2.667v-.763l-1.525-.762-3.433-2.671-1.908-1.905-1.905-1.908-.383-1.143h-.763l-1.908-2.287-3.433-2.671-1.525-1.905-2.291-1.525v-1.526l6.866-1.905 5.725-.762Zm0 0"/><g fill="#2c718d" clip-path="url(#28f3104350)" transform="translate(59.856 396.352)scale(.888)"><path d="M7.606 20.428H20.23v44.25h27.343V74.96H7.606Zm47.057 0h12.625V74.96H54.663ZM91.514 30.71H74.06V20.428h47.515V30.71H104.14v44.25H91.514Zm63.257 45.187q-8.486 0-15.312-3.656c-4.543-2.445-8.102-5.813-10.672-10.094-2.574-4.289-3.86-9.11-3.86-14.453q0-8.03 3.86-14.453 3.856-6.421 10.672-10.078 6.827-3.67 15.312-3.672 8.497.002 15.266 3.672 6.78 3.656 10.672 10.078c2.601 4.281 3.906 9.101 3.906 14.453 0 5.344-1.305 10.164-3.906 14.453-2.594 4.281-6.153 7.649-10.672 10.094q-6.769 3.656-15.266 3.656m0-10.75q4.828.001 8.719-2.219 3.903-2.215 6.125-6.187c1.476-2.656 2.219-5.672 2.219-9.047s-.743-6.383-2.22-9.031q-2.221-3.983-6.124-6.203c-2.594-1.477-5.5-2.22-8.719-2.22s-6.133.743-8.734 2.22q-3.893 2.22-6.11 6.203-2.219 3.97-2.218 9.031-.001 5.062 2.218 9.047 2.217 3.972 6.11 6.187 3.903 2.22 8.734 2.22m74.099 9.812-10.53-15.188h-11.595V74.96H194.12V20.428h23.61q7.23.001 12.562 2.422 5.343 2.409 8.219 6.844 2.89 4.44 2.89 10.516-.002 6.08-2.921 10.484-2.924 4.408-8.297 6.734l12.234 17.532Zm-.234-34.75q-.002-4.593-2.969-7.047-2.955-2.451-8.64-2.453h-10.282v19.015h10.282c3.789 0 6.672-.832 8.64-2.5q2.967-2.497 2.969-7.015m58.654 23.062h-25.313L257.15 74.96h-12.937l24.312-54.532h12.47l24.374 54.532h-13.234Zm-3.969-9.578-8.64-20.875-8.657 20.875Zm27.741-33.266h12.625v44.25h27.344V74.96h-39.969Zm117.102 0V74.96h-5.687V49.803h-34.125V74.96h-5.766V20.428h5.766v24.297h34.125V20.428Zm41.606 55q-8.096.001-14.688-3.625-6.579-3.62-10.28-9.937-3.705-6.31-3.704-14.172 0-7.874 3.703-14.172 3.703-6.311 10.281-9.937 6.592-3.623 14.688-3.625c5.406 0 10.273 1.199 14.61 3.593q6.496 3.582 10.234 9.922 3.75 6.345 3.75 14.22 0 7.861-3.75 14.218-3.738 6.346-10.235 9.937c-4.336 2.387-9.203 3.578-14.609 3.578m0-5.14q6.468 0 11.687-2.922c3.477-1.945 6.204-4.645 8.172-8.094 1.977-3.457 2.97-7.316 2.97-11.578 0-4.258-.993-8.113-2.97-11.562-1.968-3.457-4.695-6.16-8.172-8.11-3.48-1.945-7.375-2.922-11.687-2.922-4.313 0-8.227.977-11.734 2.922q-5.25 2.925-8.25 8.11-3 5.174-3 11.562 0 6.393 3 11.578 3 5.176 8.25 8.094 5.262 2.924 11.734 2.922m79.928-22.594h5.547v20.797q-3.831 3.362-9.047 5.156-5.219 1.782-10.984 1.781-8.174.001-14.719-3.578-6.549-3.591-10.297-9.937c-2.492-4.238-3.734-8.977-3.734-14.219q-.002-7.874 3.734-14.219 3.748-6.34 10.297-9.922 6.547-3.592 14.797-3.593c4.156 0 7.973.664 11.453 1.984q5.216 1.985 8.797 5.875l-3.578 3.672q-6.47-6.389-16.438-6.39-6.625.002-11.968 2.921-5.33 2.925-8.375 8.11c-2.024 3.449-3.032 7.304-3.032 11.562q-.002 6.393 3.032 11.531 3.047 5.145 8.343 8.11 5.297 2.953 11.922 2.953 8.421.001 14.25-4.203Zm56.022 12.703h-30.376l-6.547 14.563h-6l24.922-54.532h5.688l24.937 54.532h-6.078Zm-2.095-4.687-13.093-29.282-13.094 29.282Zm61.002 19.25-12.469-17.532q-2.11.235-4.36.235h-14.655V74.96h-5.766V20.428h20.422q10.435.002 16.36 4.985 5.92 4.985 5.921 13.703 0 6.392-3.234 10.797-3.235 4.407-9.235 6.344L670.94 74.96Zm-16.984-22.203q8.092 0 12.375-3.579 4.295-3.593 4.296-10.062 0-6.608-4.296-10.156-4.283-3.547-12.375-3.547h-14.5v27.344Zm0 0"/></g><g fill="#737373" clip-path="url(#a4db84b605)" transform="translate(154.872 932.704)scale(.888)"><path d="M24.085 9.473v23.312h-4.328v-9.984H7.694v9.984H3.366V9.473h4.328v9.625h12.063V9.473ZM37.92 33.02q-2.692.002-4.86-1.156a8.6 8.6 0 0 1-3.375-3.25q-1.22-2.094-1.219-4.72t1.219-4.687a8.5 8.5 0 0 1 3.375-3.234q2.168-1.172 4.86-1.172 2.731 0 4.89 1.172c1.445.773 2.578 1.852 3.39 3.234q1.22 2.063 1.22 4.688 0 2.626-1.22 4.719c-.812 1.386-1.945 2.468-3.39 3.25q-2.159 1.158-4.89 1.156m0-3.563c1.53 0 2.796-.507 3.796-1.53q1.5-1.53 1.5-4.032 0-2.496-1.5-4.031-1.5-1.531-3.797-1.532-2.298.001-3.781 1.532-1.486 1.535-1.485 4.03-.002 2.503 1.485 4.032c.988 1.024 2.25 1.531 3.781 1.531m31.124-14.453v15.078q-.002 9.389-9.594 9.39-2.564 0-4.86-.655-2.296-.645-3.796-1.875l1.875-3.125q1.156.966 2.937 1.547c1.188.382 2.395.578 3.625.578 1.946 0 3.375-.446 4.282-1.328q1.373-1.329 1.375-4.063v-.922a7 7 0 0 1-2.594 1.766q-1.536.596-3.375.594-2.533 0-4.578-1.079a8.2 8.2 0 0 1-3.235-3.046q-1.17-1.97-1.171-4.5 0-2.53 1.171-4.47a8.05 8.05 0 0 1 3.235-3.015q2.045-1.078 4.578-1.078 1.933.001 3.516.64a6.56 6.56 0 0 1 2.656 1.923v-2.36Zm-9.484 13.453q2.356 0 3.875-1.406c1.007-.945 1.515-2.176 1.515-3.687 0-1.489-.508-2.696-1.515-3.625q-1.519-1.407-3.875-1.407-2.41 0-3.922 1.407-1.517 1.393-1.516 3.625-.001 2.268 1.516 3.687 1.512 1.406 3.922 1.406m21.723-13.656c2.625 0 4.629.633 6.016 1.89 1.382 1.25 2.078 3.141 2.078 5.673v10.421h-3.922v-2.171c-.512.78-1.242 1.382-2.188 1.796q-1.407.61-3.406.61c-1.336 0-2.5-.227-3.5-.672q-1.502-.687-2.312-1.906-.814-1.217-.813-2.75 0-2.39 1.781-3.844c1.188-.969 3.055-1.453 5.61-1.453h4.593v-.266q0-1.857-1.125-2.86c-.742-.663-1.84-1-3.296-1q-1.5 0-2.954.47c-.968.312-1.789.746-2.453 1.296l-1.625-3.03q1.39-1.062 3.36-1.626a14.8 14.8 0 0 1 4.156-.578m-.563 15.188q1.562 0 2.782-.72a3.9 3.9 0 0 0 1.718-2.046V25.16h-4.296c-2.399 0-3.594.79-3.594 2.36q0 1.144.89 1.812.905.657 2.5.657m17.938-12.391q1.792-2.796 6.328-2.797v3.969c-.356-.07-.68-.11-.969-.11-1.617 0-2.883.477-3.797 1.422q-1.36 1.425-1.36 4.078v8.625h-4.155v-17.78h3.953Zm11.385 9.891q1.171.002 1.937.765.764.769.766 2c0 .356-.055.73-.156 1.125q-.14.58-.61 1.735l-1.703 4.703h-2.703l1.344-5.094a2.4 2.4 0 0 1-1.156-.953q-.409-.656-.407-1.516-.001-1.231.766-2 .761-.764 1.922-.765m25.807-12.688c1.727 0 3.273.383 4.64 1.14a8.1 8.1 0 0 1 3.204 3.188q1.172 2.063 1.172 4.766 0 2.707-1.172 4.781-1.16 2.081-3.203 3.219-2.051 1.125-4.641 1.125-3.61 0-5.703-2.406v8.625h-4.156V15.004h3.953v2.328a6.4 6.4 0 0 1 2.547-1.89q1.512-.64 3.359-.64m-.469 14.656c1.532 0 2.785-.507 3.766-1.53q1.483-1.53 1.484-4.032-.001-2.496-1.484-4.031-1.469-1.531-3.766-1.532-1.5 0-2.703.688a5 5 0 0 0-1.906 1.953q-.69 1.253-.688 2.922-.002 1.674.688 2.937c.469.844 1.101 1.496 1.906 1.953q1.202.674 2.703.672m20.223-14.657c2.625 0 4.629.633 6.016 1.89q2.076 1.875 2.078 5.673v10.421h-3.922v-2.171c-.512.78-1.242 1.382-2.188 1.796q-1.407.61-3.406.61c-1.336 0-2.5-.227-3.5-.672q-1.502-.687-2.312-1.906-.814-1.217-.813-2.75 0-2.39 1.781-3.844c1.188-.969 3.055-1.453 5.61-1.453h4.594v-.266q0-1.857-1.125-2.86c-.743-.663-1.84-1-3.297-1q-1.5 0-2.953.47-1.457.47-2.454 1.296l-1.625-3.03q1.39-1.062 3.36-1.626a14.8 14.8 0 0 1 4.156-.578m-.562 15.188q1.56 0 2.78-.72a3.9 3.9 0 0 0 1.72-2.046V25.16h-4.297c-2.399 0-3.594.79-3.594 2.36q0 1.144.89 1.812.905.657 2.5.657m27.86-.532v3.328h-15.344V30.16l9.75-11.828h-9.547v-3.328h14.875v2.625l-9.781 11.828Zm29.658-14.453-8.328 19.219q-1.16 2.89-2.828 4.062-1.66 1.187-4.016 1.188a8.3 8.3 0 0 1-2.64-.438c-.868-.28-1.57-.68-2.126-1.187l1.657-3.063q.608.563 1.422.891.809.342 1.64.344 1.109-.002 1.813-.578c.476-.375.922-1.008 1.328-1.89l.297-.704-7.766-17.844h4.328l5.594 13.156 5.64-13.156Zm15.736 2.594q1.794-2.796 6.328-2.797v3.969c-.355-.07-.68-.11-.968-.11-1.618 0-2.883.477-3.797 1.422q-1.36 1.425-1.36 4.078v8.625h-4.156v-17.78h3.953Zm16.807-2.797c2.625 0 4.63.633 6.016 1.89q2.076 1.875 2.078 5.673v10.421h-3.922v-2.171c-.512.78-1.242 1.382-2.187 1.796q-1.408.61-3.407.61c-1.336 0-2.5-.227-3.5-.672q-1.502-.687-2.312-1.906-.814-1.217-.813-2.75 0-2.39 1.782-3.844 1.778-1.453 5.609-1.453h4.594v-.266q0-1.857-1.125-2.86c-.742-.663-1.84-1-3.297-1q-1.5 0-2.953.47c-.969.312-1.79.746-2.453 1.296l-1.625-3.03q1.388-1.062 3.359-1.626a14.8 14.8 0 0 1 4.156-.578m-.562 15.188q1.56 0 2.781-.72a3.9 3.9 0 0 0 1.719-2.046V25.16h-4.297c-2.399 0-3.594.79-3.594 2.36q0 1.144.89 1.812.905.657 2.5.657m13.985-14.985h4.156v17.781h-4.156Zm3.781-6.984h4.906l-5.797 4.547h-3.593Zm13.994 25q-2.766.002-4.969-1.156-2.19-1.172-3.422-3.25-1.235-2.094-1.234-4.72-.001-2.625 1.234-4.687 1.231-2.073 3.406-3.234 2.186-1.172 4.985-1.172 2.624 0 4.61 1.078a6.94 6.94 0 0 1 2.984 3.063l-3.204 1.86q-.767-1.233-1.921-1.845a5.15 5.15 0 0 0-2.5-.625c-1.555 0-2.844.508-3.875 1.516-1.024 1.012-1.532 2.36-1.532 4.047s.504 3.039 1.516 4.047q1.512 1.516 3.89 1.515 1.36 0 2.5-.61 1.154-.62 1.922-1.858l3.204 1.875a7.3 7.3 0 0 1-3.016 3.078q-1.988 1.078-4.578 1.078m27.9-9.031q0 .438-.078 1.234h-13.953q.375 1.969 1.921 3.125 1.548 1.142 3.844 1.14 2.936.001 4.828-1.937l2.235 2.578c-.805.95-1.813 1.668-3.032 2.156-1.218.493-2.593.735-4.125.735q-2.94.002-5.171-1.156-2.22-1.172-3.438-3.25-1.219-2.094-1.219-4.72 0-2.59 1.172-4.671a8.33 8.33 0 0 1 3.281-3.25q2.11-1.172 4.735-1.172 2.59.001 4.64 1.156 2.044 1.143 3.204 3.235 1.155 2.078 1.156 4.797m-9-5.86c-1.336 0-2.465.399-3.39 1.188q-1.379 1.19-1.673 3.14h10.094q-.27-1.919-1.64-3.125c-.907-.8-2.04-1.203-3.391-1.203m18.468 14.891q-2.156 0-4.22-.563c-1.374-.382-2.476-.863-3.296-1.437l1.594-3.156c.8.53 1.757.96 2.875 1.28 1.125.325 2.226.485 3.312.485q3.733 0 3.735-1.969c0-.625-.32-1.054-.954-1.296q-.937-.375-3.046-.704-2.19-.326-3.579-.765a5.5 5.5 0 0 1-2.39-1.516q-1.018-1.077-1.016-3.015 0-2.531 2.11-4.047 2.109-1.514 5.718-1.516 1.829 0 3.657.422 1.827.422 3 1.11l-1.594 3.171q-2.269-1.343-5.094-1.344-1.846 0-2.797.563-.937.549-.937 1.437-.002 1.001 1.015 1.422 1.014.423 3.14.782c1.427.218 2.595.476 3.5.765a5.55 5.55 0 0 1 2.345 1.469c.656.687.984 1.664.984 2.922 0 1.668-.727 3-2.172 4q-2.157 1.5-5.89 1.5m37.561-9.031q-.002.438-.078 1.234h-13.953q.375 1.969 1.921 3.125 1.548 1.142 3.844 1.14 2.936.001 4.828-1.937l2.235 2.578q-1.206 1.425-3.032 2.156c-1.218.493-2.593.735-4.125.735q-2.94.002-5.171-1.156-2.22-1.172-3.438-3.25-1.219-2.094-1.219-4.72 0-2.59 1.172-4.671a8.33 8.33 0 0 1 3.281-3.25q2.11-1.172 4.735-1.172 2.59.001 4.64 1.156 2.044 1.143 3.204 3.235 1.155 2.078 1.156 4.797m-9-5.86c-1.336 0-2.465.399-3.39 1.188q-1.379 1.19-1.673 3.14h10.094q-.27-1.919-1.64-3.125-1.363-1.202-3.391-1.203m23.061-3.328q3.374 0 5.407 1.969c1.351 1.312 2.03 3.258 2.03 5.828v10.187h-4.171V23.13q-.002-2.327-1.094-3.5-1.096-1.185-3.125-1.187-2.298.001-3.64 1.375-1.33 1.377-1.329 3.984v8.984h-4.156v-17.78h3.953V17.3a6.46 6.46 0 0 1 2.594-1.86q1.575-.639 3.531-.64m31.892-5.327q3.03.002 5.28 1 2.25 1.001 3.438 2.875 1.202 1.862 1.203 4.422c0 1.687-.402 3.164-1.203 4.422q-1.188 1.876-3.437 2.875-2.251 1.001-5.281 1h-5.266v6.718h-4.328V9.473Zm-.204 12.922q2.826 0 4.297-1.188 1.467-1.2 1.469-3.437-.002-2.233-1.469-3.422-1.471-1.201-4.297-1.203h-5.062v9.25Zm21.164-7.594c2.625 0 4.629.633 6.016 1.89 1.382 1.25 2.078 3.141 2.078 5.673v10.421h-3.922v-2.171c-.512.78-1.242 1.382-2.188 1.796q-1.407.61-3.406.61c-1.336 0-2.5-.227-3.5-.672q-1.502-.687-2.312-1.906-.814-1.217-.813-2.75 0-2.39 1.781-3.844c1.188-.969 3.055-1.453 5.61-1.453h4.593v-.266q0-1.857-1.125-2.86c-.742-.663-1.84-1-3.296-1q-1.5 0-2.954.47c-.968.312-1.789.746-2.453 1.296l-1.625-3.03q1.39-1.062 3.36-1.626a14.8 14.8 0 0 1 4.156-.578m-.563 15.188q1.562 0 2.782-.72a3.9 3.9 0 0 0 1.718-2.046V25.16h-4.296c-2.399 0-3.594.79-3.594 2.36q0 1.144.89 1.812c.602.438 1.438.657 2.5.657m30.625-14.985-8.328 19.219q-1.159 2.89-2.828 4.062-1.66 1.187-4.016 1.188a8.3 8.3 0 0 1-2.64-.438c-.868-.28-1.57-.68-2.125-1.187l1.656-3.063q.608.563 1.422.891.809.342 1.64.344 1.109-.002 1.813-.578c.476-.375.922-1.008 1.328-1.89l.297-.704-7.766-17.844h4.328l5.594 13.156 5.64-13.156Zm8.081 18.016q-2.156 0-4.218-.563c-1.375-.382-2.477-.863-3.297-1.437l1.594-3.156c.8.53 1.757.96 2.875 1.28 1.125.325 2.226.485 3.312.485q3.733 0 3.734-1.969c0-.625-.32-1.054-.953-1.296q-.937-.375-3.047-.704-2.19-.326-3.578-.765a5.5 5.5 0 0 1-2.39-1.516q-1.018-1.077-1.016-3.015 0-2.531 2.11-4.047 2.109-1.514 5.718-1.516 1.829 0 3.656.422 1.83.422 3 1.11l-1.593 3.171q-2.269-1.343-5.094-1.344-1.846 0-2.797.563-.937.549-.937 1.437-.002 1.001 1.015 1.422 1.014.423 3.14.782c1.427.218 2.595.476 3.5.765a5.55 5.55 0 0 1 2.345 1.469c.656.687.984 1.664.984 2.922 0 1.668-.727 3-2.172 4q-2.157 1.5-5.89 1.5m18.437-18.219c2.625 0 4.629.633 6.016 1.89q2.076 1.875 2.078 5.673v10.421h-3.922v-2.171c-.512.78-1.242 1.382-2.188 1.796q-1.407.61-3.406.61c-1.336 0-2.5-.227-3.5-.672q-1.502-.687-2.312-1.906-.814-1.217-.813-2.75 0-2.39 1.781-3.844c1.188-.969 3.055-1.453 5.61-1.453h4.594v-.266q0-1.857-1.125-2.86c-.743-.663-1.84-1-3.297-1q-1.5 0-2.953.47-1.457.47-2.454 1.296l-1.625-3.03q1.39-1.062 3.36-1.626a14.8 14.8 0 0 1 4.156-.578m-.562 15.188q1.56 0 2.78-.72a3.9 3.9 0 0 0 1.72-2.046V25.16h-4.297c-2.399 0-3.594.79-3.594 2.36q0 1.144.89 1.812c.602.438 1.438.657 2.5.657m24.062-15.188q3.375 0 5.407 1.969c1.352 1.312 2.031 3.258 2.031 5.828v10.187h-4.172V23.13q-.002-2.327-1.093-3.5-1.097-1.185-3.125-1.187-2.298.001-3.641 1.375-1.33 1.377-1.328 3.984v8.984h-4.156v-17.78h3.953V17.3a6.46 6.46 0 0 1 2.594-1.86q1.575-.639 3.53-.64m30.128-6.718v24.703h-3.985V30.49a6.64 6.64 0 0 1-2.562 1.906q-1.502.623-3.344.625-2.564 0-4.61-1.125-2.048-1.138-3.218-3.219-1.158-2.074-1.156-4.781-.002-2.702 1.156-4.766a8.15 8.15 0 0 1 3.219-3.187q2.043-1.139 4.61-1.14 1.763 0 3.234.608a6.5 6.5 0 0 1 2.5 1.797V8.082Zm-9.39 21.375q1.498.002 2.702-.672 1.2-.686 1.891-1.953.703-1.263.703-2.937 0-1.669-.703-2.922a4.9 4.9 0 0 0-1.89-1.953q-1.206-.687-2.704-.688-1.5 0-2.703.688a5.03 5.03 0 0 0-1.89 1.953q-.705 1.253-.704 2.922 0 1.674.703 2.937.703 1.267 1.891 1.953 1.201.674 2.703.672m32.053-14.453v17.781h-3.953V30.52a6.66 6.66 0 0 1-2.5 1.86 8.2 8.2 0 0 1-3.234.64q-3.563.001-5.61-1.985-2.049-1.981-2.047-5.875V15.004h4.172v9.594q0 2.393 1.078 3.578c.72.793 1.743 1.188 3.079 1.188q2.233.001 3.546-1.375 1.313-1.388 1.313-4v-8.985Zm-6.984-6.984h4.906l-5.797 4.547h-3.594Zm0 0"/></g><g fill="#737373" clip-path="url(#a4db84b605)" transform="translate(119.963 472.747)scale(.865)"><path d="M24.085 9.473v23.312h-4.328v-9.984H7.694v9.984H3.366V9.473h4.328v9.625h12.063V9.473ZM37.92 33.02q-2.692.002-4.86-1.156a8.6 8.6 0 0 1-3.375-3.25q-1.22-2.094-1.219-4.72t1.219-4.687a8.5 8.5 0 0 1 3.375-3.234q2.168-1.172 4.86-1.172 2.731 0 4.89 1.172c1.445.773 2.578 1.852 3.39 3.234q1.22 2.063 1.22 4.688 0 2.626-1.22 4.719c-.812 1.386-1.945 2.468-3.39 3.25q-2.159 1.158-4.89 1.156m0-3.563c1.53 0 2.796-.507 3.796-1.53q1.5-1.53 1.5-4.032 0-2.496-1.5-4.031-1.5-1.531-3.797-1.532-2.298.001-3.781 1.532-1.486 1.535-1.485 4.03-.002 2.503 1.485 4.032c.988 1.024 2.25 1.531 3.781 1.531m31.124-14.453v15.078q-.002 9.389-9.594 9.39-2.564 0-4.86-.655-2.296-.645-3.796-1.875l1.875-3.125q1.156.966 2.937 1.547c1.188.382 2.395.578 3.625.578 1.946 0 3.375-.446 4.282-1.328q1.373-1.329 1.375-4.063v-.922a7 7 0 0 1-2.594 1.766q-1.536.596-3.375.594-2.533 0-4.578-1.079a8.2 8.2 0 0 1-3.235-3.046q-1.17-1.97-1.171-4.5 0-2.53 1.171-4.47a8.05 8.05 0 0 1 3.235-3.015q2.045-1.078 4.578-1.078 1.933.001 3.516.64a6.56 6.56 0 0 1 2.656 1.923v-2.36Zm-9.484 13.453q2.356 0 3.875-1.406c1.007-.945 1.515-2.176 1.515-3.687 0-1.489-.508-2.696-1.515-3.625q-1.519-1.407-3.875-1.407-2.41 0-3.922 1.407-1.517 1.393-1.516 3.625-.001 2.268 1.516 3.687 1.512 1.406 3.922 1.406m21.723-13.656c2.625 0 4.629.633 6.016 1.89 1.382 1.25 2.078 3.141 2.078 5.673v10.421h-3.922v-2.171c-.512.78-1.242 1.382-2.188 1.796q-1.407.61-3.406.61c-1.336 0-2.5-.227-3.5-.672q-1.502-.687-2.312-1.906-.814-1.217-.813-2.75 0-2.39 1.781-3.844c1.188-.969 3.055-1.453 5.61-1.453h4.593v-.266q0-1.857-1.125-2.86c-.742-.663-1.84-1-3.296-1q-1.5 0-2.954.47c-.968.312-1.789.746-2.453 1.296l-1.625-3.03q1.39-1.062 3.36-1.626a14.8 14.8 0 0 1 4.156-.578m-.563 15.188q1.562 0 2.782-.72a3.9 3.9 0 0 0 1.718-2.046V25.16h-4.296c-2.399 0-3.594.79-3.594 2.36q0 1.144.89 1.812.905.657 2.5.657m17.938-12.391q1.792-2.796 6.328-2.797v3.969c-.356-.07-.68-.11-.969-.11-1.617 0-2.883.477-3.797 1.422q-1.36 1.425-1.36 4.078v8.625h-4.155v-17.78h3.953Zm11.385 9.891q1.171.002 1.937.765.764.769.766 2c0 .356-.055.73-.156 1.125q-.14.58-.61 1.735l-1.703 4.703h-2.703l1.344-5.094a2.4 2.4 0 0 1-1.156-.953q-.409-.656-.407-1.516-.001-1.231.766-2 .761-.764 1.922-.765m25.807-12.688c1.727 0 3.273.383 4.64 1.14a8.1 8.1 0 0 1 3.204 3.188q1.172 2.063 1.172 4.766 0 2.707-1.172 4.781-1.16 2.081-3.203 3.219-2.051 1.125-4.641 1.125-3.61 0-5.703-2.406v8.625h-4.156V15.004h3.953v2.328a6.4 6.4 0 0 1 2.547-1.89q1.512-.64 3.359-.64m-.469 14.656c1.532 0 2.785-.507 3.766-1.53q1.483-1.53 1.484-4.032-.001-2.496-1.484-4.031-1.469-1.531-3.766-1.532-1.5 0-2.703.688a5 5 0 0 0-1.906 1.953q-.69 1.253-.688 2.922-.002 1.674.688 2.937c.469.844 1.101 1.496 1.906 1.953q1.202.674 2.703.672m20.223-14.657c2.625 0 4.629.633 6.016 1.89q2.076 1.875 2.078 5.673v10.421h-3.922v-2.171c-.512.78-1.242 1.382-2.188 1.796q-1.407.61-3.406.61c-1.336 0-2.5-.227-3.5-.672q-1.502-.687-2.312-1.906-.814-1.217-.813-2.75 0-2.39 1.781-3.844c1.188-.969 3.055-1.453 5.61-1.453h4.594v-.266q0-1.857-1.125-2.86c-.743-.663-1.84-1-3.297-1q-1.5 0-2.953.47-1.457.47-2.454 1.296l-1.625-3.03q1.39-1.062 3.36-1.626a14.8 14.8 0 0 1 4.156-.578m-.562 15.188q1.56 0 2.78-.72a3.9 3.9 0 0 0 1.72-2.046V25.16h-4.297c-2.399 0-3.594.79-3.594 2.36q0 1.144.89 1.812.905.657 2.5.657m27.86-.532v3.328h-15.344V30.16l9.75-11.828h-9.547v-3.328h14.875v2.625l-9.781 11.828Zm29.658-14.453-8.328 19.219q-1.16 2.89-2.828 4.062-1.66 1.187-4.016 1.188a8.3 8.3 0 0 1-2.64-.438c-.868-.28-1.57-.68-2.126-1.187l1.657-3.063q.608.563 1.422.891.809.342 1.64.344 1.109-.002 1.813-.578c.476-.375.922-1.008 1.328-1.89l.297-.704-7.766-17.844h4.328l5.594 13.156 5.64-13.156Zm15.736 2.594q1.794-2.796 6.328-2.797v3.969c-.355-.07-.68-.11-.968-.11-1.618 0-2.883.477-3.797 1.422q-1.36 1.425-1.36 4.078v8.625h-4.156v-17.78h3.953Zm16.807-2.797c2.625 0 4.63.633 6.016 1.89q2.076 1.875 2.078 5.673v10.421h-3.922v-2.171c-.512.78-1.242 1.382-2.187 1.796q-1.408.61-3.407.61c-1.336 0-2.5-.227-3.5-.672q-1.502-.687-2.312-1.906-.814-1.217-.813-2.75 0-2.39 1.782-3.844 1.778-1.453 5.609-1.453h4.594v-.266q0-1.857-1.125-2.86c-.742-.663-1.84-1-3.297-1q-1.5 0-2.953.47c-.969.312-1.79.746-2.453 1.296l-1.625-3.03q1.388-1.062 3.359-1.626a14.8 14.8 0 0 1 4.156-.578m-.562 15.188q1.56 0 2.781-.72a3.9 3.9 0 0 0 1.719-2.046V25.16h-4.297c-2.399 0-3.594.79-3.594 2.36q0 1.144.89 1.812.905.657 2.5.657m13.985-14.985h4.156v17.781h-4.156Zm3.781-6.984h4.906l-5.797 4.547h-3.593Zm13.994 25q-2.766.002-4.969-1.156-2.19-1.172-3.422-3.25-1.235-2.094-1.234-4.72-.001-2.625 1.234-4.687 1.231-2.073 3.406-3.234 2.186-1.172 4.985-1.172 2.624 0 4.61 1.078a6.94 6.94 0 0 1 2.984 3.063l-3.204 1.86q-.767-1.233-1.921-1.845a5.15 5.15 0 0 0-2.5-.625c-1.555 0-2.844.508-3.875 1.516-1.024 1.012-1.532 2.36-1.532 4.047s.504 3.039 1.516 4.047q1.512 1.516 3.89 1.515 1.36 0 2.5-.61 1.154-.62 1.922-1.858l3.204 1.875a7.3 7.3 0 0 1-3.016 3.078q-1.988 1.078-4.578 1.078m27.9-9.031q0 .438-.078 1.234h-13.953q.375 1.969 1.921 3.125 1.548 1.142 3.844 1.14 2.936.001 4.828-1.937l2.235 2.578c-.805.95-1.813 1.668-3.032 2.156-1.218.493-2.593.735-4.125.735q-2.94.002-5.171-1.156-2.22-1.172-3.438-3.25-1.219-2.094-1.219-4.72 0-2.59 1.172-4.671a8.33 8.33 0 0 1 3.281-3.25q2.11-1.172 4.735-1.172 2.59.001 4.64 1.156 2.044 1.143 3.204 3.235 1.155 2.078 1.156 4.797m-9-5.86c-1.336 0-2.465.399-3.39 1.188q-1.379 1.19-1.673 3.14h10.094q-.27-1.919-1.64-3.125c-.907-.8-2.04-1.203-3.391-1.203m18.468 14.891q-2.156 0-4.22-.563c-1.374-.382-2.476-.863-3.296-1.437l1.594-3.156c.8.53 1.757.96 2.875 1.28 1.125.325 2.226.485 3.312.485q3.733 0 3.735-1.969c0-.625-.32-1.054-.954-1.296q-.937-.375-3.046-.704-2.19-.326-3.579-.765a5.5 5.5 0 0 1-2.39-1.516q-1.018-1.077-1.016-3.015 0-2.531 2.11-4.047 2.109-1.514 5.718-1.516 1.829 0 3.657.422 1.827.422 3 1.11l-1.594 3.171q-2.269-1.343-5.094-1.344-1.846 0-2.797.563-.937.549-.937 1.437-.002 1.001 1.015 1.422 1.014.423 3.14.782c1.427.218 2.595.476 3.5.765a5.55 5.55 0 0 1 2.345 1.469c.656.687.984 1.664.984 2.922 0 1.668-.727 3-2.172 4q-2.157 1.5-5.89 1.5m37.561-9.031q-.002.438-.078 1.234h-13.953q.375 1.969 1.921 3.125 1.548 1.142 3.844 1.14 2.936.001 4.828-1.937l2.235 2.578q-1.206 1.425-3.032 2.156c-1.218.493-2.593.735-4.125.735q-2.94.002-5.171-1.156-2.22-1.172-3.438-3.25-1.219-2.094-1.219-4.72 0-2.59 1.172-4.671a8.33 8.33 0 0 1 3.281-3.25q2.11-1.172 4.735-1.172 2.59.001 4.64 1.156 2.044 1.143 3.204 3.235 1.155 2.078 1.156 4.797m-9-5.86c-1.336 0-2.465.399-3.39 1.188q-1.379 1.19-1.673 3.14h10.094q-.27-1.919-1.64-3.125-1.363-1.202-3.391-1.203m23.061-3.328q3.374 0 5.407 1.969c1.351 1.312 2.03 3.258 2.03 5.828v10.187h-4.171V23.13q-.002-2.327-1.094-3.5-1.096-1.185-3.125-1.187-2.298.001-3.64 1.375-1.33 1.377-1.329 3.984v8.984h-4.156v-17.78h3.953V17.3a6.46 6.46 0 0 1 2.594-1.86q1.575-.639 3.531-.64m31.892-5.327q3.03.002 5.28 1 2.25 1.001 3.438 2.875 1.202 1.862 1.203 4.422c0 1.687-.402 3.164-1.203 4.422q-1.188 1.876-3.437 2.875-2.251 1.001-5.281 1h-5.266v6.718h-4.328V9.473Zm-.204 12.922q2.826 0 4.297-1.188 1.467-1.2 1.469-3.437-.002-2.233-1.469-3.422-1.471-1.201-4.297-1.203h-5.062v9.25Zm21.164-7.594c2.625 0 4.629.633 6.016 1.89 1.382 1.25 2.078 3.141 2.078 5.673v10.421h-3.922v-2.171c-.512.78-1.242 1.382-2.188 1.796q-1.407.61-3.406.61c-1.336 0-2.5-.227-3.5-.672q-1.502-.687-2.312-1.906-.814-1.217-.813-2.75 0-2.39 1.781-3.844c1.188-.969 3.055-1.453 5.61-1.453h4.593v-.266q0-1.857-1.125-2.86c-.742-.663-1.84-1-3.296-1q-1.5 0-2.954.47c-.968.312-1.789.746-2.453 1.296l-1.625-3.03q1.39-1.062 3.36-1.626a14.8 14.8 0 0 1 4.156-.578m-.563 15.188q1.562 0 2.782-.72a3.9 3.9 0 0 0 1.718-2.046V25.16h-4.296c-2.399 0-3.594.79-3.594 2.36q0 1.144.89 1.812c.602.438 1.438.657 2.5.657m30.625-14.985-8.328 19.219q-1.159 2.89-2.828 4.062-1.66 1.187-4.016 1.188a8.3 8.3 0 0 1-2.64-.438c-.868-.28-1.57-.68-2.125-1.187l1.656-3.063q.608.563 1.422.891.809.342 1.64.344 1.109-.002 1.813-.578c.476-.375.922-1.008 1.328-1.89l.297-.704-7.766-17.844h4.328l5.594 13.156 5.64-13.156Zm8.081 18.016q-2.156 0-4.218-.563c-1.375-.382-2.477-.863-3.297-1.437l1.594-3.156c.8.53 1.757.96 2.875 1.28 1.125.325 2.226.485 3.312.485q3.733 0 3.734-1.969c0-.625-.32-1.054-.953-1.296q-.937-.375-3.047-.704-2.19-.326-3.578-.765a5.5 5.5 0 0 1-2.39-1.516q-1.018-1.077-1.016-3.015 0-2.531 2.11-4.047 2.109-1.514 5.718-1.516 1.829 0 3.656.422 1.83.422 3 1.11l-1.593 3.171q-2.269-1.343-5.094-1.344-1.846 0-2.797.563-.937.549-.937 1.437-.002 1.001 1.015 1.422 1.014.423 3.14.782c1.427.218 2.595.476 3.5.765a5.55 5.55 0 0 1 2.345 1.469c.656.687.984 1.664.984 2.922 0 1.668-.727 3-2.172 4q-2.157 1.5-5.89 1.5m18.437-18.219c2.625 0 4.629.633 6.016 1.89q2.076 1.875 2.078 5.673v10.421h-3.922v-2.171c-.512.78-1.242 1.382-2.188 1.796q-1.407.61-3.406.61c-1.336 0-2.5-.227-3.5-.672q-1.502-.687-2.312-1.906-.814-1.217-.813-2.75 0-2.39 1.781-3.844c1.188-.969 3.055-1.453 5.61-1.453h4.594v-.266q0-1.857-1.125-2.86c-.743-.663-1.84-1-3.297-1q-1.5 0-2.953.47-1.457.47-2.454 1.296l-1.625-3.03q1.39-1.062 3.36-1.626a14.8 14.8 0 0 1 4.156-.578m-.562 15.188q1.56 0 2.78-.72a3.9 3.9 0 0 0 1.72-2.046V25.16h-4.297c-2.399 0-3.594.79-3.594 2.36q0 1.144.89 1.812c.602.438 1.438.657 2.5.657m24.062-15.188q3.375 0 5.407 1.969c1.352 1.312 2.031 3.258 2.031 5.828v10.187h-4.172V23.13q-.002-2.327-1.093-3.5-1.097-1.185-3.125-1.187-2.298.001-3.641 1.375-1.33 1.377-1.328 3.984v8.984h-4.156v-17.78h3.953V17.3a6.46 6.46 0 0 1 2.594-1.86q1.575-.639 3.53-.64m30.128-6.718v24.703h-3.985V30.49a6.64 6.64 0 0 1-2.562 1.906q-1.502.623-3.344.625-2.564 0-4.61-1.125-2.048-1.138-3.218-3.219-1.158-2.074-1.156-4.781-.002-2.702 1.156-4.766a8.15 8.15 0 0 1 3.219-3.187q2.043-1.139 4.61-1.14 1.763 0 3.234.608a6.5 6.5 0 0 1 2.5 1.797V8.082Zm-9.39 21.375q1.498.002 2.702-.672 1.2-.686 1.891-1.953.703-1.263.703-2.937 0-1.669-.703-2.922a4.9 4.9 0 0 0-1.89-1.953q-1.206-.687-2.704-.688-1.5 0-2.703.688a5.03 5.03 0 0 0-1.89 1.953q-.705 1.253-.704 2.922 0 1.674.703 2.937.703 1.267 1.891 1.953 1.201.674 2.703.672m32.053-14.453v17.781h-3.953V30.52a6.66 6.66 0 0 1-2.5 1.86 8.2 8.2 0 0 1-3.234.64q-3.563.001-5.61-1.985-2.049-1.981-2.047-5.875V15.004h4.172v9.594q0 2.393 1.078 3.578c.72.793 1.743 1.188 3.079 1.188q2.233.001 3.546-1.375 1.313-1.388 1.313-4v-8.985Zm-6.984-6.984h4.906l-5.797 4.547h-3.594Zm0 0"/></g></svg>