<svg xmlns="http://www.w3.org/2000/svg" viewBox="0 0 1080 280" role="img" aria-label="Litoral Hogar">
  <title>Litoral Hogar</title>
  <g transform="translate(-52.574, -19.320) scale(0.4963)">
<path fill="#296175" d="M 276.445312 183.511719 L 279.824219 183.511719 L 283.683594 185.441406 L 288.511719 189.785156 L 292.375 193.160156 L 296.234375 196.054688 L 303.472656 202.328125 L 308.785156 206.667969 L 315.058594 211.976562 L 325.675781 220.65625 L 330.503906 225 L 334.363281 227.894531 L 336.777344 230.304688 L 340.640625 233.683594 L 345.949219 238.023438 L 350.773438 241.882812 L 356.085938 246.226562 L 361.394531 250.566406 L 366.703125 254.910156 L 372.011719 259.734375 L 376.355469 263.109375 L 382.148438 268.417969 L 382.148438 269.382812 L 384.5625 269.863281 L 386.492188 271.792969 L 386.492188 272.757812 L 388.90625 273.722656 L 391.800781 276.136719 L 391.800781 277.101562 L 394.214844 278.066406 L 398.074219 281.441406 L 401.9375 284.820312 L 403.867188 287.230469 L 404.832031 290.125 L 404.832031 293.984375 L 402.417969 298.328125 L 399.523438 299.773438 L 397.59375 300.257812 L 370.5625 300.738281 L 368.632812 301.222656 L 368.632812 308.457031 L 417.382812 307.976562 L 422.210938 303.632812 L 426.070312 300.257812 L 431.378906 295.914062 L 436.6875 291.574219 L 437.652344 291.574219 L 437.652344 290.609375 L 439.585938 290.125 L 439.585938 289.160156 L 446.34375 284.335938 L 455.996094 278.546875 L 463.71875 274.6875 L 472.40625 270.828125 L 479.164062 268.898438 L 491.230469 265.523438 L 500.882812 263.59375 L 503.777344 263.109375 L 524.53125 263.109375 L 536.597656 265.039062 L 551.078125 268.898438 L 557.835938 270.828125 L 567.972656 275.171875 L 580.039062 281.441406 L 585.832031 285.300781 L 590.175781 288.679688 L 596.933594 293.984375 L 602.242188 298.328125 L 607.066406 302.1875 L 611.410156 306.527344 L 614.789062 308.457031 L 619.617188 309.421875 L 621.546875 311.832031 L 622.03125 312.796875 L 622.03125 319.070312 L 620.101562 322.445312 L 618.652344 323.410156 L 580.039062 323.410156 L 580.523438 342.707031 L 581.96875 342.707031 L 593.554688 341.742188 L 615.273438 341.742188 L 616.238281 342.707031 L 616.722656 346.085938 L 614.789062 352.839844 L 611.894531 362.96875 L 609.480469 369.242188 L 607.066406 374.546875 L 605.621094 378.40625 L 603.6875 382.265625 L 602.242188 385.644531 L 599.828125 389.984375 L 598.863281 392.878906 L 597.898438 392.878906 L 596.933594 395.292969 L 594.035156 400.117188 L 591.621094 403.492188 L 589.691406 407.351562 L 586.3125 411.691406 L 585.347656 411.691406 L 584.382812 414.105469 L 581.488281 417.964844 L 579.554688 419.894531 L 578.589844 419.894531 L 578.589844 420.859375 L 577.625 420.859375 L 577.144531 422.304688 L 574.246094 422.789062 L 575.210938 415.070312 L 575.210938 405.90625 L 573.765625 400.117188 L 569.421875 391.914062 L 567.972656 390.46875 L 567.972656 389.503906 L 567.007812 389.503906 L 564.109375 386.125 L 558.800781 382.265625 L 552.527344 378.40625 L 547.699219 375.996094 L 547.699219 375.03125 L 544.804688 374.066406 L 538.046875 369.722656 L 535.632812 368.277344 L 532.253906 365.382812 L 531.773438 362.488281 L 532.253906 359.109375 L 533.222656 357.179688 L 536.117188 354.769531 L 538.53125 353.320312 L 540.945312 351.390625 L 552.527344 348.015625 L 557.355469 346.566406 L 557.355469 323.410156 L 473.371094 323.894531 L 472.886719 324.859375 L 472.886719 335.472656 L 473.371094 341.261719 L 534.1875 341.742188 L 534.667969 344.636719 L 532.738281 346.085938 L 525.5 348.496094 L 520.671875 351.390625 L 517.292969 354.769531 L 515.363281 358.144531 L 515.363281 363.453125 L 517.777344 368.277344 L 521.15625 371.652344 L 526.945312 375.03125 L 531.773438 378.40625 L 539.976562 382.75 L 546.253906 386.609375 L 551.078125 389.984375 L 557.355469 395.773438 L 559.765625 399.152344 L 559.765625 400.117188 L 560.734375 400.117188 L 563.144531 407.351562 L 563.628906 413.621094 L 561.699219 420.375 L 559.285156 425.199219 L 558.320312 425.199219 L 557.835938 427.128906 L 553.492188 432.917969 L 552.527344 432.917969 L 551.5625 434.847656 L 547.699219 438.226562 L 539.496094 444.015625 L 526.945312 449.804688 L 514.878906 453.664062 L 504.261719 456.558594 L 497.988281 458.003906 L 483.023438 460.417969 L 474.820312 461.382812 L 466.613281 462.347656 L 456.476562 462.347656 L 441.515625 461.382812 L 424.140625 458.96875 L 414.003906 457.039062 L 400.488281 453.664062 L 392.765625 451.25 L 383.113281 448.355469 L 375.390625 445.460938 L 370.082031 443.53125 L 357.53125 438.707031 L 350.773438 436.296875 L 344.019531 433.882812 L 329.539062 428.578125 L 327.125 428.09375 L 315.058594 424.234375 L 304.441406 421.339844 L 301.542969 420.859375 L 283.683594 417.964844 L 270.171875 416.515625 L 252.796875 416.035156 L 238.796875 417.480469 L 225.285156 420.375 L 216.59375 422.304688 L 206.941406 425.199219 L 204.527344 426.164062 L 200.183594 425.683594 L 197.289062 423.269531 L 193.910156 418.445312 L 191.015625 415.070312 L 191.015625 414.105469 L 189.566406 413.621094 L 184.738281 406.867188 L 183.773438 403.492188 L 184.738281 400.597656 L 186.671875 399.152344 L 196.804688 395.292969 L 204.527344 392.878906 L 209.839844 390.949219 L 222.871094 387.574219 L 227.214844 387.089844 L 245.554688 384.195312 L 257.621094 383.230469 L 271.617188 383.230469 L 282.238281 383.714844 L 296.234375 385.644531 L 303.957031 387.089844 L 308.785156 387.574219 L 326.160156 391.914062 L 335.8125 394.808594 L 340.15625 395.773438 L 356.085938 401.082031 L 361.875 402.527344 L 376.839844 407.351562 L 385.527344 409.761719 L 391.800781 411.210938 L 404.832031 414.105469 L 413.519531 415.550781 L 426.554688 416.515625 L 438.136719 416.515625 L 449.71875 415.070312 L 455.511719 413.621094 L 463.71875 410.726562 L 469.507812 407.832031 L 470.476562 407.832031 L 470.957031 406.386719 L 474.820312 403.011719 L 477.714844 399.152344 L 478.679688 396.738281 L 478.679688 390.949219 L 477.714844 386.609375 L 474.335938 381.785156 L 471.921875 378.890625 L 465.164062 374.546875 L 461.789062 372.617188 L 454.546875 369.722656 L 449.71875 368.277344 L 439.585938 365.863281 L 427.519531 363.933594 L 414.003906 362.488281 L 406.765625 361.523438 L 398.074219 358.628906 L 394.214844 355.25 L 394.214844 349.460938 L 396.144531 347.050781 L 401.9375 344.15625 L 406.765625 343.191406 L 417.382812 341.742188 L 449.71875 341.261719 L 450.6875 338.367188 L 450.203125 323.894531 L 370.5625 323.410156 L 368.632812 322.929688 L 369.117188 377.441406 L 372.976562 379.371094 L 383.113281 382.265625 L 392.285156 385.160156 L 402.902344 387.574219 L 410.625 389.019531 L 420.277344 389.984375 L 420.761719 390.46875 L 435.242188 390.46875 L 441.515625 389.984375 L 447.789062 388.054688 L 452.617188 385.160156 L 455.511719 384.679688 L 458.410156 385.644531 L 460.820312 387.089844 L 462.753906 389.984375 L 462.753906 394.328125 L 460.820312 397.703125 L 456.960938 401.082031 L 453.097656 403.492188 L 443.929688 405.90625 L 439.585938 406.386719 L 414.488281 405.90625 L 405.316406 404.457031 L 397.109375 402.527344 L 390.835938 400.597656 L 385.042969 399.152344 L 378.285156 397.703125 L 365.253906 393.363281 L 359.464844 391.433594 L 352.222656 389.503906 L 340.640625 386.125 L 335.8125 384.195312 L 330.503906 383.230469 L 325.195312 381.785156 L 311.679688 378.890625 L 304.921875 376.960938 L 302.027344 375.511719 L 297.683594 372.136719 L 295.75 369.722656 L 294.304688 364.898438 L 293.820312 359.59375 L 293.820312 314.246094 L 292.855469 312.796875 L 265.828125 312.316406 L 264.863281 313.761719 L 264.378906 346.566406 L 263.894531 350.910156 L 263.414062 361.039062 L 261.484375 365.382812 L 258.585938 369.242188 L 255.691406 371.171875 L 250.863281 373.101562 L 246.519531 373.582031 L 243.140625 374.546875 L 232.523438 376.476562 L 226.25 376.960938 L 219.972656 378.890625 L 208.871094 381.300781 L 202.117188 383.714844 L 198.253906 384.679688 L 183.773438 389.984375 L 179.914062 390.949219 L 177.015625 390.949219 L 174.121094 389.019531 L 172.191406 386.609375 L 171.226562 383.714844 L 171.226562 380.335938 L 172.671875 377.925781 L 175.570312 375.996094 L 183.292969 372.617188 L 187.152344 370.6875 L 187.636719 369.242188 L 187.636719 301.703125 L 186.1875 300.738281 L 164.46875 300.257812 L 164.46875 299.292969 L 160.125 299.292969 L 155.296875 296.398438 L 153.367188 293.019531 L 153.367188 288.679688 L 154.816406 285.785156 L 157.710938 282.890625 L 158.675781 282.890625 L 158.675781 281.925781 L 163.984375 277.582031 L 171.226562 271.3125 L 178.464844 265.039062 L 185.222656 259.25 L 186.1875 259.25 L 187.152344 257.320312 L 191.980469 252.980469 L 192.945312 252.980469 L 193.429688 202.808594 L 194.394531 197.503906 L 196.324219 194.609375 L 199.21875 192.679688 L 200.667969 192.195312 L 229.144531 192.195312 L 233.488281 194.125 L 235.902344 196.539062 L 237.351562 202.328125 L 237.832031 210.527344 L 239.28125 211.976562 L 242.175781 211.492188 L 242.175781 210.527344 L 245.074219 208.597656 L 251.828125 202.808594 L 258.105469 197.503906 L 264.863281 192.195312 L 271.136719 186.890625 L 274.996094 183.996094 Z M 276.929688 200.878906 L 275.480469 201.363281 L 273.066406 203.773438 L 268.722656 207.632812 L 263.414062 211.976562 L 256.65625 217.761719 L 250.863281 222.585938 L 245.554688 226.929688 L 240.246094 231.269531 L 240.246094 232.234375 L 238.316406 233.199219 L 231.074219 239.472656 L 227.695312 242.367188 L 227.695312 243.332031 L 225.285156 244.296875 L 223.351562 245.742188 L 223.351562 246.707031 L 222.386719 246.707031 L 222.386719 247.671875 L 220.457031 248.636719 L 216.113281 252.496094 L 210.804688 256.839844 L 205.976562 261.179688 L 199.21875 266.488281 L 193.910156 271.3125 L 189.082031 275.171875 L 184.738281 279.03125 L 181.363281 281.441406 L 181.363281 284.335938 L 182.328125 284.820312 L 193.910156 284.820312 L 198.253906 285.785156 L 201.152344 288.195312 L 202.597656 291.089844 L 203.082031 364.417969 L 203.5625 365.382812 L 209.355469 365.382812 L 222.871094 362.488281 L 226.730469 361.523438 L 239.28125 359.59375 L 246.039062 358.144531 L 247.003906 356.699219 L 247.484375 305.082031 L 248.933594 300.738281 L 251.347656 298.328125 L 254.242188 297.363281 L 301.542969 297.363281 L 306.371094 298.808594 L 308.300781 301.222656 L 308.785156 303.632812 L 309.265625 359.59375 L 310.714844 362.003906 L 312.644531 363.453125 L 322.296875 365.382812 L 327.125 366.347656 L 339.191406 369.722656 L 347.398438 372.136719 L 353.1875 372.136719 L 353.671875 292.539062 L 354.636719 289.160156 L 356.566406 286.75 L 359.464844 285.300781 L 361.394531 284.820312 L 373.941406 284.820312 L 376.355469 284.335938 L 375.875 281.925781 L 371.046875 277.582031 L 365.738281 273.242188 L 358.980469 267.453125 L 353.671875 263.109375 L 348.84375 258.769531 L 344.019531 254.910156 L 339.675781 251.050781 L 335.8125 247.671875 L 334.847656 247.671875 L 334.847656 246.707031 L 328.089844 241.402344 L 326.160156 239.472656 L 325.195312 239.472656 L 325.195312 238.507812 L 318.4375 233.199219 L 313.609375 228.859375 L 308.300781 224.515625 L 301.542969 218.726562 L 296.234375 214.386719 L 291.40625 210.527344 L 288.996094 208.117188 L 286.582031 206.1875 L 285.617188 206.1875 L 284.652344 204.257812 L 281.753906 201.84375 L 279.824219 200.878906 Z M 209.355469 206.667969 L 208.871094 207.152344 L 208.390625 237.058594 L 210.320312 238.023438 L 214.183594 234.648438 L 219.972656 229.824219 L 221.421875 228.375 L 221.90625 225 L 221.90625 208.117188 L 220.941406 206.667969 Z M 520.671875 275.652344 L 519.707031 277.582031 L 519.707031 288.679688 L 520.1875 307.976562 L 520.671875 308.941406 L 536.597656 308.941406 L 537.082031 307.976562 L 537.082031 278.066406 L 536.117188 277.101562 L 526.945312 275.652344 Z M 508.121094 275.652344 L 499.433594 276.136719 L 494.125 277.582031 L 493.160156 278.546875 L 493.160156 307.976562 L 495.574219 309.421875 L 510.054688 308.941406 L 511.5 307.011719 L 511.5 280.476562 L 511.019531 276.617188 L 509.570312 275.652344 Z M 480.128906 280.476562 L 474.335938 282.40625 L 468.542969 285.300781 L 467.097656 286.75 L 467.097656 308.457031 L 467.578125 308.941406 L 483.023438 308.941406 L 483.988281 307.976562 L 484.472656 281.441406 L 483.507812 280.476562 Z M 548.183594 280.960938 L 547.21875 281.925781 L 547.21875 307.976562 L 548.183594 308.941406 L 563.628906 308.941406 L 564.59375 307.976562 L 564.59375 287.230469 L 562.179688 285.300781 L 557.355469 282.890625 L 551.078125 280.960938 Z M 454.066406 293.019531 L 451.167969 295.433594 L 449.71875 295.914062 L 449.71875 296.878906 L 447.308594 297.84375 L 447.308594 298.808594 L 444.894531 299.773438 L 439.101562 304.117188 L 436.6875 306.527344 L 437.171875 308.941406 L 455.996094 308.941406 L 456.960938 307.976562 L 456.960938 293.503906 L 456.476562 293.019531 Z M 575.210938 293.019531 L 574.246094 293.984375 L 574.246094 307.976562 L 575.210938 308.941406 L 593.554688 308.941406 L 594.035156 308.457031 L 594.035156 305.5625 L 587.761719 300.738281 L 586.796875 300.738281 L 586.796875 299.773438 L 582.453125 296.878906 L 576.660156 293.019531 Z M 575.210938 293.019531 " fill-opacity="1" fill-rule="nonzero"/>
<path fill="#bf7349" d="M 276.445312 183.511719 L 279.824219 183.511719 L 283.683594 185.441406 L 288.511719 189.785156 L 292.375 193.160156 L 296.234375 196.054688 L 303.472656 202.328125 L 308.785156 206.667969 L 315.058594 211.976562 L 325.675781 220.65625 L 330.503906 225 L 334.363281 227.894531 L 336.777344 230.304688 L 340.640625 233.683594 L 345.949219 238.023438 L 350.773438 241.882812 L 356.085938 246.226562 L 361.394531 250.566406 L 366.703125 254.910156 L 372.011719 259.734375 L 376.355469 263.109375 L 382.148438 268.417969 L 382.148438 269.382812 L 384.5625 269.863281 L 386.492188 271.792969 L 386.492188 272.757812 L 388.90625 273.722656 L 391.800781 276.136719 L 391.800781 277.101562 L 394.214844 278.066406 L 398.074219 281.441406 L 401.9375 284.820312 L 403.867188 287.230469 L 404.832031 290.125 L 404.832031 293.984375 L 402.417969 298.328125 L 399.523438 299.773438 L 397.59375 300.257812 L 370.5625 300.738281 L 368.632812 301.222656 L 369.117188 377.441406 L 372.976562 379.371094 L 383.113281 382.265625 L 392.285156 385.160156 L 402.902344 387.574219 L 410.625 389.019531 L 420.277344 389.984375 L 420.761719 390.46875 L 435.242188 390.46875 L 441.515625 389.984375 L 447.789062 388.054688 L 452.617188 385.160156 L 455.511719 384.679688 L 458.410156 385.644531 L 460.820312 387.089844 L 462.753906 389.984375 L 462.753906 394.328125 L 460.820312 397.703125 L 456.960938 401.082031 L 453.097656 403.492188 L 443.929688 405.90625 L 439.585938 406.386719 L 414.488281 405.90625 L 405.316406 404.457031 L 397.109375 402.527344 L 390.835938 400.597656 L 385.042969 399.152344 L 378.285156 397.703125 L 365.253906 393.363281 L 359.464844 391.433594 L 352.222656 389.503906 L 340.640625 386.125 L 335.8125 384.195312 L 330.503906 383.230469 L 325.195312 381.785156 L 311.679688 378.890625 L 304.921875 376.960938 L 302.027344 375.511719 L 297.683594 372.136719 L 295.75 369.722656 L 294.304688 364.898438 L 293.820312 359.59375 L 293.820312 314.246094 L 292.855469 312.796875 L 265.828125 312.316406 L 264.863281 313.761719 L 264.378906 346.566406 L 263.894531 350.910156 L 263.414062 361.039062 L 261.484375 365.382812 L 258.585938 369.242188 L 255.691406 371.171875 L 250.863281 373.101562 L 246.519531 373.582031 L 243.140625 374.546875 L 232.523438 376.476562 L 226.25 376.960938 L 219.972656 378.890625 L 208.871094 381.300781 L 202.117188 383.714844 L 198.253906 384.679688 L 183.773438 389.984375 L 179.914062 390.949219 L 177.015625 390.949219 L 174.121094 389.019531 L 172.191406 386.609375 L 171.226562 383.714844 L 171.226562 380.335938 L 172.671875 377.925781 L 175.570312 375.996094 L 183.292969 372.617188 L 187.152344 370.6875 L 187.636719 369.242188 L 187.636719 301.703125 L 186.1875 300.738281 L 164.46875 300.257812 L 164.46875 299.292969 L 160.125 299.292969 L 155.296875 296.398438 L 153.367188 293.019531 L 153.367188 288.679688 L 154.816406 285.785156 L 157.710938 282.890625 L 158.675781 282.890625 L 158.675781 281.925781 L 163.984375 277.582031 L 171.226562 271.3125 L 178.464844 265.039062 L 185.222656 259.25 L 186.1875 259.25 L 187.152344 257.320312 L 191.980469 252.980469 L 192.945312 252.980469 L 193.429688 202.808594 L 194.394531 197.503906 L 196.324219 194.609375 L 199.21875 192.679688 L 200.667969 192.195312 L 229.144531 192.195312 L 233.488281 194.125 L 235.902344 196.539062 L 237.351562 202.328125 L 237.832031 210.527344 L 239.28125 211.976562 L 242.175781 211.492188 L 242.175781 210.527344 L 245.074219 208.597656 L 251.828125 202.808594 L 258.105469 197.503906 L 264.863281 192.195312 L 271.136719 186.890625 L 274.996094 183.996094 Z M 276.929688 200.878906 L 275.480469 201.363281 L 273.066406 203.773438 L 268.722656 207.632812 L 263.414062 211.976562 L 256.65625 217.761719 L 250.863281 222.585938 L 245.554688 226.929688 L 240.246094 231.269531 L 240.246094 232.234375 L 238.316406 233.199219 L 231.074219 239.472656 L 227.695312 242.367188 L 227.695312 243.332031 L 225.285156 244.296875 L 223.351562 245.742188 L 223.351562 246.707031 L 222.386719 246.707031 L 222.386719 247.671875 L 220.457031 248.636719 L 216.113281 252.496094 L 210.804688 256.839844 L 205.976562 261.179688 L 199.21875 266.488281 L 193.910156 271.3125 L 189.082031 275.171875 L 184.738281 279.03125 L 181.363281 281.441406 L 181.363281 284.335938 L 182.328125 284.820312 L 193.910156 284.820312 L 198.253906 285.785156 L 201.152344 288.195312 L 202.597656 291.089844 L 203.082031 364.417969 L 203.5625 365.382812 L 209.355469 365.382812 L 222.871094 362.488281 L 226.730469 361.523438 L 239.28125 359.59375 L 246.039062 358.144531 L 247.003906 356.699219 L 247.484375 305.082031 L 248.933594 300.738281 L 251.347656 298.328125 L 254.242188 297.363281 L 301.542969 297.363281 L 306.371094 298.808594 L 308.300781 301.222656 L 308.785156 303.632812 L 309.265625 359.59375 L 310.714844 362.003906 L 312.644531 363.453125 L 322.296875 365.382812 L 327.125 366.347656 L 339.191406 369.722656 L 347.398438 372.136719 L 353.1875 372.136719 L 353.671875 292.539062 L 354.636719 289.160156 L 356.566406 286.75 L 359.464844 285.300781 L 361.394531 284.820312 L 373.941406 284.820312 L 376.355469 284.335938 L 375.875 281.925781 L 371.046875 277.582031 L 365.738281 273.242188 L 358.980469 267.453125 L 353.671875 263.109375 L 348.84375 258.769531 L 344.019531 254.910156 L 339.675781 251.050781 L 335.8125 247.671875 L 334.847656 247.671875 L 334.847656 246.707031 L 328.089844 241.402344 L 326.160156 239.472656 L 325.195312 239.472656 L 325.195312 238.507812 L 318.4375 233.199219 L 313.609375 228.859375 L 308.300781 224.515625 L 301.542969 218.726562 L 296.234375 214.386719 L 291.40625 210.527344 L 288.996094 208.117188 L 286.582031 206.1875 L 285.617188 206.1875 L 284.652344 204.257812 L 281.753906 201.84375 L 279.824219 200.878906 Z M 209.355469 206.667969 L 208.871094 207.152344 L 208.390625 237.058594 L 210.320312 238.023438 L 214.183594 234.648438 L 219.972656 229.824219 L 221.421875 228.375 L 221.90625 225 L 221.90625 208.117188 L 220.941406 206.667969 Z M 209.355469 206.667969 " fill-opacity="1" fill-rule="nonzero"/>
<path fill="#2c687a" d="M 253.277344 426.164062 L 269.6875 426.164062 L 287.0625 428.09375 L 302.992188 431.472656 L 313.128906 433.882812 L 328.089844 438.707031 L 335.8125 441.601562 L 345.949219 445.460938 L 354.152344 448.355469 L 364.289062 452.214844 L 376.839844 456.558594 L 383.597656 458.96875 L 398.558594 463.3125 L 411.109375 466.6875 L 420.277344 468.136719 L 424.140625 468.617188 L 439.101562 470.546875 L 452.132812 471.03125 L 453.097656 471.511719 L 464.199219 471.511719 L 483.023438 470.066406 L 493.644531 468.617188 L 497.988281 468.136719 L 509.089844 465.722656 L 522.121094 461.382812 L 529.84375 458.488281 L 536.117188 455.109375 L 538.53125 455.59375 L 539.011719 457.523438 L 537.566406 459.933594 L 532.253906 463.3125 L 522.601562 469.582031 L 517.777344 472.476562 L 514.878906 473.925781 L 507.15625 478.265625 L 503.777344 480.195312 L 500.398438 481.644531 L 492.195312 485.503906 L 485.921875 487.914062 L 478.679688 490.808594 L 472.40625 493.222656 L 463.234375 496.117188 L 453.097656 499.492188 L 444.894531 501.421875 L 434.277344 502.386719 L 433.308594 502.867188 L 425.585938 503.351562 L 416.417969 504.316406 L 408.210938 504.796875 L 368.152344 504.796875 L 343.050781 502.386719 L 335.332031 501.90625 L 321.332031 499.011719 L 307.820312 494.667969 L 299.613281 492.257812 L 289.960938 488.398438 L 281.753906 485.019531 L 274.03125 481.160156 L 263.894531 476.335938 L 256.171875 471.996094 L 247.484375 466.207031 L 242.660156 462.828125 L 236.382812 458.488281 L 231.558594 455.109375 L 231.558594 454.144531 L 229.628906 453.179688 L 223.351562 448.355469 L 217.5625 444.015625 L 214.183594 441.121094 L 211.285156 437.742188 L 211.285156 434.847656 L 213.21875 433.402344 L 220.941406 431.472656 L 230.109375 429.542969 L 239.28125 427.613281 Z M 253.277344 426.164062 " fill-opacity="1" fill-rule="nonzero"/>
<path fill="#8b936a" d="M 566.523438 210.046875 L 585.832031 210.046875 L 593.070312 210.527344 L 600.792969 212.941406 L 605.136719 214.867188 L 605.136719 215.832031 L 607.550781 216.796875 L 609.480469 220.65625 L 612.859375 230.789062 L 614.308594 234.164062 L 617.6875 246.707031 L 618.652344 252.496094 L 619.132812 256.839844 L 621.066406 264.558594 L 621.546875 268.417969 L 622.03125 270.828125 L 621.066406 277.582031 L 619.617188 279.03125 L 617.203125 279.996094 L 607.066406 279.996094 L 600.792969 278.546875 L 585.347656 273.242188 L 577.625 269.382812 L 575.210938 267.453125 L 567.972656 264.558594 L 561.214844 262.144531 L 556.871094 260.214844 L 549.148438 258.769531 L 539.496094 256.839844 L 528.394531 255.875 L 526.464844 255.390625 L 503.296875 255.390625 L 490.746094 257.320312 L 482.542969 258.769531 L 472.40625 260.699219 L 469.992188 261.664062 L 467.097656 263.59375 L 459.375 266.488281 L 454.066406 268.417969 L 450.6875 270.828125 L 445.375 273.242188 L 440.550781 274.6875 L 436.207031 274.6875 L 435.722656 275.652344 L 429.449219 278.066406 L 418.832031 279.511719 L 416.898438 279.03125 L 412.074219 277.582031 L 408.695312 274.6875 L 404.832031 272.757812 L 401.453125 268.898438 L 400.972656 266.96875 L 396.628906 264.558594 L 396.144531 261.664062 L 396.628906 260.699219 L 402.417969 259.734375 L 409.660156 258.769531 L 414.96875 257.320312 L 423.175781 255.875 L 431.863281 253.460938 L 438.136719 251.53125 L 447.789062 248.15625 L 457.441406 244.296875 L 462.269531 242.847656 L 464.683594 242.367188 L 464.683594 241.402344 L 473.855469 238.023438 L 479.644531 235.613281 L 483.023438 233.683594 L 486.402344 232.234375 L 495.089844 228.375 L 501.847656 225.480469 L 510.054688 223.070312 L 514.398438 221.621094 L 525.5 217.761719 L 533.222656 215.832031 L 538.53125 213.90625 L 555.421875 211.011719 Z M 566.523438 210.046875 " fill-opacity="1" fill-rule="nonzero"/>
<path fill="#e19e63" d="M 463.234375 133.824219 L 469.027344 133.824219 L 469.507812 134.304688 L 473.371094 134.789062 L 477.714844 136.234375 L 483.507812 138.648438 L 484.472656 140.578125 L 485.921875 140.578125 L 488.332031 142.988281 L 490.746094 144.917969 L 491.710938 146.847656 L 494.125 149.261719 L 497.019531 152.636719 L 498.46875 155.53125 L 500.882812 162.285156 L 501.847656 165.664062 L 501.847656 171.933594 L 499.917969 179.652344 L 497.988281 183.996094 L 496.054688 186.890625 L 493.644531 191.714844 L 492.675781 191.714844 L 491.710938 193.644531 L 490.265625 195.089844 L 487.851562 196.539062 L 486.402344 197.019531 L 486.402344 197.984375 L 485.4375 197.984375 L 484.953125 199.433594 L 480.128906 202.328125 L 468.0625 205.222656 L 463.71875 205.222656 L 456.960938 204.257812 L 450.203125 201.84375 L 445.859375 199.433594 L 443.445312 197.503906 L 442.480469 196.054688 L 439.585938 194.609375 L 436.6875 192.195312 L 435.242188 189.300781 L 433.792969 186.40625 L 431.863281 183.996094 L 429.929688 179.171875 L 428.484375 173.382812 L 428 167.59375 L 429.929688 159.390625 L 433.308594 152.636719 L 436.6875 147.332031 L 440.550781 143.472656 L 444.410156 141.058594 L 446.824219 139.128906 L 452.617188 136.234375 L 460.820312 134.304688 Z M 463.234375 133.824219 " fill-opacity="1" fill-rule="nonzero"/>
<path fill="#587e7c" d="M 593.554688 341.742188 L 615.273438 341.742188 L 616.238281 342.707031 L 616.722656 346.085938 L 614.789062 352.839844 L 611.894531 362.96875 L 609.480469 369.242188 L 607.066406 374.546875 L 605.621094 378.40625 L 603.6875 382.265625 L 602.242188 385.644531 L 599.828125 389.984375 L 598.863281 392.878906 L 597.898438 392.878906 L 596.933594 395.292969 L 594.035156 400.117188 L 591.621094 403.492188 L 589.691406 407.351562 L 586.3125 411.691406 L 585.347656 411.691406 L 584.382812 414.105469 L 581.488281 417.964844 L 579.554688 419.894531 L 578.589844 419.894531 L 578.589844 420.859375 L 577.625 420.859375 L 577.144531 422.304688 L 574.246094 422.789062 L 575.210938 415.070312 L 575.210938 405.90625 L 573.765625 400.117188 L 569.421875 391.914062 L 567.972656 390.46875 L 567.972656 389.503906 L 567.007812 389.503906 L 564.109375 386.125 L 558.800781 382.265625 L 552.527344 378.40625 L 547.699219 375.996094 L 547.699219 375.03125 L 544.804688 374.066406 L 538.046875 369.722656 L 535.632812 368.277344 L 532.253906 365.382812 L 531.773438 362.488281 L 532.253906 359.109375 L 533.222656 357.179688 L 536.117188 354.769531 L 538.53125 353.320312 L 540.945312 351.390625 L 552.527344 348.015625 L 559.765625 346.085938 L 576.175781 343.671875 L 580.523438 342.707031 L 581.96875 342.707031 Z M 593.554688 341.742188 " fill-opacity="1" fill-rule="nonzero"/>
<path fill="#8b936a" d="M 364.289062 212.457031 L 376.839844 212.457031 L 391.320312 213.421875 L 398.558594 214.867188 L 408.695312 217.761719 L 414.003906 218.726562 L 419.796875 220.65625 L 425.585938 222.585938 L 432.34375 225 L 437.171875 226.445312 L 440.066406 228.375 L 450.203125 232.71875 L 452.132812 234.648438 L 452.617188 238.023438 L 450.6875 239.953125 L 446.34375 241.402344 L 441.515625 243.332031 L 438.136719 244.777344 L 431.863281 246.707031 L 420.277344 250.085938 L 408.695312 252.496094 L 395.179688 254.425781 L 385.527344 254.425781 L 381.664062 252.980469 L 378.769531 251.050781 L 375.390625 248.15625 L 370.082031 243.8125 L 366.21875 240.4375 L 366.21875 239.472656 L 364.289062 238.507812 L 359.945312 235.128906 L 357.53125 232.71875 L 355.121094 230.304688 L 354.636719 228.859375 L 353.671875 228.859375 L 351.257812 225.964844 L 346.914062 222.585938 L 344.984375 220.175781 L 342.085938 218.246094 L 342.085938 216.316406 L 350.773438 213.90625 L 358.015625 212.941406 Z M 364.289062 212.457031 " fill-opacity="1" fill-rule="nonzero"/>
  </g>
  <g transform="translate(275.000, 83.360) scale(1.1800)">
<g><g clip-path="url(#28f3104350)"><g fill="#2c718d" fill-opacity="1"><g transform="translate(1.136785, 74.959678)"><g><path d="M 6.46875 -54.53125 L 19.09375 -54.53125 L 19.09375 -10.28125 L 46.4375 -10.28125 L 46.4375 0 L 6.46875 0 Z M 6.46875 -54.53125 "/></g></g></g><g fill="#2c718d" fill-opacity="1"><g transform="translate(48.193999, 74.959678)"><g><path d="M 6.46875 -54.53125 L 19.09375 -54.53125 L 19.09375 0 L 6.46875 0 Z M 6.46875 -54.53125 "/></g></g></g><g fill="#2c718d" fill-opacity="1"><g transform="translate(73.748243, 74.959678)"><g><path d="M 17.765625 -44.25 L 0.3125 -44.25 L 0.3125 -54.53125 L 47.828125 -54.53125 L 47.828125 -44.25 L 30.390625 -44.25 L 30.390625 0 L 17.765625 0 Z M 17.765625 -44.25 "/></g></g></g><g fill="#2c718d" fill-opacity="1"><g transform="translate(121.896188, 74.959678)"><g><path d="M 32.875 0.9375 C 27.21875 0.9375 22.113281 -0.28125 17.5625 -2.71875 C 13.019531 -5.164062 9.460938 -8.53125 6.890625 -12.8125 C 4.316406 -17.101562 3.03125 -21.921875 3.03125 -27.265625 C 3.03125 -32.617188 4.316406 -37.4375 6.890625 -41.71875 C 9.460938 -46 13.019531 -49.359375 17.5625 -51.796875 C 22.113281 -54.242188 27.21875 -55.46875 32.875 -55.46875 C 38.539062 -55.46875 43.628906 -54.242188 48.140625 -51.796875 C 52.660156 -49.359375 56.21875 -46 58.8125 -41.71875 C 61.414062 -37.4375 62.71875 -32.617188 62.71875 -27.265625 C 62.71875 -21.921875 61.414062 -17.101562 58.8125 -12.8125 C 56.21875 -8.53125 52.660156 -5.164062 48.140625 -2.71875 C 43.628906 -0.28125 38.539062 0.9375 32.875 0.9375 Z M 32.875 -9.8125 C 36.09375 -9.8125 39 -10.550781 41.59375 -12.03125 C 44.195312 -13.507812 46.238281 -15.570312 47.71875 -18.21875 C 49.195312 -20.875 49.9375 -23.890625 49.9375 -27.265625 C 49.9375 -30.640625 49.195312 -33.648438 47.71875 -36.296875 C 46.238281 -38.953125 44.195312 -41.019531 41.59375 -42.5 C 39 -43.976562 36.09375 -44.71875 32.875 -44.71875 C 29.65625 -44.71875 26.742188 -43.976562 24.140625 -42.5 C 21.546875 -41.019531 19.507812 -38.953125 18.03125 -36.296875 C 16.550781 -33.648438 15.8125 -30.640625 15.8125 -27.265625 C 15.8125 -23.890625 16.550781 -20.875 18.03125 -18.21875 C 19.507812 -15.570312 21.546875 -13.507812 24.140625 -12.03125 C 26.742188 -10.550781 29.65625 -9.8125 32.875 -9.8125 Z M 32.875 -9.8125 "/></g></g></g><g fill="#2c718d" fill-opacity="1"><g transform="translate(187.651625, 74.959678)"><g><path d="M 41.21875 0 L 30.6875 -15.1875 L 19.09375 -15.1875 L 19.09375 0 L 6.46875 0 L 6.46875 -54.53125 L 30.078125 -54.53125 C 34.898438 -54.53125 39.085938 -53.722656 42.640625 -52.109375 C 46.203125 -50.503906 48.941406 -48.222656 50.859375 -45.265625 C 52.785156 -42.304688 53.75 -38.800781 53.75 -34.75 C 53.75 -30.695312 52.773438 -27.203125 50.828125 -24.265625 C 48.878906 -21.328125 46.113281 -19.082031 42.53125 -17.53125 L 54.765625 0 Z M 40.984375 -34.75 C 40.984375 -37.8125 39.992188 -40.160156 38.015625 -41.796875 C 36.046875 -43.429688 33.164062 -44.25 29.375 -44.25 L 19.09375 -44.25 L 19.09375 -25.234375 L 29.375 -25.234375 C 33.164062 -25.234375 36.046875 -26.066406 38.015625 -27.734375 C 39.992188 -29.398438 40.984375 -31.738281 40.984375 -34.75 Z M 40.984375 -34.75 "/></g></g></g><g fill="#2c718d" fill-opacity="1"><g transform="translate(244.914959, 74.959678)"><g><path d="M 42.375 -11.6875 L 17.0625 -11.6875 L 12.234375 0 L -0.703125 0 L 23.609375 -54.53125 L 36.078125 -54.53125 L 60.453125 0 L 47.21875 0 Z M 38.40625 -21.265625 L 29.765625 -42.140625 L 21.109375 -21.265625 Z M 38.40625 -21.265625 "/></g></g></g><g fill="#2c718d" fill-opacity="1"><g transform="translate(304.593469, 74.959678)"><g><path d="M 6.46875 -54.53125 L 19.09375 -54.53125 L 19.09375 -10.28125 L 46.4375 -10.28125 L 46.4375 0 L 6.46875 0 Z M 6.46875 -54.53125 "/></g></g></g><g fill="#2c718d" fill-opacity="1"><g transform="translate(351.650684, 74.959678)"><g/></g></g><g fill="#2c718d" fill-opacity="1"><g transform="translate(373.71096, 74.959678)"><g><path d="M 54.453125 -54.53125 L 54.453125 0 L 48.765625 0 L 48.765625 -25.15625 L 14.640625 -25.15625 L 14.640625 0 L 8.875 0 L 8.875 -54.53125 L 14.640625 -54.53125 L 14.640625 -30.234375 L 48.765625 -30.234375 L 48.765625 -54.53125 Z M 54.453125 -54.53125 "/></g></g></g><g fill="#2c718d" fill-opacity="1"><g transform="translate(437.05122, 74.959678)"><g><path d="M 32.71875 0.46875 C 27.320312 0.46875 22.425781 -0.738281 18.03125 -3.15625 C 13.644531 -5.570312 10.21875 -8.882812 7.75 -13.09375 C 5.28125 -17.300781 4.046875 -22.023438 4.046875 -27.265625 C 4.046875 -32.515625 5.28125 -37.238281 7.75 -41.4375 C 10.21875 -45.644531 13.644531 -48.957031 18.03125 -51.375 C 22.425781 -53.789062 27.320312 -55 32.71875 -55 C 38.125 -55 42.992188 -53.800781 47.328125 -51.40625 C 51.660156 -49.019531 55.070312 -45.710938 57.5625 -41.484375 C 60.0625 -37.253906 61.3125 -32.515625 61.3125 -27.265625 C 61.3125 -22.023438 60.0625 -17.285156 57.5625 -13.046875 C 55.070312 -8.816406 51.660156 -5.503906 47.328125 -3.109375 C 42.992188 -0.722656 38.125 0.46875 32.71875 0.46875 Z M 32.71875 -4.671875 C 37.03125 -4.671875 40.925781 -5.644531 44.40625 -7.59375 C 47.882812 -9.539062 50.609375 -12.238281 52.578125 -15.6875 C 54.554688 -19.144531 55.546875 -23.003906 55.546875 -27.265625 C 55.546875 -31.523438 54.554688 -35.378906 52.578125 -38.828125 C 50.609375 -42.285156 47.882812 -44.988281 44.40625 -46.9375 C 40.925781 -48.882812 37.03125 -49.859375 32.71875 -49.859375 C 28.40625 -49.859375 24.492188 -48.882812 20.984375 -46.9375 C 17.484375 -44.988281 14.734375 -42.285156 12.734375 -38.828125 C 10.734375 -35.378906 9.734375 -31.523438 9.734375 -27.265625 C 9.734375 -23.003906 10.734375 -19.144531 12.734375 -15.6875 C 14.734375 -12.238281 17.484375 -9.539062 20.984375 -7.59375 C 24.492188 -5.644531 28.40625 -4.671875 32.71875 -4.671875 Z M 32.71875 -4.671875 "/></g></g></g><g fill="#2c718d" fill-opacity="1"><g transform="translate(502.417117, 74.959678)"><g><path d="M 47.28125 -27.265625 L 52.828125 -27.265625 L 52.828125 -6.46875 C 50.273438 -4.226562 47.257812 -2.507812 43.78125 -1.3125 C 40.300781 -0.125 36.640625 0.46875 32.796875 0.46875 C 27.347656 0.46875 22.441406 -0.722656 18.078125 -3.109375 C 13.710938 -5.503906 10.28125 -8.816406 7.78125 -13.046875 C 5.289062 -17.285156 4.046875 -22.023438 4.046875 -27.265625 C 4.046875 -32.515625 5.289062 -37.253906 7.78125 -41.484375 C 10.28125 -45.710938 13.710938 -49.019531 18.078125 -51.40625 C 22.441406 -53.800781 27.375 -55 32.875 -55 C 37.03125 -55 40.847656 -54.335938 44.328125 -53.015625 C 47.804688 -51.691406 50.738281 -49.734375 53.125 -47.140625 L 49.546875 -43.46875 C 45.234375 -47.726562 39.753906 -49.859375 33.109375 -49.859375 C 28.691406 -49.859375 24.703125 -48.882812 21.140625 -46.9375 C 17.585938 -44.988281 14.796875 -42.285156 12.765625 -38.828125 C 10.742188 -35.378906 9.734375 -31.523438 9.734375 -27.265625 C 9.734375 -23.003906 10.742188 -19.160156 12.765625 -15.734375 C 14.796875 -12.304688 17.578125 -9.601562 21.109375 -7.625 C 24.640625 -5.65625 28.613281 -4.671875 33.03125 -4.671875 C 38.644531 -4.671875 43.394531 -6.070312 47.28125 -8.875 Z M 47.28125 -27.265625 "/></g></g></g><g fill="#2c718d" fill-opacity="1"><g transform="translate(562.640994, 74.959678)"><g><path d="M 43.078125 -14.5625 L 12.703125 -14.5625 L 6.15625 0 L 0.15625 0 L 25.078125 -54.53125 L 30.765625 -54.53125 L 55.703125 0 L 49.625 0 Z M 40.984375 -19.25 L 27.890625 -48.53125 L 14.796875 -19.25 Z M 40.984375 -19.25 "/></g></g></g><g fill="#2c718d" fill-opacity="1"><g transform="translate(618.501962, 74.959678)"><g><path d="M 46.125 0 L 33.65625 -17.53125 C 32.25 -17.375 30.796875 -17.296875 29.296875 -17.296875 L 14.640625 -17.296875 L 14.640625 0 L 8.875 0 L 8.875 -54.53125 L 29.296875 -54.53125 C 36.253906 -54.53125 41.707031 -52.867188 45.65625 -49.546875 C 49.601562 -46.222656 51.578125 -41.65625 51.578125 -35.84375 C 51.578125 -31.582031 50.5 -27.984375 48.34375 -25.046875 C 46.1875 -22.109375 43.109375 -19.992188 39.109375 -18.703125 L 52.4375 0 Z M 29.140625 -22.203125 C 34.535156 -22.203125 38.660156 -23.394531 41.515625 -25.78125 C 44.378906 -28.175781 45.8125 -31.53125 45.8125 -35.84375 C 45.8125 -40.25 44.378906 -43.632812 41.515625 -46 C 38.660156 -48.363281 34.535156 -49.546875 29.140625 -49.546875 L 14.640625 -49.546875 L 14.640625 -22.203125 Z M 29.140625 -22.203125 "/></g></g></g></g></g><g transform="matrix(1, 0, 0, 1, 107, 604)"><g clip-path="url(#a4db84b605)"><g fill="#737373" fill-opacity="1"><g transform="translate(0.241033, 32.785449)"><g><path d="M 23.84375 -23.3125 L 23.84375 0 L 19.515625 0 L 19.515625 -9.984375 L 7.453125 -9.984375 L 7.453125 0 L 3.125 0 L 3.125 -23.3125 L 7.453125 -23.3125 L 7.453125 -13.6875 L 19.515625 -13.6875 L 19.515625 -23.3125 Z M 23.84375 -23.3125 "/></g></g></g><g fill="#737373" fill-opacity="1"><g transform="translate(27.200326, 32.785449)"><g><path d="M 10.71875 0.234375 C 8.925781 0.234375 7.304688 -0.148438 5.859375 -0.921875 C 4.421875 -1.703125 3.296875 -2.785156 2.484375 -4.171875 C 1.671875 -5.566406 1.265625 -7.140625 1.265625 -8.890625 C 1.265625 -10.640625 1.671875 -12.203125 2.484375 -13.578125 C 3.296875 -14.960938 4.421875 -16.039062 5.859375 -16.8125 C 7.304688 -17.59375 8.925781 -17.984375 10.71875 -17.984375 C 12.539062 -17.984375 14.171875 -17.59375 15.609375 -16.8125 C 17.054688 -16.039062 18.1875 -14.960938 19 -13.578125 C 19.8125 -12.203125 20.21875 -10.640625 20.21875 -8.890625 C 20.21875 -7.140625 19.8125 -5.566406 19 -4.171875 C 18.1875 -2.785156 17.054688 -1.703125 15.609375 -0.921875 C 14.171875 -0.148438 12.539062 0.234375 10.71875 0.234375 Z M 10.71875 -3.328125 C 12.25 -3.328125 13.515625 -3.835938 14.515625 -4.859375 C 15.515625 -5.878906 16.015625 -7.222656 16.015625 -8.890625 C 16.015625 -10.554688 15.515625 -11.898438 14.515625 -12.921875 C 13.515625 -13.941406 12.25 -14.453125 10.71875 -14.453125 C 9.1875 -14.453125 7.925781 -13.941406 6.9375 -12.921875 C 5.945312 -11.898438 5.453125 -10.554688 5.453125 -8.890625 C 5.453125 -7.222656 5.945312 -5.878906 6.9375 -4.859375 C 7.925781 -3.835938 9.1875 -3.328125 10.71875 -3.328125 Z M 10.71875 -3.328125 "/></g></g></g><g fill="#737373" fill-opacity="1"><g transform="translate(48.667912, 32.785449)"><g><path d="M 20.375 -17.78125 L 20.375 -2.703125 C 20.375 3.554688 17.175781 6.6875 10.78125 6.6875 C 9.070312 6.6875 7.453125 6.46875 5.921875 6.03125 C 4.390625 5.601562 3.125 4.976562 2.125 4.15625 L 4 1.03125 C 4.769531 1.675781 5.75 2.191406 6.9375 2.578125 C 8.125 2.960938 9.332031 3.15625 10.5625 3.15625 C 12.507812 3.15625 13.9375 2.710938 14.84375 1.828125 C 15.757812 0.941406 16.21875 -0.410156 16.21875 -2.234375 L 16.21875 -3.15625 C 15.507812 -2.382812 14.644531 -1.796875 13.625 -1.390625 C 12.601562 -0.992188 11.476562 -0.796875 10.25 -0.796875 C 8.5625 -0.796875 7.035156 -1.15625 5.671875 -1.875 C 4.304688 -2.601562 3.226562 -3.617188 2.4375 -4.921875 C 1.65625 -6.234375 1.265625 -7.734375 1.265625 -9.421875 C 1.265625 -11.109375 1.65625 -12.597656 2.4375 -13.890625 C 3.226562 -15.191406 4.304688 -16.195312 5.671875 -16.90625 C 7.035156 -17.625 8.5625 -17.984375 10.25 -17.984375 C 11.539062 -17.984375 12.710938 -17.769531 13.765625 -17.34375 C 14.816406 -16.925781 15.703125 -16.285156 16.421875 -15.421875 L 16.421875 -17.78125 Z M 10.890625 -4.328125 C 12.460938 -4.328125 13.753906 -4.796875 14.765625 -5.734375 C 15.773438 -6.679688 16.28125 -7.910156 16.28125 -9.421875 C 16.28125 -10.910156 15.773438 -12.117188 14.765625 -13.046875 C 13.753906 -13.984375 12.460938 -14.453125 10.890625 -14.453125 C 9.285156 -14.453125 7.976562 -13.984375 6.96875 -13.046875 C 5.957031 -12.117188 5.453125 -10.910156 5.453125 -9.421875 C 5.453125 -7.910156 5.957031 -6.679688 6.96875 -5.734375 C 7.976562 -4.796875 9.285156 -4.328125 10.890625 -4.328125 Z M 10.890625 -4.328125 "/></g></g></g><g fill="#737373" fill-opacity="1"><g transform="translate(71.766364, 32.785449)"><g><path d="M 9.515625 -17.984375 C 12.140625 -17.984375 14.144531 -17.351562 15.53125 -16.09375 C 16.914062 -14.84375 17.609375 -12.953125 17.609375 -10.421875 L 17.609375 0 L 13.6875 0 L 13.6875 -2.171875 C 13.175781 -1.390625 12.445312 -0.789062 11.5 -0.375 C 10.5625 0.03125 9.425781 0.234375 8.09375 0.234375 C 6.757812 0.234375 5.59375 0.0078125 4.59375 -0.4375 C 3.59375 -0.894531 2.820312 -1.53125 2.28125 -2.34375 C 1.738281 -3.15625 1.46875 -4.070312 1.46875 -5.09375 C 1.46875 -6.6875 2.0625 -7.96875 3.25 -8.9375 C 4.4375 -9.90625 6.304688 -10.390625 8.859375 -10.390625 L 13.453125 -10.390625 L 13.453125 -10.65625 C 13.453125 -11.894531 13.078125 -12.847656 12.328125 -13.515625 C 11.585938 -14.179688 10.488281 -14.515625 9.03125 -14.515625 C 8.03125 -14.515625 7.046875 -14.359375 6.078125 -14.046875 C 5.109375 -13.734375 4.289062 -13.300781 3.625 -12.75 L 2 -15.78125 C 2.925781 -16.488281 4.046875 -17.03125 5.359375 -17.40625 C 6.671875 -17.789062 8.054688 -17.984375 9.515625 -17.984375 Z M 8.953125 -2.796875 C 9.992188 -2.796875 10.921875 -3.035156 11.734375 -3.515625 C 12.546875 -3.992188 13.117188 -4.675781 13.453125 -5.5625 L 13.453125 -7.625 L 9.15625 -7.625 C 6.757812 -7.625 5.5625 -6.835938 5.5625 -5.265625 C 5.5625 -4.503906 5.859375 -3.898438 6.453125 -3.453125 C 7.054688 -3.015625 7.890625 -2.796875 8.953125 -2.796875 Z M 8.953125 -2.796875 "/></g></g></g><g fill="#737373" fill-opacity="1"><g transform="translate(91.96918, 32.785449)"><g><path d="M 6.6875 -15.1875 C 7.882812 -17.050781 9.992188 -17.984375 13.015625 -17.984375 L 13.015625 -14.015625 C 12.660156 -14.085938 12.335938 -14.125 12.046875 -14.125 C 10.429688 -14.125 9.164062 -13.648438 8.25 -12.703125 C 7.34375 -11.753906 6.890625 -10.394531 6.890625 -8.625 L 6.890625 0 L 2.734375 0 L 2.734375 -17.78125 L 6.6875 -17.78125 Z M 6.6875 -15.1875 "/></g></g></g><g fill="#737373" fill-opacity="1"><g transform="translate(105.94807, 32.785449)"><g><path d="M 4.09375 -5.296875 C 4.875 -5.296875 5.519531 -5.039062 6.03125 -4.53125 C 6.539062 -4.019531 6.796875 -3.351562 6.796875 -2.53125 C 6.796875 -2.175781 6.742188 -1.800781 6.640625 -1.40625 C 6.546875 -1.019531 6.34375 -0.441406 6.03125 0.328125 L 4.328125 5.03125 L 1.625 5.03125 L 2.96875 -0.0625 C 2.476562 -0.257812 2.09375 -0.578125 1.8125 -1.015625 C 1.539062 -1.453125 1.40625 -1.957031 1.40625 -2.53125 C 1.40625 -3.351562 1.660156 -4.019531 2.171875 -4.53125 C 2.679688 -5.039062 3.320312 -5.296875 4.09375 -5.296875 Z M 4.09375 -5.296875 "/></g></g></g><g fill="#737373" fill-opacity="1"><g transform="translate(114.069144, 32.785449)"><g/></g></g><g fill="#737373" fill-opacity="1"><g transform="translate(123.255268, 32.785449)"><g><path d="M 12.59375 -17.984375 C 14.320312 -17.984375 15.867188 -17.601562 17.234375 -16.84375 C 18.597656 -16.09375 19.664062 -15.03125 20.4375 -13.65625 C 21.21875 -12.28125 21.609375 -10.691406 21.609375 -8.890625 C 21.609375 -7.085938 21.21875 -5.492188 20.4375 -4.109375 C 19.664062 -2.722656 18.597656 -1.648438 17.234375 -0.890625 C 15.867188 -0.140625 14.320312 0.234375 12.59375 0.234375 C 10.1875 0.234375 8.285156 -0.566406 6.890625 -2.171875 L 6.890625 6.453125 L 2.734375 6.453125 L 2.734375 -17.78125 L 6.6875 -17.78125 L 6.6875 -15.453125 C 7.375 -16.296875 8.222656 -16.925781 9.234375 -17.34375 C 10.242188 -17.769531 11.363281 -17.984375 12.59375 -17.984375 Z M 12.125 -3.328125 C 13.65625 -3.328125 14.910156 -3.835938 15.890625 -4.859375 C 16.878906 -5.878906 17.375 -7.222656 17.375 -8.890625 C 17.375 -10.554688 16.878906 -11.898438 15.890625 -12.921875 C 14.910156 -13.941406 13.65625 -14.453125 12.125 -14.453125 C 11.125 -14.453125 10.222656 -14.222656 9.421875 -13.765625 C 8.617188 -13.304688 7.984375 -12.65625 7.515625 -11.8125 C 7.054688 -10.976562 6.828125 -10.003906 6.828125 -8.890625 C 6.828125 -7.773438 7.054688 -6.796875 7.515625 -5.953125 C 7.984375 -5.109375 8.617188 -4.457031 9.421875 -4 C 10.222656 -3.550781 11.125 -3.328125 12.125 -3.328125 Z M 12.125 -3.328125 "/></g></g></g><g fill="#737373" fill-opacity="1"><g transform="translate(146.087452, 32.785449)"><g><path d="M 9.515625 -17.984375 C 12.140625 -17.984375 14.144531 -17.351562 15.53125 -16.09375 C 16.914062 -14.84375 17.609375 -12.953125 17.609375 -10.421875 L 17.609375 0 L 13.6875 0 L 13.6875 -2.171875 C 13.175781 -1.390625 12.445312 -0.789062 11.5 -0.375 C 10.5625 0.03125 9.425781 0.234375 8.09375 0.234375 C 6.757812 0.234375 5.59375 0.0078125 4.59375 -0.4375 C 3.59375 -0.894531 2.820312 -1.53125 2.28125 -2.34375 C 1.738281 -3.15625 1.46875 -4.070312 1.46875 -5.09375 C 1.46875 -6.6875 2.0625 -7.96875 3.25 -8.9375 C 4.4375 -9.90625 6.304688 -10.390625 8.859375 -10.390625 L 13.453125 -10.390625 L 13.453125 -10.65625 C 13.453125 -11.894531 13.078125 -12.847656 12.328125 -13.515625 C 11.585938 -14.179688 10.488281 -14.515625 9.03125 -14.515625 C 8.03125 -14.515625 7.046875 -14.359375 6.078125 -14.046875 C 5.109375 -13.734375 4.289062 -13.300781 3.625 -12.75 L 2 -15.78125 C 2.925781 -16.488281 4.046875 -17.03125 5.359375 -17.40625 C 6.671875 -17.789062 8.054688 -17.984375 9.515625 -17.984375 Z M 8.953125 -2.796875 C 9.992188 -2.796875 10.921875 -3.035156 11.734375 -3.515625 C 12.546875 -3.992188 13.117188 -4.675781 13.453125 -5.5625 L 13.453125 -7.625 L 9.15625 -7.625 C 6.757812 -7.625 5.5625 -6.835938 5.5625 -5.265625 C 5.5625 -4.503906 5.859375 -3.898438 6.453125 -3.453125 C 7.054688 -3.015625 7.890625 -2.796875 8.953125 -2.796875 Z M 8.953125 -2.796875 "/></g></g></g><g fill="#737373" fill-opacity="1"><g transform="translate(166.290268, 32.785449)"><g><path d="M 16.609375 -3.328125 L 16.609375 0 L 1.265625 0 L 1.265625 -2.625 L 11.015625 -14.453125 L 1.46875 -14.453125 L 1.46875 -17.78125 L 16.34375 -17.78125 L 16.34375 -15.15625 L 6.5625 -3.328125 Z M 16.609375 -3.328125 "/></g></g></g><g fill="#737373" fill-opacity="1"><g transform="translate(183.996858, 32.785449)"><g/></g></g><g fill="#737373" fill-opacity="1"><g transform="translate(193.182982, 32.785449)"><g><path d="M 19.375 -17.78125 L 11.046875 1.4375 C 10.273438 3.363281 9.332031 4.71875 8.21875 5.5 C 7.113281 6.289062 5.773438 6.6875 4.203125 6.6875 C 3.304688 6.6875 2.425781 6.539062 1.5625 6.25 C 0.695312 5.96875 -0.0078125 5.570312 -0.5625 5.0625 L 1.09375 2 C 1.5 2.375 1.972656 2.671875 2.515625 2.890625 C 3.054688 3.117188 3.601562 3.234375 4.15625 3.234375 C 4.894531 3.234375 5.5 3.039062 5.96875 2.65625 C 6.445312 2.28125 6.890625 1.648438 7.296875 0.765625 L 7.59375 0.0625 L -0.171875 -17.78125 L 4.15625 -17.78125 L 9.75 -4.625 L 15.390625 -17.78125 Z M 19.375 -17.78125 "/></g></g></g><g fill="#737373" fill-opacity="1"><g transform="translate(212.420592, 32.785449)"><g/></g></g><g fill="#737373" fill-opacity="1"><g transform="translate(221.606715, 32.785449)"><g><path d="M 6.6875 -15.1875 C 7.882812 -17.050781 9.992188 -17.984375 13.015625 -17.984375 L 13.015625 -14.015625 C 12.660156 -14.085938 12.335938 -14.125 12.046875 -14.125 C 10.429688 -14.125 9.164062 -13.648438 8.25 -12.703125 C 7.34375 -11.753906 6.890625 -10.394531 6.890625 -8.625 L 6.890625 0 L 2.734375 0 L 2.734375 -17.78125 L 6.6875 -17.78125 Z M 6.6875 -15.1875 "/></g></g></g><g fill="#737373" fill-opacity="1"><g transform="translate(235.585605, 32.785449)"><g><path d="M 9.515625 -17.984375 C 12.140625 -17.984375 14.144531 -17.351562 15.53125 -16.09375 C 16.914062 -14.84375 17.609375 -12.953125 17.609375 -10.421875 L 17.609375 0 L 13.6875 0 L 13.6875 -2.171875 C 13.175781 -1.390625 12.445312 -0.789062 11.5 -0.375 C 10.5625 0.03125 9.425781 0.234375 8.09375 0.234375 C 6.757812 0.234375 5.59375 0.0078125 4.59375 -0.4375 C 3.59375 -0.894531 2.820312 -1.53125 2.28125 -2.34375 C 1.738281 -3.15625 1.46875 -4.070312 1.46875 -5.09375 C 1.46875 -6.6875 2.0625 -7.96875 3.25 -8.9375 C 4.4375 -9.90625 6.304688 -10.390625 8.859375 -10.390625 L 13.453125 -10.390625 L 13.453125 -10.65625 C 13.453125 -11.894531 13.078125 -12.847656 12.328125 -13.515625 C 11.585938 -14.179688 10.488281 -14.515625 9.03125 -14.515625 C 8.03125 -14.515625 7.046875 -14.359375 6.078125 -14.046875 C 5.109375 -13.734375 4.289062 -13.300781 3.625 -12.75 L 2 -15.78125 C 2.925781 -16.488281 4.046875 -17.03125 5.359375 -17.40625 C 6.671875 -17.789062 8.054688 -17.984375 9.515625 -17.984375 Z M 8.953125 -2.796875 C 9.992188 -2.796875 10.921875 -3.035156 11.734375 -3.515625 C 12.546875 -3.992188 13.117188 -4.675781 13.453125 -5.5625 L 13.453125 -7.625 L 9.15625 -7.625 C 6.757812 -7.625 5.5625 -6.835938 5.5625 -5.265625 C 5.5625 -4.503906 5.859375 -3.898438 6.453125 -3.453125 C 7.054688 -3.015625 7.890625 -2.796875 8.953125 -2.796875 Z M 8.953125 -2.796875 "/></g></g></g><g fill="#737373" fill-opacity="1"><g transform="translate(255.788422, 32.785449)"><g><path d="M 2.734375 -17.78125 L 6.890625 -17.78125 L 6.890625 0 L 2.734375 0 Z M 6.515625 -24.765625 L 11.421875 -24.765625 L 5.625 -20.21875 L 2.03125 -20.21875 Z M 6.515625 -24.765625 "/></g></g></g><g fill="#737373" fill-opacity="1"><g transform="translate(265.407235, 32.785449)"><g><path d="M 10.890625 0.234375 C 9.046875 0.234375 7.390625 -0.148438 5.921875 -0.921875 C 4.460938 -1.703125 3.320312 -2.785156 2.5 -4.171875 C 1.675781 -5.566406 1.265625 -7.140625 1.265625 -8.890625 C 1.265625 -10.640625 1.675781 -12.203125 2.5 -13.578125 C 3.320312 -14.960938 4.457031 -16.039062 5.90625 -16.8125 C 7.363281 -17.59375 9.023438 -17.984375 10.890625 -17.984375 C 12.640625 -17.984375 14.175781 -17.625 15.5 -16.90625 C 16.820312 -16.195312 17.816406 -15.175781 18.484375 -13.84375 L 15.28125 -11.984375 C 14.769531 -12.804688 14.128906 -13.421875 13.359375 -13.828125 C 12.597656 -14.242188 11.765625 -14.453125 10.859375 -14.453125 C 9.304688 -14.453125 8.015625 -13.945312 6.984375 -12.9375 C 5.960938 -11.925781 5.453125 -10.578125 5.453125 -8.890625 C 5.453125 -7.203125 5.957031 -5.851562 6.96875 -4.84375 C 7.976562 -3.832031 9.273438 -3.328125 10.859375 -3.328125 C 11.765625 -3.328125 12.597656 -3.53125 13.359375 -3.9375 C 14.128906 -4.351562 14.769531 -4.972656 15.28125 -5.796875 L 18.484375 -3.921875 C 17.796875 -2.597656 16.789062 -1.570312 15.46875 -0.84375 C 14.144531 -0.125 12.617188 0.234375 10.890625 0.234375 Z M 10.890625 0.234375 "/></g></g></g><g fill="#737373" fill-opacity="1"><g transform="translate(284.744722, 32.785449)"><g><path d="M 19.453125 -8.796875 C 19.453125 -8.503906 19.425781 -8.09375 19.375 -7.5625 L 5.421875 -7.5625 C 5.671875 -6.25 6.3125 -5.207031 7.34375 -4.4375 C 8.375 -3.675781 9.65625 -3.296875 11.1875 -3.296875 C 13.144531 -3.296875 14.753906 -3.941406 16.015625 -5.234375 L 18.25 -2.65625 C 17.445312 -1.707031 16.4375 -0.988281 15.21875 -0.5 C 14 -0.0078125 12.625 0.234375 11.09375 0.234375 C 9.132812 0.234375 7.410156 -0.148438 5.921875 -0.921875 C 4.441406 -1.703125 3.296875 -2.785156 2.484375 -4.171875 C 1.671875 -5.566406 1.265625 -7.140625 1.265625 -8.890625 C 1.265625 -10.617188 1.65625 -12.175781 2.4375 -13.5625 C 3.226562 -14.957031 4.320312 -16.039062 5.71875 -16.8125 C 7.125 -17.59375 8.703125 -17.984375 10.453125 -17.984375 C 12.179688 -17.984375 13.726562 -17.597656 15.09375 -16.828125 C 16.457031 -16.066406 17.523438 -14.988281 18.296875 -13.59375 C 19.066406 -12.207031 19.453125 -10.609375 19.453125 -8.796875 Z M 10.453125 -14.65625 C 9.117188 -14.65625 7.988281 -14.257812 7.0625 -13.46875 C 6.144531 -12.675781 5.585938 -11.628906 5.390625 -10.328125 L 15.484375 -10.328125 C 15.304688 -11.609375 14.757812 -12.648438 13.84375 -13.453125 C 12.9375 -14.253906 11.804688 -14.65625 10.453125 -14.65625 Z M 10.453125 -14.65625 "/></g></g></g><g fill="#737373" fill-opacity="1"><g transform="translate(305.44679, 32.785449)"><g><path d="M 8.21875 0.234375 C 6.78125 0.234375 5.375 0.046875 4 -0.328125 C 2.625 -0.710938 1.523438 -1.191406 0.703125 -1.765625 L 2.296875 -4.921875 C 3.097656 -4.390625 4.054688 -3.960938 5.171875 -3.640625 C 6.296875 -3.316406 7.398438 -3.15625 8.484375 -3.15625 C 10.972656 -3.15625 12.21875 -3.8125 12.21875 -5.125 C 12.21875 -5.75 11.898438 -6.179688 11.265625 -6.421875 C 10.640625 -6.671875 9.625 -6.90625 8.21875 -7.125 C 6.757812 -7.34375 5.566406 -7.597656 4.640625 -7.890625 C 3.722656 -8.179688 2.925781 -8.6875 2.25 -9.40625 C 1.570312 -10.125 1.234375 -11.128906 1.234375 -12.421875 C 1.234375 -14.109375 1.9375 -15.457031 3.34375 -16.46875 C 4.75 -17.476562 6.65625 -17.984375 9.0625 -17.984375 C 10.28125 -17.984375 11.5 -17.84375 12.71875 -17.5625 C 13.9375 -17.28125 14.9375 -16.910156 15.71875 -16.453125 L 14.125 -13.28125 C 12.613281 -14.175781 10.914062 -14.625 9.03125 -14.625 C 7.800781 -14.625 6.867188 -14.4375 6.234375 -14.0625 C 5.609375 -13.695312 5.296875 -13.21875 5.296875 -12.625 C 5.296875 -11.957031 5.632812 -11.484375 6.3125 -11.203125 C 6.988281 -10.921875 8.035156 -10.660156 9.453125 -10.421875 C 10.878906 -10.203125 12.046875 -9.945312 12.953125 -9.65625 C 13.859375 -9.363281 14.640625 -8.875 15.296875 -8.1875 C 15.953125 -7.5 16.28125 -6.523438 16.28125 -5.265625 C 16.28125 -3.597656 15.554688 -2.265625 14.109375 -1.265625 C 12.671875 -0.265625 10.707031 0.234375 8.21875 0.234375 Z M 8.21875 0.234375 "/></g></g></g><g fill="#737373" fill-opacity="1"><g transform="translate(322.587532, 32.785449)"><g/></g></g><g fill="#737373" fill-opacity="1"><g transform="translate(331.773689, 32.785449)"><g><path d="M 19.453125 -8.796875 C 19.453125 -8.503906 19.425781 -8.09375 19.375 -7.5625 L 5.421875 -7.5625 C 5.671875 -6.25 6.3125 -5.207031 7.34375 -4.4375 C 8.375 -3.675781 9.65625 -3.296875 11.1875 -3.296875 C 13.144531 -3.296875 14.753906 -3.941406 16.015625 -5.234375 L 18.25 -2.65625 C 17.445312 -1.707031 16.4375 -0.988281 15.21875 -0.5 C 14 -0.0078125 12.625 0.234375 11.09375 0.234375 C 9.132812 0.234375 7.410156 -0.148438 5.921875 -0.921875 C 4.441406 -1.703125 3.296875 -2.785156 2.484375 -4.171875 C 1.671875 -5.566406 1.265625 -7.140625 1.265625 -8.890625 C 1.265625 -10.617188 1.65625 -12.175781 2.4375 -13.5625 C 3.226562 -14.957031 4.320312 -16.039062 5.71875 -16.8125 C 7.125 -17.59375 8.703125 -17.984375 10.453125 -17.984375 C 12.179688 -17.984375 13.726562 -17.597656 15.09375 -16.828125 C 16.457031 -16.066406 17.523438 -14.988281 18.296875 -13.59375 C 19.066406 -12.207031 19.453125 -10.609375 19.453125 -8.796875 Z M 10.453125 -14.65625 C 9.117188 -14.65625 7.988281 -14.257812 7.0625 -13.46875 C 6.144531 -12.675781 5.585938 -11.628906 5.390625 -10.328125 L 15.484375 -10.328125 C 15.304688 -11.609375 14.757812 -12.648438 13.84375 -13.453125 C 12.9375 -14.253906 11.804688 -14.65625 10.453125 -14.65625 Z M 10.453125 -14.65625 "/></g></g></g><g fill="#737373" fill-opacity="1"><g transform="translate(352.475757, 32.785449)"><g><path d="M 12.8125 -17.984375 C 15.0625 -17.984375 16.863281 -17.328125 18.21875 -16.015625 C 19.570312 -14.703125 20.25 -12.757812 20.25 -10.1875 L 20.25 0 L 16.078125 0 L 16.078125 -9.65625 C 16.078125 -11.207031 15.710938 -12.375 14.984375 -13.15625 C 14.253906 -13.945312 13.210938 -14.34375 11.859375 -14.34375 C 10.328125 -14.34375 9.113281 -13.882812 8.21875 -12.96875 C 7.332031 -12.050781 6.890625 -10.722656 6.890625 -8.984375 L 6.890625 0 L 2.734375 0 L 2.734375 -17.78125 L 6.6875 -17.78125 L 6.6875 -15.484375 C 7.375 -16.304688 8.238281 -16.925781 9.28125 -17.34375 C 10.332031 -17.769531 11.507812 -17.984375 12.8125 -17.984375 Z M 12.8125 -17.984375 "/></g></g></g><g fill="#737373" fill-opacity="1"><g transform="translate(375.274644, 32.785449)"><g/></g></g><g fill="#737373" fill-opacity="1"><g transform="translate(384.460768, 32.785449)"><g><path d="M 12.71875 -23.3125 C 14.738281 -23.3125 16.5 -22.976562 18 -22.3125 C 19.5 -21.644531 20.644531 -20.6875 21.4375 -19.4375 C 22.238281 -18.195312 22.640625 -16.722656 22.640625 -15.015625 C 22.640625 -13.328125 22.238281 -11.851562 21.4375 -10.59375 C 20.644531 -9.34375 19.5 -8.382812 18 -7.71875 C 16.5 -7.050781 14.738281 -6.71875 12.71875 -6.71875 L 7.453125 -6.71875 L 7.453125 0 L 3.125 0 L 3.125 -23.3125 Z M 12.515625 -10.390625 C 14.398438 -10.390625 15.832031 -10.785156 16.8125 -11.578125 C 17.789062 -12.378906 18.28125 -13.523438 18.28125 -15.015625 C 18.28125 -16.503906 17.789062 -17.644531 16.8125 -18.4375 C 15.832031 -19.238281 14.398438 -19.640625 12.515625 -19.640625 L 7.453125 -19.640625 L 7.453125 -10.390625 Z M 12.515625 -10.390625 "/></g></g></g><g fill="#737373" fill-opacity="1"><g transform="translate(408.624253, 32.785449)"><g><path d="M 9.515625 -17.984375 C 12.140625 -17.984375 14.144531 -17.351562 15.53125 -16.09375 C 16.914062 -14.84375 17.609375 -12.953125 17.609375 -10.421875 L 17.609375 0 L 13.6875 0 L 13.6875 -2.171875 C 13.175781 -1.390625 12.445312 -0.789062 11.5 -0.375 C 10.5625 0.03125 9.425781 0.234375 8.09375 0.234375 C 6.757812 0.234375 5.59375 0.0078125 4.59375 -0.4375 C 3.59375 -0.894531 2.820312 -1.53125 2.28125 -2.34375 C 1.738281 -3.15625 1.46875 -4.070312 1.46875 -5.09375 C 1.46875 -6.6875 2.0625 -7.96875 3.25 -8.9375 C 4.4375 -9.90625 6.304688 -10.390625 8.859375 -10.390625 L 13.453125 -10.390625 L 13.453125 -10.65625 C 13.453125 -11.894531 13.078125 -12.847656 12.328125 -13.515625 C 11.585938 -14.179688 10.488281 -14.515625 9.03125 -14.515625 C 8.03125 -14.515625 7.046875 -14.359375 6.078125 -14.046875 C 5.109375 -13.734375 4.289062 -13.300781 3.625 -12.75 L 2 -15.78125 C 2.925781 -16.488281 4.046875 -17.03125 5.359375 -17.40625 C 6.671875 -17.789062 8.054688 -17.984375 9.515625 -17.984375 Z M 8.953125 -2.796875 C 9.992188 -2.796875 10.921875 -3.035156 11.734375 -3.515625 C 12.546875 -3.992188 13.117188 -4.675781 13.453125 -5.5625 L 13.453125 -7.625 L 9.15625 -7.625 C 6.757812 -7.625 5.5625 -6.835938 5.5625 -5.265625 C 5.5625 -4.503906 5.859375 -3.898438 6.453125 -3.453125 C 7.054688 -3.015625 7.890625 -2.796875 8.953125 -2.796875 Z M 8.953125 -2.796875 "/></g></g></g><g fill="#737373" fill-opacity="1"><g transform="translate(428.827069, 32.785449)"><g><path d="M 19.375 -17.78125 L 11.046875 1.4375 C 10.273438 3.363281 9.332031 4.71875 8.21875 5.5 C 7.113281 6.289062 5.773438 6.6875 4.203125 6.6875 C 3.304688 6.6875 2.425781 6.539062 1.5625 6.25 C 0.695312 5.96875 -0.0078125 5.570312 -0.5625 5.0625 L 1.09375 2 C 1.5 2.375 1.972656 2.671875 2.515625 2.890625 C 3.054688 3.117188 3.601562 3.234375 4.15625 3.234375 C 4.894531 3.234375 5.5 3.039062 5.96875 2.65625 C 6.445312 2.28125 6.890625 1.648438 7.296875 0.765625 L 7.59375 0.0625 L -0.171875 -17.78125 L 4.15625 -17.78125 L 9.75 -4.625 L 15.390625 -17.78125 Z M 19.375 -17.78125 "/></g></g></g><g fill="#737373" fill-opacity="1"><g transform="translate(448.064696, 32.785449)"><g><path d="M 8.21875 0.234375 C 6.78125 0.234375 5.375 0.046875 4 -0.328125 C 2.625 -0.710938 1.523438 -1.191406 0.703125 -1.765625 L 2.296875 -4.921875 C 3.097656 -4.390625 4.054688 -3.960938 5.171875 -3.640625 C 6.296875 -3.316406 7.398438 -3.15625 8.484375 -3.15625 C 10.972656 -3.15625 12.21875 -3.8125 12.21875 -5.125 C 12.21875 -5.75 11.898438 -6.179688 11.265625 -6.421875 C 10.640625 -6.671875 9.625 -6.90625 8.21875 -7.125 C 6.757812 -7.34375 5.566406 -7.597656 4.640625 -7.890625 C 3.722656 -8.179688 2.925781 -8.6875 2.25 -9.40625 C 1.570312 -10.125 1.234375 -11.128906 1.234375 -12.421875 C 1.234375 -14.109375 1.9375 -15.457031 3.34375 -16.46875 C 4.75 -17.476562 6.65625 -17.984375 9.0625 -17.984375 C 10.28125 -17.984375 11.5 -17.84375 12.71875 -17.5625 C 13.9375 -17.28125 14.9375 -16.910156 15.71875 -16.453125 L 14.125 -13.28125 C 12.613281 -14.175781 10.914062 -14.625 9.03125 -14.625 C 7.800781 -14.625 6.867188 -14.4375 6.234375 -14.0625 C 5.609375 -13.695312 5.296875 -13.21875 5.296875 -12.625 C 5.296875 -11.957031 5.632812 -11.484375 6.3125 -11.203125 C 6.988281 -10.921875 8.035156 -10.660156 9.453125 -10.421875 C 10.878906 -10.203125 12.046875 -9.945312 12.953125 -9.65625 C 13.859375 -9.363281 14.640625 -8.875 15.296875 -8.1875 C 15.953125 -7.5 16.28125 -6.523438 16.28125 -5.265625 C 16.28125 -3.597656 15.554688 -2.265625 14.109375 -1.265625 C 12.671875 -0.265625 10.707031 0.234375 8.21875 0.234375 Z M 8.21875 0.234375 "/></g></g></g><g fill="#737373" fill-opacity="1"><g transform="translate(465.205471, 32.785449)"><g><path d="M 9.515625 -17.984375 C 12.140625 -17.984375 14.144531 -17.351562 15.53125 -16.09375 C 16.914062 -14.84375 17.609375 -12.953125 17.609375 -10.421875 L 17.609375 0 L 13.6875 0 L 13.6875 -2.171875 C 13.175781 -1.390625 12.445312 -0.789062 11.5 -0.375 C 10.5625 0.03125 9.425781 0.234375 8.09375 0.234375 C 6.757812 0.234375 5.59375 0.0078125 4.59375 -0.4375 C 3.59375 -0.894531 2.820312 -1.53125 2.28125 -2.34375 C 1.738281 -3.15625 1.46875 -4.070312 1.46875 -5.09375 C 1.46875 -6.6875 2.0625 -7.96875 3.25 -8.9375 C 4.4375 -9.90625 6.304688 -10.390625 8.859375 -10.390625 L 13.453125 -10.390625 L 13.453125 -10.65625 C 13.453125 -11.894531 13.078125 -12.847656 12.328125 -13.515625 C 11.585938 -14.179688 10.488281 -14.515625 9.03125 -14.515625 C 8.03125 -14.515625 7.046875 -14.359375 6.078125 -14.046875 C 5.109375 -13.734375 4.289062 -13.300781 3.625 -12.75 L 2 -15.78125 C 2.925781 -16.488281 4.046875 -17.03125 5.359375 -17.40625 C 6.671875 -17.789062 8.054688 -17.984375 9.515625 -17.984375 Z M 8.953125 -2.796875 C 9.992188 -2.796875 10.921875 -3.035156 11.734375 -3.515625 C 12.546875 -3.992188 13.117188 -4.675781 13.453125 -5.5625 L 13.453125 -7.625 L 9.15625 -7.625 C 6.757812 -7.625 5.5625 -6.835938 5.5625 -5.265625 C 5.5625 -4.503906 5.859375 -3.898438 6.453125 -3.453125 C 7.054688 -3.015625 7.890625 -2.796875 8.953125 -2.796875 Z M 8.953125 -2.796875 "/></g></g></g><g fill="#737373" fill-opacity="1"><g transform="translate(485.408288, 32.785449)"><g><path d="M 12.8125 -17.984375 C 15.0625 -17.984375 16.863281 -17.328125 18.21875 -16.015625 C 19.570312 -14.703125 20.25 -12.757812 20.25 -10.1875 L 20.25 0 L 16.078125 0 L 16.078125 -9.65625 C 16.078125 -11.207031 15.710938 -12.375 14.984375 -13.15625 C 14.253906 -13.945312 13.210938 -14.34375 11.859375 -14.34375 C 10.328125 -14.34375 9.113281 -13.882812 8.21875 -12.96875 C 7.332031 -12.050781 6.890625 -10.722656 6.890625 -8.984375 L 6.890625 0 L 2.734375 0 L 2.734375 -17.78125 L 6.6875 -17.78125 L 6.6875 -15.484375 C 7.375 -16.304688 8.238281 -16.925781 9.28125 -17.34375 C 10.332031 -17.769531 11.507812 -17.984375 12.8125 -17.984375 Z M 12.8125 -17.984375 "/></g></g></g><g fill="#737373" fill-opacity="1"><g transform="translate(508.207207, 32.785449)"><g><path d="M 20.140625 -24.703125 L 20.140625 0 L 16.15625 0 L 16.15625 -2.296875 C 15.457031 -1.453125 14.601562 -0.816406 13.59375 -0.390625 C 12.59375 0.0234375 11.476562 0.234375 10.25 0.234375 C 8.539062 0.234375 7.003906 -0.140625 5.640625 -0.890625 C 4.273438 -1.648438 3.203125 -2.722656 2.421875 -4.109375 C 1.648438 -5.492188 1.265625 -7.085938 1.265625 -8.890625 C 1.265625 -10.691406 1.648438 -12.28125 2.421875 -13.65625 C 3.203125 -15.03125 4.273438 -16.09375 5.640625 -16.84375 C 7.003906 -17.601562 8.539062 -17.984375 10.25 -17.984375 C 11.425781 -17.984375 12.503906 -17.78125 13.484375 -17.375 C 14.460938 -16.976562 15.296875 -16.378906 15.984375 -15.578125 L 15.984375 -24.703125 Z M 10.75 -3.328125 C 11.75 -3.328125 12.648438 -3.550781 13.453125 -4 C 14.253906 -4.457031 14.882812 -5.109375 15.34375 -5.953125 C 15.8125 -6.796875 16.046875 -7.773438 16.046875 -8.890625 C 16.046875 -10.003906 15.8125 -10.976562 15.34375 -11.8125 C 14.882812 -12.65625 14.253906 -13.304688 13.453125 -13.765625 C 12.648438 -14.222656 11.75 -14.453125 10.75 -14.453125 C 9.75 -14.453125 8.847656 -14.222656 8.046875 -13.765625 C 7.253906 -13.304688 6.625 -12.65625 6.15625 -11.8125 C 5.6875 -10.976562 5.453125 -10.003906 5.453125 -8.890625 C 5.453125 -7.773438 5.6875 -6.796875 6.15625 -5.953125 C 6.625 -5.109375 7.253906 -4.457031 8.046875 -4 C 8.847656 -3.550781 9.75 -3.328125 10.75 -3.328125 Z M 10.75 -3.328125 "/></g></g></g><g fill="#737373" fill-opacity="1"><g transform="translate(531.072656, 32.785449)"><g><path d="M 19.9375 -17.78125 L 19.9375 0 L 15.984375 0 L 15.984375 -2.265625 C 15.316406 -1.460938 14.484375 -0.84375 13.484375 -0.40625 C 12.484375 0.0195312 11.40625 0.234375 10.25 0.234375 C 7.875 0.234375 6.003906 -0.425781 4.640625 -1.75 C 3.273438 -3.070312 2.59375 -5.03125 2.59375 -7.625 L 2.59375 -17.78125 L 6.765625 -17.78125 L 6.765625 -8.1875 C 6.765625 -6.59375 7.125 -5.398438 7.84375 -4.609375 C 8.5625 -3.816406 9.585938 -3.421875 10.921875 -3.421875 C 12.410156 -3.421875 13.59375 -3.878906 14.46875 -4.796875 C 15.34375 -5.722656 15.78125 -7.054688 15.78125 -8.796875 L 15.78125 -17.78125 Z M 12.953125 -24.765625 L 17.859375 -24.765625 L 12.0625 -20.21875 L 8.46875 -20.21875 Z M 12.953125 -24.765625 "/></g></g></g></g></g>
  </g>
</svg>
