<svg xmlns="http://www.w3.org/2000/svg" xmlns:xlink="http://www.w3.org/1999/xlink" width="512" zoomAndPan="magnify" viewBox="0 0 384 383.999986" height="512" preserveAspectRatio="xMidYMid meet" version="1.0"><defs><g/><clipPath id="1580ff151d"><rect x="0" width="268" y="0" height="39"/></clipPath><clipPath id="21e2e6ad20"><rect x="0" width="221" y="0" height="18"/></clipPath></defs><g transform="matrix(1, 0, 0, 1, 58, 245)"><g clip-path="url(#1580ff151d)"><g fill="#2c718d" fill-opacity="1"><g transform="translate(0.509689, 29.94225)"><g><path d="M 2.5625 -21.609375 L 7.5625 -21.609375 L 7.5625 -4.078125 L 18.40625 -4.078125 L 18.40625 0 L 2.5625 0 Z M 2.5625 -21.609375 "/></g></g></g><g fill="#2c718d" fill-opacity="1"><g transform="translate(19.157264, 29.94225)"><g><path d="M 2.5625 -21.609375 L 7.5625 -21.609375 L 7.5625 0 L 2.5625 0 Z M 2.5625 -21.609375 "/></g></g></g><g fill="#2c718d" fill-opacity="1"><g transform="translate(29.28376, 29.94225)"><g><path d="M 7.046875 -17.53125 L 0.125 -17.53125 L 0.125 -21.609375 L 18.953125 -21.609375 L 18.953125 -17.53125 L 12.046875 -17.53125 L 12.046875 0 L 7.046875 0 Z M 7.046875 -17.53125 "/></g></g></g><g fill="#2c718d" fill-opacity="1"><g transform="translate(48.363564, 29.94225)"><g><path d="M 13.03125 0.375 C 10.78125 0.375 8.753906 -0.109375 6.953125 -1.078125 C 5.160156 -2.046875 3.753906 -3.378906 2.734375 -5.078125 C 1.710938 -6.773438 1.203125 -8.6875 1.203125 -10.8125 C 1.203125 -12.925781 1.710938 -14.832031 2.734375 -16.53125 C 3.753906 -18.226562 5.160156 -19.5625 6.953125 -20.53125 C 8.753906 -21.5 10.78125 -21.984375 13.03125 -21.984375 C 15.269531 -21.984375 17.285156 -21.5 19.078125 -20.53125 C 20.867188 -19.5625 22.28125 -18.226562 23.3125 -16.53125 C 24.34375 -14.832031 24.859375 -12.925781 24.859375 -10.8125 C 24.859375 -8.6875 24.34375 -6.773438 23.3125 -5.078125 C 22.28125 -3.378906 20.867188 -2.046875 19.078125 -1.078125 C 17.285156 -0.109375 15.269531 0.375 13.03125 0.375 Z M 13.03125 -3.890625 C 14.300781 -3.890625 15.453125 -4.179688 16.484375 -4.765625 C 17.515625 -5.359375 18.320312 -6.175781 18.90625 -7.21875 C 19.5 -8.269531 19.796875 -9.46875 19.796875 -10.8125 C 19.796875 -12.144531 19.5 -13.335938 18.90625 -14.390625 C 18.320312 -15.441406 17.515625 -16.257812 16.484375 -16.84375 C 15.453125 -17.425781 14.300781 -17.71875 13.03125 -17.71875 C 11.75 -17.71875 10.59375 -17.425781 9.5625 -16.84375 C 8.539062 -16.257812 7.734375 -15.441406 7.140625 -14.390625 C 6.554688 -13.335938 6.265625 -12.144531 6.265625 -10.8125 C 6.265625 -9.46875 6.554688 -8.269531 7.140625 -7.21875 C 7.734375 -6.175781 8.539062 -5.359375 9.5625 -4.765625 C 10.59375 -4.179688 11.75 -3.890625 13.03125 -3.890625 Z M 13.03125 -3.890625 "/></g></g></g><g fill="#2c718d" fill-opacity="1"><g transform="translate(74.420767, 29.94225)"><g><path d="M 16.328125 0 L 12.171875 -6.015625 L 7.5625 -6.015625 L 7.5625 0 L 2.5625 0 L 2.5625 -21.609375 L 11.921875 -21.609375 C 13.835938 -21.609375 15.5 -21.289062 16.90625 -20.65625 C 18.3125 -20.019531 19.394531 -19.113281 20.15625 -17.9375 C 20.914062 -16.757812 21.296875 -15.367188 21.296875 -13.765625 C 21.296875 -12.160156 20.910156 -10.773438 20.140625 -9.609375 C 19.367188 -8.453125 18.273438 -7.566406 16.859375 -6.953125 L 21.703125 0 Z M 16.234375 -13.765625 C 16.234375 -14.984375 15.84375 -15.914062 15.0625 -16.5625 C 14.28125 -17.207031 13.140625 -17.53125 11.640625 -17.53125 L 7.5625 -17.53125 L 7.5625 -10 L 11.640625 -10 C 13.140625 -10 14.28125 -10.328125 15.0625 -10.984375 C 15.84375 -11.648438 16.234375 -12.578125 16.234375 -13.765625 Z M 16.234375 -13.765625 "/></g></g></g><g fill="#2c718d" fill-opacity="1"><g transform="translate(97.112768, 29.94225)"><g><path d="M 16.796875 -4.625 L 6.765625 -4.625 L 4.84375 0 L -0.28125 0 L 9.359375 -21.609375 L 14.296875 -21.609375 L 23.953125 0 L 18.703125 0 Z M 15.21875 -8.421875 L 11.796875 -16.703125 L 8.359375 -8.421875 Z M 15.21875 -8.421875 "/></g></g></g><g fill="#2c718d" fill-opacity="1"><g transform="translate(120.761841, 29.94225)"><g><path d="M 2.5625 -21.609375 L 7.5625 -21.609375 L 7.5625 -4.078125 L 18.40625 -4.078125 L 18.40625 0 L 2.5625 0 Z M 2.5625 -21.609375 "/></g></g></g><g fill="#2c718d" fill-opacity="1"><g transform="translate(139.409416, 29.94225)"><g/></g></g><g fill="#2c718d" fill-opacity="1"><g transform="translate(148.151341, 29.94225)"><g><path d="M 21.578125 -21.609375 L 21.578125 0 L 19.328125 0 L 19.328125 -9.96875 L 5.796875 -9.96875 L 5.796875 0 L 3.515625 0 L 3.515625 -21.609375 L 5.796875 -21.609375 L 5.796875 -11.984375 L 19.328125 -11.984375 L 19.328125 -21.609375 Z M 21.578125 -21.609375 "/></g></g></g><g fill="#2c718d" fill-opacity="1"><g transform="translate(173.251472, 29.94225)"><g><path d="M 12.96875 0.1875 C 10.820312 0.1875 8.878906 -0.289062 7.140625 -1.25 C 5.398438 -2.207031 4.039062 -3.519531 3.0625 -5.1875 C 2.09375 -6.851562 1.609375 -8.726562 1.609375 -10.8125 C 1.609375 -12.882812 2.09375 -14.753906 3.0625 -16.421875 C 4.039062 -18.085938 5.398438 -19.398438 7.140625 -20.359375 C 8.878906 -21.316406 10.820312 -21.796875 12.96875 -21.796875 C 15.101562 -21.796875 17.03125 -21.320312 18.75 -20.375 C 20.46875 -19.425781 21.820312 -18.113281 22.8125 -16.4375 C 23.800781 -14.757812 24.296875 -12.882812 24.296875 -10.8125 C 24.296875 -8.726562 23.800781 -6.847656 22.8125 -5.171875 C 21.820312 -3.492188 20.46875 -2.179688 18.75 -1.234375 C 17.03125 -0.285156 15.101562 0.1875 12.96875 0.1875 Z M 12.96875 -1.859375 C 14.675781 -1.859375 16.21875 -2.242188 17.59375 -3.015625 C 18.976562 -3.785156 20.0625 -4.851562 20.84375 -6.21875 C 21.625 -7.59375 22.015625 -9.125 22.015625 -10.8125 C 22.015625 -12.5 21.625 -14.023438 20.84375 -15.390625 C 20.0625 -16.753906 18.976562 -17.820312 17.59375 -18.59375 C 16.21875 -19.375 14.675781 -19.765625 12.96875 -19.765625 C 11.257812 -19.765625 9.707031 -19.375 8.3125 -18.59375 C 6.925781 -17.820312 5.835938 -16.753906 5.046875 -15.390625 C 4.253906 -14.023438 3.859375 -12.5 3.859375 -10.8125 C 3.859375 -9.125 4.253906 -7.59375 5.046875 -6.21875 C 5.835938 -4.851562 6.925781 -3.785156 8.3125 -3.015625 C 9.707031 -2.242188 11.257812 -1.859375 12.96875 -1.859375 Z M 12.96875 -1.859375 "/></g></g></g><g fill="#2c718d" fill-opacity="1"><g transform="translate(199.154311, 29.94225)"><g><path d="M 18.734375 -10.8125 L 20.9375 -10.8125 L 20.9375 -2.5625 C 19.925781 -1.675781 18.726562 -0.992188 17.34375 -0.515625 C 15.96875 -0.046875 14.519531 0.1875 13 0.1875 C 10.832031 0.1875 8.882812 -0.285156 7.15625 -1.234375 C 5.425781 -2.179688 4.066406 -3.492188 3.078125 -5.171875 C 2.097656 -6.847656 1.609375 -8.726562 1.609375 -10.8125 C 1.609375 -12.882812 2.097656 -14.757812 3.078125 -16.4375 C 4.066406 -18.113281 5.425781 -19.425781 7.15625 -20.375 C 8.882812 -21.320312 10.84375 -21.796875 13.03125 -21.796875 C 14.675781 -21.796875 16.1875 -21.53125 17.5625 -21 C 18.945312 -20.476562 20.113281 -19.703125 21.0625 -18.671875 L 19.640625 -17.234375 C 17.929688 -18.921875 15.757812 -19.765625 13.125 -19.765625 C 11.375 -19.765625 9.789062 -19.375 8.375 -18.59375 C 6.96875 -17.820312 5.863281 -16.753906 5.0625 -15.390625 C 4.257812 -14.023438 3.859375 -12.5 3.859375 -10.8125 C 3.859375 -9.125 4.257812 -7.597656 5.0625 -6.234375 C 5.863281 -4.878906 6.960938 -3.8125 8.359375 -3.03125 C 9.765625 -2.25 11.34375 -1.859375 13.09375 -1.859375 C 15.3125 -1.859375 17.191406 -2.410156 18.734375 -3.515625 Z M 18.734375 -10.8125 "/></g></g></g><g fill="#2c718d" fill-opacity="1"><g transform="translate(223.019499, 29.94225)"><g><path d="M 17.078125 -5.78125 L 5.03125 -5.78125 L 2.4375 0 L 0.0625 0 L 9.9375 -21.609375 L 12.203125 -21.609375 L 22.078125 0 L 19.671875 0 Z M 16.234375 -7.625 L 11.046875 -19.234375 L 5.859375 -7.625 Z M 16.234375 -7.625 "/></g></g></g><g fill="#2c718d" fill-opacity="1"><g transform="translate(245.155777, 29.94225)"><g><path d="M 18.28125 0 L 13.34375 -6.953125 C 12.78125 -6.890625 12.203125 -6.859375 11.609375 -6.859375 L 5.796875 -6.859375 L 5.796875 0 L 3.515625 0 L 3.515625 -21.609375 L 11.609375 -21.609375 C 14.367188 -21.609375 16.53125 -20.945312 18.09375 -19.625 C 19.65625 -18.3125 20.4375 -16.503906 20.4375 -14.203125 C 20.4375 -12.515625 20.007812 -11.085938 19.15625 -9.921875 C 18.300781 -8.765625 17.082031 -7.925781 15.5 -7.40625 L 20.78125 0 Z M 11.546875 -8.796875 C 13.691406 -8.796875 15.328125 -9.269531 16.453125 -10.21875 C 17.585938 -11.164062 18.15625 -12.492188 18.15625 -14.203125 C 18.15625 -15.953125 17.585938 -17.296875 16.453125 -18.234375 C 15.328125 -19.171875 13.691406 -19.640625 11.546875 -19.640625 L 5.796875 -19.640625 L 5.796875 -8.796875 Z M 11.546875 -8.796875 "/></g></g></g></g></g><g transform="matrix(1, 0, 0, 1, 82, 280)"><g clip-path="url(#21e2e6ad20)"><g fill="#737373" fill-opacity="1"><g transform="translate(0.327474, 13.498119)"><g><path d="M 9.4375 -9.234375 L 9.4375 0 L 7.734375 0 L 7.734375 -3.953125 L 2.953125 -3.953125 L 2.953125 0 L 1.234375 0 L 1.234375 -9.234375 L 2.953125 -9.234375 L 2.953125 -5.421875 L 7.734375 -5.421875 L 7.734375 -9.234375 Z M 9.4375 -9.234375 "/></g></g></g><g fill="#737373" fill-opacity="1"><g transform="translate(11.010754, 13.498119)"><g><path d="M 4.25 0.09375 C 3.53125 0.09375 2.882812 -0.0546875 2.3125 -0.359375 C 1.75 -0.671875 1.304688 -1.101562 0.984375 -1.65625 C 0.660156 -2.207031 0.5 -2.828125 0.5 -3.515625 C 0.5 -4.210938 0.660156 -4.832031 0.984375 -5.375 C 1.304688 -5.925781 1.75 -6.351562 2.3125 -6.65625 C 2.882812 -6.96875 3.53125 -7.125 4.25 -7.125 C 4.96875 -7.125 5.613281 -6.96875 6.1875 -6.65625 C 6.757812 -6.351562 7.203125 -5.925781 7.515625 -5.375 C 7.835938 -4.832031 8 -4.210938 8 -3.515625 C 8 -2.828125 7.835938 -2.207031 7.515625 -1.65625 C 7.203125 -1.101562 6.757812 -0.671875 6.1875 -0.359375 C 5.613281 -0.0546875 4.96875 0.09375 4.25 0.09375 Z M 4.25 -1.3125 C 4.851562 -1.3125 5.351562 -1.515625 5.75 -1.921875 C 6.144531 -2.328125 6.34375 -2.859375 6.34375 -3.515625 C 6.34375 -4.179688 6.144531 -4.710938 5.75 -5.109375 C 5.351562 -5.515625 4.851562 -5.71875 4.25 -5.71875 C 3.644531 -5.71875 3.144531 -5.515625 2.75 -5.109375 C 2.351562 -4.710938 2.15625 -4.179688 2.15625 -3.515625 C 2.15625 -2.859375 2.351562 -2.328125 2.75 -1.921875 C 3.144531 -1.515625 3.644531 -1.3125 4.25 -1.3125 Z M 4.25 -1.3125 "/></g></g></g><g fill="#737373" fill-opacity="1"><g transform="translate(19.517812, 13.498119)"><g><path d="M 8.078125 -7.046875 L 8.078125 -1.0625 C 8.078125 1.414062 6.804688 2.65625 4.265625 2.65625 C 3.585938 2.65625 2.945312 2.566406 2.34375 2.390625 C 1.738281 2.222656 1.238281 1.972656 0.84375 1.640625 L 1.578125 0.40625 C 1.890625 0.664062 2.28125 0.867188 2.75 1.015625 C 3.21875 1.171875 3.695312 1.25 4.1875 1.25 C 4.957031 1.25 5.519531 1.070312 5.875 0.71875 C 6.238281 0.375 6.421875 -0.160156 6.421875 -0.890625 L 6.421875 -1.25 C 6.140625 -0.945312 5.796875 -0.710938 5.390625 -0.546875 C 4.984375 -0.390625 4.539062 -0.3125 4.0625 -0.3125 C 3.394531 -0.3125 2.789062 -0.453125 2.25 -0.734375 C 1.707031 -1.023438 1.28125 -1.429688 0.96875 -1.953125 C 0.65625 -2.472656 0.5 -3.066406 0.5 -3.734375 C 0.5 -4.398438 0.65625 -4.988281 0.96875 -5.5 C 1.28125 -6.019531 1.707031 -6.421875 2.25 -6.703125 C 2.789062 -6.984375 3.394531 -7.125 4.0625 -7.125 C 4.570312 -7.125 5.035156 -7.039062 5.453125 -6.875 C 5.867188 -6.707031 6.21875 -6.453125 6.5 -6.109375 L 6.5 -7.046875 Z M 4.3125 -1.71875 C 4.9375 -1.71875 5.445312 -1.898438 5.84375 -2.265625 C 6.25 -2.640625 6.453125 -3.128906 6.453125 -3.734375 C 6.453125 -4.316406 6.25 -4.789062 5.84375 -5.15625 C 5.445312 -5.53125 4.9375 -5.71875 4.3125 -5.71875 C 3.675781 -5.71875 3.15625 -5.53125 2.75 -5.15625 C 2.351562 -4.789062 2.15625 -4.316406 2.15625 -3.734375 C 2.15625 -3.128906 2.351562 -2.640625 2.75 -2.265625 C 3.15625 -1.898438 3.675781 -1.71875 4.3125 -1.71875 Z M 4.3125 -1.71875 "/></g></g></g><g fill="#737373" fill-opacity="1"><g transform="translate(28.67114, 13.498119)"><g><path d="M 3.765625 -7.125 C 4.804688 -7.125 5.597656 -6.875 6.140625 -6.375 C 6.691406 -5.875 6.96875 -5.125 6.96875 -4.125 L 6.96875 0 L 5.421875 0 L 5.421875 -0.859375 C 5.210938 -0.546875 4.921875 -0.304688 4.546875 -0.140625 C 4.179688 0.015625 3.734375 0.09375 3.203125 0.09375 C 2.671875 0.09375 2.207031 0.00390625 1.8125 -0.171875 C 1.414062 -0.359375 1.109375 -0.609375 0.890625 -0.921875 C 0.679688 -1.242188 0.578125 -1.609375 0.578125 -2.015625 C 0.578125 -2.648438 0.8125 -3.15625 1.28125 -3.53125 C 1.75 -3.914062 2.492188 -4.109375 3.515625 -4.109375 L 5.328125 -4.109375 L 5.328125 -4.21875 C 5.328125 -4.707031 5.175781 -5.082031 4.875 -5.34375 C 4.582031 -5.613281 4.148438 -5.75 3.578125 -5.75 C 3.179688 -5.75 2.789062 -5.6875 2.40625 -5.5625 C 2.019531 -5.4375 1.695312 -5.265625 1.4375 -5.046875 L 0.796875 -6.25 C 1.160156 -6.53125 1.601562 -6.742188 2.125 -6.890625 C 2.644531 -7.046875 3.191406 -7.125 3.765625 -7.125 Z M 3.546875 -1.109375 C 3.960938 -1.109375 4.328125 -1.203125 4.640625 -1.390625 C 4.960938 -1.578125 5.191406 -1.847656 5.328125 -2.203125 L 5.328125 -3.015625 L 3.625 -3.015625 C 2.675781 -3.015625 2.203125 -2.703125 2.203125 -2.078125 C 2.203125 -1.785156 2.320312 -1.550781 2.5625 -1.375 C 2.800781 -1.195312 3.128906 -1.109375 3.546875 -1.109375 Z M 3.546875 -1.109375 "/></g></g></g><g fill="#737373" fill-opacity="1"><g transform="translate(36.677001, 13.498119)"><g><path d="M 2.65625 -6.015625 C 3.125 -6.753906 3.957031 -7.125 5.15625 -7.125 L 5.15625 -5.546875 C 5.007812 -5.578125 4.882812 -5.59375 4.78125 -5.59375 C 4.132812 -5.59375 3.628906 -5.40625 3.265625 -5.03125 C 2.910156 -4.65625 2.734375 -4.117188 2.734375 -3.421875 L 2.734375 0 L 1.078125 0 L 1.078125 -7.046875 L 2.65625 -7.046875 Z M 2.65625 -6.015625 "/></g></g></g><g fill="#737373" fill-opacity="1"><g transform="translate(42.216479, 13.498119)"><g><path d="M 1.625 -2.09375 C 1.925781 -2.09375 2.175781 -1.988281 2.375 -1.78125 C 2.582031 -1.582031 2.6875 -1.320312 2.6875 -1 C 2.6875 -0.863281 2.664062 -0.71875 2.625 -0.5625 C 2.59375 -0.40625 2.515625 -0.175781 2.390625 0.125 L 1.71875 1.984375 L 0.640625 1.984375 L 1.171875 -0.03125 C 0.984375 -0.101562 0.832031 -0.222656 0.71875 -0.390625 C 0.601562 -0.566406 0.546875 -0.769531 0.546875 -1 C 0.546875 -1.320312 0.644531 -1.582031 0.84375 -1.78125 C 1.050781 -1.988281 1.3125 -2.09375 1.625 -2.09375 Z M 1.625 -2.09375 "/></g></g></g><g fill="#737373" fill-opacity="1"><g transform="translate(45.434653, 13.498119)"><g/></g></g><g fill="#737373" fill-opacity="1"><g transform="translate(49.07488, 13.498119)"><g><path d="M 4.984375 -7.125 C 5.671875 -7.125 6.285156 -6.972656 6.828125 -6.671875 C 7.367188 -6.367188 7.789062 -5.945312 8.09375 -5.40625 C 8.40625 -4.863281 8.5625 -4.234375 8.5625 -3.515625 C 8.5625 -2.804688 8.40625 -2.175781 8.09375 -1.625 C 7.789062 -1.070312 7.367188 -0.644531 6.828125 -0.34375 C 6.285156 -0.0507812 5.671875 0.09375 4.984375 0.09375 C 4.035156 0.09375 3.285156 -0.222656 2.734375 -0.859375 L 2.734375 2.5625 L 1.078125 2.5625 L 1.078125 -7.046875 L 2.65625 -7.046875 L 2.65625 -6.125 C 2.925781 -6.457031 3.257812 -6.707031 3.65625 -6.875 C 4.0625 -7.039062 4.503906 -7.125 4.984375 -7.125 Z M 4.796875 -1.3125 C 5.398438 -1.3125 5.898438 -1.515625 6.296875 -1.921875 C 6.691406 -2.328125 6.890625 -2.859375 6.890625 -3.515625 C 6.890625 -4.179688 6.691406 -4.710938 6.296875 -5.109375 C 5.898438 -5.515625 5.398438 -5.71875 4.796875 -5.71875 C 4.398438 -5.71875 4.039062 -5.628906 3.71875 -5.453125 C 3.40625 -5.273438 3.15625 -5.019531 2.96875 -4.6875 C 2.789062 -4.351562 2.703125 -3.960938 2.703125 -3.515625 C 2.703125 -3.078125 2.789062 -2.691406 2.96875 -2.359375 C 3.15625 -2.023438 3.40625 -1.765625 3.71875 -1.578125 C 4.039062 -1.398438 4.398438 -1.3125 4.796875 -1.3125 Z M 4.796875 -1.3125 "/></g></g></g><g fill="#737373" fill-opacity="1"><g transform="translate(58.122693, 13.498119)"><g><path d="M 3.765625 -7.125 C 4.804688 -7.125 5.597656 -6.875 6.140625 -6.375 C 6.691406 -5.875 6.96875 -5.125 6.96875 -4.125 L 6.96875 0 L 5.421875 0 L 5.421875 -0.859375 C 5.210938 -0.546875 4.921875 -0.304688 4.546875 -0.140625 C 4.179688 0.015625 3.734375 0.09375 3.203125 0.09375 C 2.671875 0.09375 2.207031 0.00390625 1.8125 -0.171875 C 1.414062 -0.359375 1.109375 -0.609375 0.890625 -0.921875 C 0.679688 -1.242188 0.578125 -1.609375 0.578125 -2.015625 C 0.578125 -2.648438 0.8125 -3.15625 1.28125 -3.53125 C 1.75 -3.914062 2.492188 -4.109375 3.515625 -4.109375 L 5.328125 -4.109375 L 5.328125 -4.21875 C 5.328125 -4.707031 5.175781 -5.082031 4.875 -5.34375 C 4.582031 -5.613281 4.148438 -5.75 3.578125 -5.75 C 3.179688 -5.75 2.789062 -5.6875 2.40625 -5.5625 C 2.019531 -5.4375 1.695312 -5.265625 1.4375 -5.046875 L 0.796875 -6.25 C 1.160156 -6.53125 1.601562 -6.742188 2.125 -6.890625 C 2.644531 -7.046875 3.191406 -7.125 3.765625 -7.125 Z M 3.546875 -1.109375 C 3.960938 -1.109375 4.328125 -1.203125 4.640625 -1.390625 C 4.960938 -1.578125 5.191406 -1.847656 5.328125 -2.203125 L 5.328125 -3.015625 L 3.625 -3.015625 C 2.675781 -3.015625 2.203125 -2.703125 2.203125 -2.078125 C 2.203125 -1.785156 2.320312 -1.550781 2.5625 -1.375 C 2.800781 -1.195312 3.128906 -1.109375 3.546875 -1.109375 Z M 3.546875 -1.109375 "/></g></g></g><g fill="#737373" fill-opacity="1"><g transform="translate(66.128554, 13.498119)"><g><path d="M 6.578125 -1.3125 L 6.578125 0 L 0.5 0 L 0.5 -1.046875 L 4.359375 -5.71875 L 0.578125 -5.71875 L 0.578125 -7.046875 L 6.46875 -7.046875 L 6.46875 -6 L 2.59375 -1.3125 Z M 6.578125 -1.3125 "/></g></g></g><g fill="#737373" fill-opacity="1"><g transform="translate(73.145224, 13.498119)"><g/></g></g><g fill="#737373" fill-opacity="1"><g transform="translate(76.785451, 13.498119)"><g><path d="M 7.671875 -7.046875 L 4.375 0.5625 C 4.070312 1.332031 3.695312 1.875 3.25 2.1875 C 2.8125 2.5 2.28125 2.65625 1.65625 2.65625 C 1.3125 2.65625 0.96875 2.597656 0.625 2.484375 C 0.28125 2.367188 0 2.207031 -0.21875 2 L 0.4375 0.796875 C 0.59375 0.941406 0.773438 1.054688 0.984375 1.140625 C 1.203125 1.234375 1.421875 1.28125 1.640625 1.28125 C 1.929688 1.28125 2.171875 1.203125 2.359375 1.046875 C 2.554688 0.898438 2.734375 0.648438 2.890625 0.296875 L 3 0.03125 L -0.0625 -7.046875 L 1.640625 -7.046875 L 3.859375 -1.828125 L 6.09375 -7.046875 Z M 7.671875 -7.046875 "/></g></g></g><g fill="#737373" fill-opacity="1"><g transform="translate(84.408826, 13.498119)"><g/></g></g><g fill="#737373" fill-opacity="1"><g transform="translate(88.049053, 13.498119)"><g><path d="M 2.65625 -6.015625 C 3.125 -6.753906 3.957031 -7.125 5.15625 -7.125 L 5.15625 -5.546875 C 5.007812 -5.578125 4.882812 -5.59375 4.78125 -5.59375 C 4.132812 -5.59375 3.628906 -5.40625 3.265625 -5.03125 C 2.910156 -4.65625 2.734375 -4.117188 2.734375 -3.421875 L 2.734375 0 L 1.078125 0 L 1.078125 -7.046875 L 2.65625 -7.046875 Z M 2.65625 -6.015625 "/></g></g></g><g fill="#737373" fill-opacity="1"><g transform="translate(93.58853, 13.498119)"><g><path d="M 3.765625 -7.125 C 4.804688 -7.125 5.597656 -6.875 6.140625 -6.375 C 6.691406 -5.875 6.96875 -5.125 6.96875 -4.125 L 6.96875 0 L 5.421875 0 L 5.421875 -0.859375 C 5.210938 -0.546875 4.921875 -0.304688 4.546875 -0.140625 C 4.179688 0.015625 3.734375 0.09375 3.203125 0.09375 C 2.671875 0.09375 2.207031 0.00390625 1.8125 -0.171875 C 1.414062 -0.359375 1.109375 -0.609375 0.890625 -0.921875 C 0.679688 -1.242188 0.578125 -1.609375 0.578125 -2.015625 C 0.578125 -2.648438 0.8125 -3.15625 1.28125 -3.53125 C 1.75 -3.914062 2.492188 -4.109375 3.515625 -4.109375 L 5.328125 -4.109375 L 5.328125 -4.21875 C 5.328125 -4.707031 5.175781 -5.082031 4.875 -5.34375 C 4.582031 -5.613281 4.148438 -5.75 3.578125 -5.75 C 3.179688 -5.75 2.789062 -5.6875 2.40625 -5.5625 C 2.019531 -5.4375 1.695312 -5.265625 1.4375 -5.046875 L 0.796875 -6.25 C 1.160156 -6.53125 1.601562 -6.742188 2.125 -6.890625 C 2.644531 -7.046875 3.191406 -7.125 3.765625 -7.125 Z M 3.546875 -1.109375 C 3.960938 -1.109375 4.328125 -1.203125 4.640625 -1.390625 C 4.960938 -1.578125 5.191406 -1.847656 5.328125 -2.203125 L 5.328125 -3.015625 L 3.625 -3.015625 C 2.675781 -3.015625 2.203125 -2.703125 2.203125 -2.078125 C 2.203125 -1.785156 2.320312 -1.550781 2.5625 -1.375 C 2.800781 -1.195312 3.128906 -1.109375 3.546875 -1.109375 Z M 3.546875 -1.109375 "/></g></g></g><g fill="#737373" fill-opacity="1"><g transform="translate(101.594392, 13.498119)"><g><path d="M 1.078125 -7.046875 L 2.734375 -7.046875 L 2.734375 0 L 1.078125 0 Z M 2.59375 -9.8125 L 4.53125 -9.8125 L 2.234375 -8 L 0.8125 -8 Z M 2.59375 -9.8125 "/></g></g></g><g fill="#737373" fill-opacity="1"><g transform="translate(105.406082, 13.498119)"><g><path d="M 4.3125 0.09375 C 3.582031 0.09375 2.925781 -0.0546875 2.34375 -0.359375 C 1.769531 -0.671875 1.316406 -1.101562 0.984375 -1.65625 C 0.660156 -2.207031 0.5 -2.828125 0.5 -3.515625 C 0.5 -4.210938 0.660156 -4.832031 0.984375 -5.375 C 1.316406 -5.925781 1.769531 -6.351562 2.34375 -6.65625 C 2.914062 -6.96875 3.570312 -7.125 4.3125 -7.125 C 5.007812 -7.125 5.617188 -6.984375 6.140625 -6.703125 C 6.660156 -6.421875 7.050781 -6.015625 7.3125 -5.484375 L 6.046875 -4.75 C 5.847656 -5.070312 5.597656 -5.3125 5.296875 -5.46875 C 4.992188 -5.632812 4.660156 -5.71875 4.296875 -5.71875 C 3.679688 -5.71875 3.171875 -5.515625 2.765625 -5.109375 C 2.359375 -4.710938 2.15625 -4.179688 2.15625 -3.515625 C 2.15625 -2.847656 2.351562 -2.3125 2.75 -1.90625 C 3.15625 -1.507812 3.671875 -1.3125 4.296875 -1.3125 C 4.660156 -1.3125 4.992188 -1.394531 5.296875 -1.5625 C 5.597656 -1.726562 5.847656 -1.972656 6.046875 -2.296875 L 7.3125 -1.5625 C 7.039062 -1.03125 6.644531 -0.617188 6.125 -0.328125 C 5.601562 -0.046875 5 0.09375 4.3125 0.09375 Z M 4.3125 0.09375 "/></g></g></g><g fill="#737373" fill-opacity="1"><g transform="translate(113.069036, 13.498119)"><g><path d="M 7.703125 -3.484375 C 7.703125 -3.367188 7.691406 -3.207031 7.671875 -3 L 2.15625 -3 C 2.25 -2.476562 2.5 -2.066406 2.90625 -1.765625 C 3.3125 -1.460938 3.820312 -1.3125 4.4375 -1.3125 C 5.207031 -1.3125 5.84375 -1.566406 6.34375 -2.078125 L 7.234375 -1.0625 C 6.910156 -0.675781 6.503906 -0.382812 6.015625 -0.1875 C 5.535156 0 4.992188 0.09375 4.390625 0.09375 C 3.617188 0.09375 2.9375 -0.0546875 2.34375 -0.359375 C 1.757812 -0.671875 1.304688 -1.101562 0.984375 -1.65625 C 0.660156 -2.207031 0.5 -2.828125 0.5 -3.515625 C 0.5 -4.203125 0.65625 -4.820312 0.96875 -5.375 C 1.28125 -5.925781 1.710938 -6.351562 2.265625 -6.65625 C 2.816406 -6.96875 3.441406 -7.125 4.140625 -7.125 C 4.828125 -7.125 5.441406 -6.972656 5.984375 -6.671875 C 6.523438 -6.367188 6.945312 -5.941406 7.25 -5.390625 C 7.550781 -4.835938 7.703125 -4.203125 7.703125 -3.484375 Z M 4.140625 -5.796875 C 3.609375 -5.796875 3.160156 -5.640625 2.796875 -5.328125 C 2.429688 -5.015625 2.210938 -4.601562 2.140625 -4.09375 L 6.125 -4.09375 C 6.0625 -4.601562 5.847656 -5.015625 5.484375 -5.328125 C 5.117188 -5.640625 4.671875 -5.796875 4.140625 -5.796875 Z M 4.140625 -5.796875 "/></g></g></g><g fill="#737373" fill-opacity="1"><g transform="translate(121.272738, 13.498119)"><g><path d="M 3.25 0.09375 C 2.6875 0.09375 2.128906 0.0195312 1.578125 -0.125 C 1.035156 -0.28125 0.601562 -0.472656 0.28125 -0.703125 L 0.90625 -1.953125 C 1.226562 -1.742188 1.609375 -1.570312 2.046875 -1.4375 C 2.492188 -1.3125 2.929688 -1.25 3.359375 -1.25 C 4.347656 -1.25 4.84375 -1.507812 4.84375 -2.03125 C 4.84375 -2.28125 4.71875 -2.453125 4.46875 -2.546875 C 4.21875 -2.640625 3.8125 -2.734375 3.25 -2.828125 C 2.675781 -2.910156 2.207031 -3.007812 1.84375 -3.125 C 1.476562 -3.238281 1.160156 -3.4375 0.890625 -3.71875 C 0.617188 -4.007812 0.484375 -4.410156 0.484375 -4.921875 C 0.484375 -5.585938 0.757812 -6.117188 1.3125 -6.515625 C 1.875 -6.921875 2.632812 -7.125 3.59375 -7.125 C 4.070312 -7.125 4.550781 -7.066406 5.03125 -6.953125 C 5.519531 -6.847656 5.914062 -6.703125 6.21875 -6.515625 L 5.59375 -5.265625 C 4.988281 -5.617188 4.316406 -5.796875 3.578125 -5.796875 C 3.085938 -5.796875 2.71875 -5.722656 2.46875 -5.578125 C 2.21875 -5.429688 2.09375 -5.238281 2.09375 -5 C 2.09375 -4.738281 2.226562 -4.550781 2.5 -4.4375 C 2.769531 -4.320312 3.1875 -4.21875 3.75 -4.125 C 4.3125 -4.039062 4.769531 -3.941406 5.125 -3.828125 C 5.488281 -3.710938 5.800781 -3.515625 6.0625 -3.234375 C 6.320312 -2.960938 6.453125 -2.578125 6.453125 -2.078125 C 6.453125 -1.421875 6.164062 -0.894531 5.59375 -0.5 C 5.019531 -0.101562 4.238281 0.09375 3.25 0.09375 Z M 3.25 0.09375 "/></g></g></g><g fill="#737373" fill-opacity="1"><g transform="translate(128.065177, 13.498119)"><g/></g></g><g fill="#737373" fill-opacity="1"><g transform="translate(131.705417, 13.498119)"><g><path d="M 7.703125 -3.484375 C 7.703125 -3.367188 7.691406 -3.207031 7.671875 -3 L 2.15625 -3 C 2.25 -2.476562 2.5 -2.066406 2.90625 -1.765625 C 3.3125 -1.460938 3.820312 -1.3125 4.4375 -1.3125 C 5.207031 -1.3125 5.84375 -1.566406 6.34375 -2.078125 L 7.234375 -1.0625 C 6.910156 -0.675781 6.503906 -0.382812 6.015625 -0.1875 C 5.535156 0 4.992188 0.09375 4.390625 0.09375 C 3.617188 0.09375 2.9375 -0.0546875 2.34375 -0.359375 C 1.757812 -0.671875 1.304688 -1.101562 0.984375 -1.65625 C 0.660156 -2.207031 0.5 -2.828125 0.5 -3.515625 C 0.5 -4.203125 0.65625 -4.820312 0.96875 -5.375 C 1.28125 -5.925781 1.710938 -6.351562 2.265625 -6.65625 C 2.816406 -6.96875 3.441406 -7.125 4.140625 -7.125 C 4.828125 -7.125 5.441406 -6.972656 5.984375 -6.671875 C 6.523438 -6.367188 6.945312 -5.941406 7.25 -5.390625 C 7.550781 -4.835938 7.703125 -4.203125 7.703125 -3.484375 Z M 4.140625 -5.796875 C 3.609375 -5.796875 3.160156 -5.640625 2.796875 -5.328125 C 2.429688 -5.015625 2.210938 -4.601562 2.140625 -4.09375 L 6.125 -4.09375 C 6.0625 -4.601562 5.847656 -5.015625 5.484375 -5.328125 C 5.117188 -5.640625 4.671875 -5.796875 4.140625 -5.796875 Z M 4.140625 -5.796875 "/></g></g></g><g fill="#737373" fill-opacity="1"><g transform="translate(139.909119, 13.498119)"><g><path d="M 5.078125 -7.125 C 5.960938 -7.125 6.671875 -6.863281 7.203125 -6.34375 C 7.742188 -5.820312 8.015625 -5.050781 8.015625 -4.03125 L 8.015625 0 L 6.375 0 L 6.375 -3.828125 C 6.375 -4.441406 6.226562 -4.90625 5.9375 -5.21875 C 5.644531 -5.53125 5.226562 -5.6875 4.6875 -5.6875 C 4.082031 -5.6875 3.601562 -5.503906 3.25 -5.140625 C 2.90625 -4.773438 2.734375 -4.25 2.734375 -3.5625 L 2.734375 0 L 1.078125 0 L 1.078125 -7.046875 L 2.65625 -7.046875 L 2.65625 -6.125 C 2.925781 -6.457031 3.265625 -6.707031 3.671875 -6.875 C 4.085938 -7.039062 4.554688 -7.125 5.078125 -7.125 Z M 5.078125 -7.125 "/></g></g></g><g fill="#737373" fill-opacity="1"><g transform="translate(148.943737, 13.498119)"><g/></g></g><g fill="#737373" fill-opacity="1"><g transform="translate(152.583964, 13.498119)"><g><path d="M 5.03125 -9.234375 C 5.832031 -9.234375 6.53125 -9.097656 7.125 -8.828125 C 7.71875 -8.566406 8.171875 -8.191406 8.484375 -7.703125 C 8.804688 -7.210938 8.96875 -6.628906 8.96875 -5.953125 C 8.96875 -5.273438 8.804688 -4.6875 8.484375 -4.1875 C 8.171875 -3.695312 7.71875 -3.316406 7.125 -3.046875 C 6.53125 -2.785156 5.832031 -2.65625 5.03125 -2.65625 L 2.953125 -2.65625 L 2.953125 0 L 1.234375 0 L 1.234375 -9.234375 Z M 4.953125 -4.109375 C 5.703125 -4.109375 6.269531 -4.265625 6.65625 -4.578125 C 7.039062 -4.898438 7.234375 -5.359375 7.234375 -5.953125 C 7.234375 -6.535156 7.039062 -6.984375 6.65625 -7.296875 C 6.269531 -7.617188 5.703125 -7.78125 4.953125 -7.78125 L 2.953125 -7.78125 L 2.953125 -4.109375 Z M 4.953125 -4.109375 "/></g></g></g><g fill="#737373" fill-opacity="1"><g transform="translate(162.159337, 13.498119)"><g><path d="M 3.765625 -7.125 C 4.804688 -7.125 5.597656 -6.875 6.140625 -6.375 C 6.691406 -5.875 6.96875 -5.125 6.96875 -4.125 L 6.96875 0 L 5.421875 0 L 5.421875 -0.859375 C 5.210938 -0.546875 4.921875 -0.304688 4.546875 -0.140625 C 4.179688 0.015625 3.734375 0.09375 3.203125 0.09375 C 2.671875 0.09375 2.207031 0.00390625 1.8125 -0.171875 C 1.414062 -0.359375 1.109375 -0.609375 0.890625 -0.921875 C 0.679688 -1.242188 0.578125 -1.609375 0.578125 -2.015625 C 0.578125 -2.648438 0.8125 -3.15625 1.28125 -3.53125 C 1.75 -3.914062 2.492188 -4.109375 3.515625 -4.109375 L 5.328125 -4.109375 L 5.328125 -4.21875 C 5.328125 -4.707031 5.175781 -5.082031 4.875 -5.34375 C 4.582031 -5.613281 4.148438 -5.75 3.578125 -5.75 C 3.179688 -5.75 2.789062 -5.6875 2.40625 -5.5625 C 2.019531 -5.4375 1.695312 -5.265625 1.4375 -5.046875 L 0.796875 -6.25 C 1.160156 -6.53125 1.601562 -6.742188 2.125 -6.890625 C 2.644531 -7.046875 3.191406 -7.125 3.765625 -7.125 Z M 3.546875 -1.109375 C 3.960938 -1.109375 4.328125 -1.203125 4.640625 -1.390625 C 4.960938 -1.578125 5.191406 -1.847656 5.328125 -2.203125 L 5.328125 -3.015625 L 3.625 -3.015625 C 2.675781 -3.015625 2.203125 -2.703125 2.203125 -2.078125 C 2.203125 -1.785156 2.320312 -1.550781 2.5625 -1.375 C 2.800781 -1.195312 3.128906 -1.109375 3.546875 -1.109375 Z M 3.546875 -1.109375 "/></g></g></g><g fill="#737373" fill-opacity="1"><g transform="translate(170.165198, 13.498119)"><g><path d="M 7.671875 -7.046875 L 4.375 0.5625 C 4.070312 1.332031 3.695312 1.875 3.25 2.1875 C 2.8125 2.5 2.28125 2.65625 1.65625 2.65625 C 1.3125 2.65625 0.96875 2.597656 0.625 2.484375 C 0.28125 2.367188 0 2.207031 -0.21875 2 L 0.4375 0.796875 C 0.59375 0.941406 0.773438 1.054688 0.984375 1.140625 C 1.203125 1.234375 1.421875 1.28125 1.640625 1.28125 C 1.929688 1.28125 2.171875 1.203125 2.359375 1.046875 C 2.554688 0.898438 2.734375 0.648438 2.890625 0.296875 L 3 0.03125 L -0.0625 -7.046875 L 1.640625 -7.046875 L 3.859375 -1.828125 L 6.09375 -7.046875 Z M 7.671875 -7.046875 "/></g></g></g><g fill="#737373" fill-opacity="1"><g transform="translate(177.78858, 13.498119)"><g><path d="M 3.25 0.09375 C 2.6875 0.09375 2.128906 0.0195312 1.578125 -0.125 C 1.035156 -0.28125 0.601562 -0.472656 0.28125 -0.703125 L 0.90625 -1.953125 C 1.226562 -1.742188 1.609375 -1.570312 2.046875 -1.4375 C 2.492188 -1.3125 2.929688 -1.25 3.359375 -1.25 C 4.347656 -1.25 4.84375 -1.507812 4.84375 -2.03125 C 4.84375 -2.28125 4.71875 -2.453125 4.46875 -2.546875 C 4.21875 -2.640625 3.8125 -2.734375 3.25 -2.828125 C 2.675781 -2.910156 2.207031 -3.007812 1.84375 -3.125 C 1.476562 -3.238281 1.160156 -3.4375 0.890625 -3.71875 C 0.617188 -4.007812 0.484375 -4.410156 0.484375 -4.921875 C 0.484375 -5.585938 0.757812 -6.117188 1.3125 -6.515625 C 1.875 -6.921875 2.632812 -7.125 3.59375 -7.125 C 4.070312 -7.125 4.550781 -7.066406 5.03125 -6.953125 C 5.519531 -6.847656 5.914062 -6.703125 6.21875 -6.515625 L 5.59375 -5.265625 C 4.988281 -5.617188 4.316406 -5.796875 3.578125 -5.796875 C 3.085938 -5.796875 2.71875 -5.722656 2.46875 -5.578125 C 2.21875 -5.429688 2.09375 -5.238281 2.09375 -5 C 2.09375 -4.738281 2.226562 -4.550781 2.5 -4.4375 C 2.769531 -4.320312 3.1875 -4.21875 3.75 -4.125 C 4.3125 -4.039062 4.769531 -3.941406 5.125 -3.828125 C 5.488281 -3.710938 5.800781 -3.515625 6.0625 -3.234375 C 6.320312 -2.960938 6.453125 -2.578125 6.453125 -2.078125 C 6.453125 -1.421875 6.164062 -0.894531 5.59375 -0.5 C 5.019531 -0.101562 4.238281 0.09375 3.25 0.09375 Z M 3.25 0.09375 "/></g></g></g><g fill="#737373" fill-opacity="1"><g transform="translate(184.581032, 13.498119)"><g><path d="M 3.765625 -7.125 C 4.804688 -7.125 5.597656 -6.875 6.140625 -6.375 C 6.691406 -5.875 6.96875 -5.125 6.96875 -4.125 L 6.96875 0 L 5.421875 0 L 5.421875 -0.859375 C 5.210938 -0.546875 4.921875 -0.304688 4.546875 -0.140625 C 4.179688 0.015625 3.734375 0.09375 3.203125 0.09375 C 2.671875 0.09375 2.207031 0.00390625 1.8125 -0.171875 C 1.414062 -0.359375 1.109375 -0.609375 0.890625 -0.921875 C 0.679688 -1.242188 0.578125 -1.609375 0.578125 -2.015625 C 0.578125 -2.648438 0.8125 -3.15625 1.28125 -3.53125 C 1.75 -3.914062 2.492188 -4.109375 3.515625 -4.109375 L 5.328125 -4.109375 L 5.328125 -4.21875 C 5.328125 -4.707031 5.175781 -5.082031 4.875 -5.34375 C 4.582031 -5.613281 4.148438 -5.75 3.578125 -5.75 C 3.179688 -5.75 2.789062 -5.6875 2.40625 -5.5625 C 2.019531 -5.4375 1.695312 -5.265625 1.4375 -5.046875 L 0.796875 -6.25 C 1.160156 -6.53125 1.601562 -6.742188 2.125 -6.890625 C 2.644531 -7.046875 3.191406 -7.125 3.765625 -7.125 Z M 3.546875 -1.109375 C 3.960938 -1.109375 4.328125 -1.203125 4.640625 -1.390625 C 4.960938 -1.578125 5.191406 -1.847656 5.328125 -2.203125 L 5.328125 -3.015625 L 3.625 -3.015625 C 2.675781 -3.015625 2.203125 -2.703125 2.203125 -2.078125 C 2.203125 -1.785156 2.320312 -1.550781 2.5625 -1.375 C 2.800781 -1.195312 3.128906 -1.109375 3.546875 -1.109375 Z M 3.546875 -1.109375 "/></g></g></g><g fill="#737373" fill-opacity="1"><g transform="translate(192.586894, 13.498119)"><g><path d="M 5.078125 -7.125 C 5.960938 -7.125 6.671875 -6.863281 7.203125 -6.34375 C 7.742188 -5.820312 8.015625 -5.050781 8.015625 -4.03125 L 8.015625 0 L 6.375 0 L 6.375 -3.828125 C 6.375 -4.441406 6.226562 -4.90625 5.9375 -5.21875 C 5.644531 -5.53125 5.226562 -5.6875 4.6875 -5.6875 C 4.082031 -5.6875 3.601562 -5.503906 3.25 -5.140625 C 2.90625 -4.773438 2.734375 -4.25 2.734375 -3.5625 L 2.734375 0 L 1.078125 0 L 1.078125 -7.046875 L 2.65625 -7.046875 L 2.65625 -6.125 C 2.925781 -6.457031 3.265625 -6.707031 3.671875 -6.875 C 4.085938 -7.039062 4.554688 -7.125 5.078125 -7.125 Z M 5.078125 -7.125 "/></g></g></g><g fill="#737373" fill-opacity="1"><g transform="translate(201.621524, 13.498119)"><g><path d="M 7.984375 -9.78125 L 7.984375 0 L 6.390625 0 L 6.390625 -0.90625 C 6.117188 -0.570312 5.78125 -0.320312 5.375 -0.15625 C 4.976562 0.0078125 4.539062 0.09375 4.0625 0.09375 C 3.382812 0.09375 2.773438 -0.0507812 2.234375 -0.34375 C 1.691406 -0.644531 1.265625 -1.070312 0.953125 -1.625 C 0.648438 -2.175781 0.5 -2.804688 0.5 -3.515625 C 0.5 -4.234375 0.648438 -4.863281 0.953125 -5.40625 C 1.265625 -5.945312 1.691406 -6.367188 2.234375 -6.671875 C 2.773438 -6.972656 3.382812 -7.125 4.0625 -7.125 C 4.53125 -7.125 4.957031 -7.039062 5.34375 -6.875 C 5.726562 -6.71875 6.054688 -6.484375 6.328125 -6.171875 L 6.328125 -9.78125 Z M 4.265625 -1.3125 C 4.660156 -1.3125 5.015625 -1.398438 5.328125 -1.578125 C 5.640625 -1.765625 5.890625 -2.023438 6.078125 -2.359375 C 6.265625 -2.691406 6.359375 -3.078125 6.359375 -3.515625 C 6.359375 -3.960938 6.265625 -4.351562 6.078125 -4.6875 C 5.890625 -5.019531 5.640625 -5.273438 5.328125 -5.453125 C 5.015625 -5.628906 4.660156 -5.71875 4.265625 -5.71875 C 3.867188 -5.71875 3.507812 -5.628906 3.1875 -5.453125 C 2.875 -5.273438 2.625 -5.019531 2.4375 -4.6875 C 2.25 -4.351562 2.15625 -3.960938 2.15625 -3.515625 C 2.15625 -3.078125 2.25 -2.691406 2.4375 -2.359375 C 2.625 -2.023438 2.875 -1.765625 3.1875 -1.578125 C 3.507812 -1.398438 3.867188 -1.3125 4.265625 -1.3125 Z M 4.265625 -1.3125 "/></g></g></g><g fill="#737373" fill-opacity="1"><g transform="translate(210.682519, 13.498119)"><g><path d="M 7.90625 -7.046875 L 7.90625 0 L 6.328125 0 L 6.328125 -0.890625 C 6.066406 -0.578125 5.738281 -0.332031 5.34375 -0.15625 C 4.945312 0.0078125 4.519531 0.09375 4.0625 0.09375 C 3.125 0.09375 2.382812 -0.164062 1.84375 -0.6875 C 1.300781 -1.21875 1.03125 -1.992188 1.03125 -3.015625 L 1.03125 -7.046875 L 2.671875 -7.046875 L 2.671875 -3.25 C 2.671875 -2.613281 2.8125 -2.140625 3.09375 -1.828125 C 3.382812 -1.515625 3.796875 -1.359375 4.328125 -1.359375 C 4.910156 -1.359375 5.375 -1.539062 5.71875 -1.90625 C 6.070312 -2.269531 6.25 -2.796875 6.25 -3.484375 L 6.25 -7.046875 Z M 5.125 -9.8125 L 7.0625 -9.8125 L 4.765625 -8 L 3.34375 -8 Z M 5.125 -9.8125 "/></g></g></g></g></g><path fill="#296175" d="M 149.347656 113.890625 L 150.6875 113.890625 L 152.214844 114.65625 L 154.128906 116.375 L 155.65625 117.714844 L 157.1875 118.863281 L 160.054688 121.347656 L 162.15625 123.070312 L 164.640625 125.175781 L 166.742188 126.894531 L 168.847656 128.617188 L 170.757812 130.339844 L 172.289062 131.488281 L 173.242188 132.441406 L 174.773438 133.78125 L 176.875 135.503906 L 178.785156 137.035156 L 180.890625 138.753906 L 185.09375 142.199219 L 187.199219 144.109375 L 188.917969 145.449219 L 191.210938 147.554688 L 191.210938 147.9375 L 192.167969 148.128906 L 192.933594 148.890625 L 192.933594 149.273438 L 193.886719 149.65625 L 195.035156 150.613281 L 195.035156 150.996094 L 195.992188 151.378906 L 197.519531 152.71875 L 199.050781 154.054688 L 199.816406 155.011719 L 200.195312 156.160156 L 200.195312 157.691406 L 199.242188 159.410156 L 198.09375 159.984375 L 197.328125 160.175781 L 186.625 160.367188 L 185.859375 160.558594 L 185.859375 163.429688 L 205.167969 163.238281 L 207.078125 161.515625 L 208.609375 160.175781 L 210.710938 158.457031 L 212.8125 156.734375 L 213.195312 156.734375 L 213.195312 156.351562 L 213.960938 156.160156 L 213.960938 155.777344 L 216.636719 153.867188 L 220.460938 151.570312 L 223.519531 150.039062 L 226.960938 148.507812 L 229.636719 147.746094 L 234.414062 146.40625 L 238.238281 145.640625 L 239.386719 145.449219 L 247.605469 145.449219 L 252.382812 146.214844 L 258.117188 147.746094 L 260.792969 148.507812 L 264.808594 150.230469 L 269.589844 152.71875 L 271.882812 154.246094 L 273.601562 155.585938 L 276.277344 157.691406 L 278.382812 159.410156 L 280.292969 160.941406 L 282.011719 162.664062 L 283.351562 163.429688 L 285.261719 163.8125 L 286.027344 164.769531 L 286.21875 165.148438 L 286.21875 167.636719 L 285.453125 168.976562 L 284.882812 169.359375 L 269.589844 169.359375 L 269.78125 177.007812 L 270.351562 177.007812 L 274.941406 176.625 L 283.542969 176.625 L 283.925781 177.007812 L 284.117188 178.347656 L 283.351562 181.027344 L 282.203125 185.042969 L 281.25 187.527344 L 280.292969 189.632812 L 279.71875 191.164062 L 278.957031 192.691406 L 278.382812 194.03125 L 277.425781 195.753906 L 277.042969 196.902344 L 276.660156 196.902344 L 276.277344 197.855469 L 275.132812 199.769531 L 274.175781 201.109375 L 273.410156 202.640625 L 272.074219 204.359375 L 271.691406 204.359375 L 271.308594 205.316406 L 270.160156 206.847656 L 269.398438 207.613281 L 269.015625 207.613281 L 269.015625 207.996094 L 268.632812 207.996094 L 268.441406 208.566406 L 267.292969 208.757812 L 267.675781 205.699219 L 267.675781 202.066406 L 267.101562 199.769531 L 265.382812 196.519531 L 264.808594 195.945312 L 264.808594 195.5625 L 264.425781 195.5625 L 263.28125 194.222656 L 261.175781 192.691406 L 258.691406 191.164062 L 256.78125 190.207031 L 256.78125 189.824219 L 255.632812 189.441406 L 252.957031 187.71875 L 252 187.144531 L 250.664062 186 L 250.472656 184.851562 L 250.664062 183.511719 L 251.046875 182.746094 L 252.191406 181.789062 L 253.148438 181.214844 L 254.105469 180.453125 L 258.691406 179.113281 L 260.605469 178.539062 L 260.605469 169.359375 L 227.339844 169.550781 L 227.152344 169.933594 L 227.152344 174.140625 L 227.339844 176.433594 L 251.429688 176.625 L 251.617188 177.773438 L 250.855469 178.347656 L 247.988281 179.304688 L 246.074219 180.453125 L 244.738281 181.789062 L 243.972656 183.128906 L 243.972656 185.234375 L 244.929688 187.144531 L 246.265625 188.484375 L 248.558594 189.824219 L 250.472656 191.164062 L 253.722656 192.882812 L 256.207031 194.414062 L 258.117188 195.753906 L 260.605469 198.046875 L 261.558594 199.386719 L 261.558594 199.769531 L 261.941406 199.769531 L 262.898438 202.640625 L 263.089844 205.125 L 262.324219 207.804688 L 261.367188 209.714844 L 260.984375 209.714844 L 260.792969 210.480469 L 259.074219 212.777344 L 258.691406 212.777344 L 258.308594 213.542969 L 256.78125 214.878906 L 253.53125 217.175781 L 248.558594 219.46875 L 243.78125 221 L 239.574219 222.148438 L 237.089844 222.722656 L 231.164062 223.679688 L 224.664062 224.445312 L 220.652344 224.445312 L 214.726562 224.0625 L 207.84375 223.105469 L 203.828125 222.339844 L 198.476562 221 L 195.417969 220.042969 L 191.59375 218.898438 L 188.535156 217.75 L 186.433594 216.984375 L 181.464844 215.070312 L 178.785156 214.113281 L 176.109375 213.160156 L 170.375 211.054688 L 169.417969 210.863281 L 164.640625 209.332031 L 160.433594 208.1875 L 159.289062 207.996094 L 152.214844 206.847656 L 146.863281 206.273438 L 139.980469 206.082031 L 134.4375 206.65625 L 129.085938 207.804688 L 125.644531 208.566406 L 121.820312 209.714844 L 120.863281 210.097656 L 119.144531 209.90625 L 117.996094 208.949219 L 116.660156 207.039062 L 115.511719 205.699219 L 115.511719 205.316406 L 114.9375 205.125 L 113.027344 202.449219 L 112.644531 201.109375 L 113.027344 199.960938 L 113.792969 199.386719 L 117.804688 197.855469 L 120.863281 196.902344 L 122.96875 196.136719 L 128.128906 194.796875 L 129.847656 194.605469 L 137.113281 193.457031 L 141.894531 193.074219 L 147.4375 193.074219 L 151.640625 193.265625 L 157.1875 194.03125 L 160.246094 194.605469 L 162.15625 194.796875 L 169.039062 196.519531 L 172.859375 197.664062 L 174.582031 198.046875 L 180.890625 200.152344 L 183.183594 200.726562 L 189.109375 202.640625 L 192.550781 203.59375 L 195.035156 204.167969 L 200.195312 205.316406 L 203.636719 205.890625 L 208.800781 206.273438 L 213.386719 206.273438 L 217.976562 205.699219 L 220.269531 205.125 L 223.519531 203.976562 L 225.8125 202.832031 L 226.195312 202.832031 L 226.386719 202.257812 L 227.914062 200.917969 L 229.0625 199.386719 L 229.445312 198.429688 L 229.445312 196.136719 L 229.0625 194.414062 L 227.722656 192.5 L 226.769531 191.355469 L 224.09375 189.632812 L 222.753906 188.867188 L 219.886719 187.71875 L 217.976562 187.144531 L 213.960938 186.191406 L 209.179688 185.425781 L 203.828125 184.851562 L 200.960938 184.46875 L 197.519531 183.320312 L 195.992188 181.980469 L 195.992188 179.6875 L 196.757812 178.730469 L 199.050781 177.582031 L 200.960938 177.199219 L 205.167969 176.625 L 217.976562 176.433594 L 218.355469 175.289062 L 218.164062 169.550781 L 186.625 169.359375 L 185.859375 169.167969 L 186.050781 190.78125 L 187.582031 191.546875 L 191.59375 192.691406 L 195.226562 193.839844 L 199.433594 194.796875 L 202.492188 195.371094 L 206.3125 195.753906 L 206.503906 195.945312 L 212.238281 195.945312 L 214.726562 195.753906 L 217.210938 194.988281 L 219.121094 193.839844 L 220.269531 193.648438 L 221.414062 194.03125 L 222.371094 194.605469 L 223.136719 195.753906 L 223.136719 197.472656 L 222.371094 198.8125 L 220.84375 200.152344 L 219.3125 201.109375 L 215.679688 202.066406 L 213.960938 202.257812 L 204.019531 202.066406 L 200.386719 201.492188 L 197.136719 200.726562 L 194.652344 199.960938 L 192.359375 199.386719 L 189.683594 198.8125 L 184.523438 197.09375 L 182.226562 196.328125 L 179.359375 195.5625 L 174.773438 194.222656 L 172.859375 193.457031 L 170.757812 193.074219 L 168.65625 192.5 L 163.304688 191.355469 L 160.625 190.589844 L 159.480469 190.015625 L 157.757812 188.675781 L 156.996094 187.71875 L 156.421875 185.808594 L 156.230469 183.703125 L 156.230469 165.722656 L 155.847656 165.148438 L 145.140625 164.957031 L 144.761719 165.53125 L 144.570312 178.539062 L 144.378906 180.261719 L 144.1875 184.277344 L 143.421875 186 L 142.273438 187.527344 L 141.128906 188.292969 L 139.214844 189.058594 L 137.496094 189.25 L 136.15625 189.632812 L 131.953125 190.398438 L 129.46875 190.589844 L 126.980469 191.355469 L 122.585938 192.308594 L 119.910156 193.265625 L 118.378906 193.648438 L 112.644531 195.753906 L 111.117188 196.136719 L 109.96875 196.136719 L 108.820312 195.371094 L 108.058594 194.414062 L 107.675781 193.265625 L 107.675781 191.929688 L 108.25 190.972656 L 109.394531 190.207031 L 112.453125 188.867188 L 113.984375 188.101562 L 114.175781 187.527344 L 114.175781 160.75 L 113.601562 160.367188 L 105 160.175781 L 105 159.792969 L 103.277344 159.792969 L 101.367188 158.648438 L 100.601562 157.308594 L 100.601562 155.585938 L 101.175781 154.4375 L 102.324219 153.292969 L 102.703125 153.292969 L 102.703125 152.910156 L 104.808594 151.1875 L 107.675781 148.699219 L 110.542969 146.214844 L 113.21875 143.917969 L 113.601562 143.917969 L 113.984375 143.152344 L 115.894531 141.433594 L 116.277344 141.433594 L 116.46875 121.539062 L 116.851562 119.4375 L 117.617188 118.289062 L 118.761719 117.523438 L 119.335938 117.332031 L 130.613281 117.332031 L 132.335938 118.097656 L 133.289062 119.054688 L 133.863281 121.347656 L 134.054688 124.601562 L 134.628906 125.175781 L 135.777344 124.984375 L 135.777344 124.601562 L 136.921875 123.835938 L 139.597656 121.539062 L 142.082031 119.4375 L 144.761719 117.332031 L 147.246094 115.230469 L 148.773438 114.082031 Z M 149.539062 120.777344 L 148.964844 120.96875 L 148.011719 121.921875 L 146.289062 123.453125 L 144.1875 125.175781 L 141.511719 127.46875 L 139.214844 129.382812 L 137.113281 131.105469 L 135.011719 132.824219 L 135.011719 133.207031 L 134.246094 133.589844 L 131.378906 136.078125 L 130.039062 137.226562 L 130.039062 137.609375 L 129.085938 137.988281 L 128.320312 138.5625 L 128.320312 138.945312 L 127.9375 138.945312 L 127.9375 139.328125 L 127.171875 139.710938 L 125.453125 141.242188 L 123.351562 142.964844 L 121.4375 144.683594 L 118.761719 146.789062 L 116.660156 148.699219 L 114.746094 150.230469 L 113.027344 151.761719 L 111.6875 152.71875 L 111.6875 153.867188 L 112.070312 154.054688 L 116.660156 154.054688 L 118.378906 154.4375 L 119.527344 155.394531 L 120.101562 156.542969 L 120.292969 185.617188 L 120.484375 186 L 122.777344 186 L 128.128906 184.851562 L 129.660156 184.46875 L 134.628906 183.703125 L 137.304688 183.128906 L 137.6875 182.554688 L 137.878906 162.089844 L 138.453125 160.367188 L 139.40625 159.410156 L 140.554688 159.03125 L 159.289062 159.03125 L 161.199219 159.601562 L 161.964844 160.558594 L 162.15625 161.515625 L 162.347656 183.703125 L 162.921875 184.660156 L 163.683594 185.234375 L 167.507812 186 L 169.417969 186.382812 L 174.199219 187.71875 L 177.449219 188.675781 L 179.742188 188.675781 L 179.933594 157.117188 L 180.316406 155.777344 L 181.082031 154.820312 L 182.226562 154.246094 L 182.992188 154.054688 L 187.960938 154.054688 L 188.917969 153.867188 L 188.726562 152.910156 L 186.816406 151.1875 L 184.710938 149.464844 L 182.035156 147.171875 L 179.933594 145.449219 L 178.023438 143.726562 L 176.109375 142.199219 L 174.390625 140.667969 L 172.859375 139.328125 L 172.476562 139.328125 L 172.476562 138.945312 L 169.800781 136.84375 L 169.039062 136.078125 L 168.65625 136.078125 L 168.65625 135.695312 L 165.980469 133.589844 L 164.066406 131.871094 L 161.964844 130.148438 L 159.289062 127.851562 L 157.1875 126.132812 L 155.273438 124.601562 L 154.316406 123.644531 L 153.363281 122.878906 L 152.980469 122.878906 L 152.597656 122.113281 L 151.449219 121.160156 L 150.6875 120.777344 Z M 122.777344 123.070312 L 122.585938 123.261719 L 122.394531 135.121094 L 123.160156 135.503906 L 124.6875 134.164062 L 126.980469 132.25 L 127.554688 131.679688 L 127.746094 130.339844 L 127.746094 123.644531 L 127.363281 123.070312 Z M 246.074219 150.421875 L 245.691406 151.1875 L 245.691406 155.585938 L 245.882812 163.238281 L 246.074219 163.621094 L 252.382812 163.621094 L 252.574219 163.238281 L 252.574219 151.378906 L 252.191406 150.996094 L 248.558594 150.421875 Z M 241.105469 150.421875 L 237.664062 150.613281 L 235.5625 151.1875 L 235.179688 151.570312 L 235.179688 163.238281 L 236.136719 163.8125 L 241.871094 163.621094 L 242.441406 162.855469 L 242.441406 152.335938 L 242.253906 150.804688 L 241.679688 150.421875 Z M 230.019531 152.335938 L 227.722656 153.101562 L 225.429688 154.246094 L 224.855469 154.820312 L 224.855469 163.429688 L 225.046875 163.621094 L 231.164062 163.621094 L 231.546875 163.238281 L 231.738281 152.71875 L 231.355469 152.335938 Z M 256.972656 152.527344 L 256.589844 152.910156 L 256.589844 163.238281 L 256.972656 163.621094 L 263.089844 163.621094 L 263.472656 163.238281 L 263.472656 155.011719 L 262.515625 154.246094 L 260.605469 153.292969 L 258.117188 152.527344 Z M 219.695312 157.308594 L 218.546875 158.265625 L 217.976562 158.457031 L 217.976562 158.839844 L 217.019531 159.222656 L 217.019531 159.601562 L 216.0625 159.984375 L 213.769531 161.707031 L 212.8125 162.664062 L 213.003906 163.621094 L 220.460938 163.621094 L 220.84375 163.238281 L 220.84375 157.5 L 220.652344 157.308594 Z M 267.675781 157.308594 L 267.292969 157.691406 L 267.292969 163.238281 L 267.675781 163.621094 L 274.941406 163.621094 L 275.132812 163.429688 L 275.132812 162.28125 L 272.648438 160.367188 L 272.265625 160.367188 L 272.265625 159.984375 L 270.542969 158.839844 L 268.25 157.308594 Z M 267.675781 157.308594 " fill-opacity="1" fill-rule="nonzero"/><path fill="#bf7349" d="M 149.347656 113.890625 L 150.6875 113.890625 L 152.214844 114.65625 L 154.128906 116.375 L 155.65625 117.714844 L 157.1875 118.863281 L 160.054688 121.347656 L 162.15625 123.070312 L 164.640625 125.175781 L 166.742188 126.894531 L 168.847656 128.617188 L 170.757812 130.339844 L 172.289062 131.488281 L 173.242188 132.441406 L 174.773438 133.78125 L 176.875 135.503906 L 178.785156 137.035156 L 180.890625 138.753906 L 185.09375 142.199219 L 187.199219 144.109375 L 188.917969 145.449219 L 191.210938 147.554688 L 191.210938 147.9375 L 192.167969 148.128906 L 192.933594 148.890625 L 192.933594 149.273438 L 193.886719 149.65625 L 195.035156 150.613281 L 195.035156 150.996094 L 195.992188 151.378906 L 197.519531 152.71875 L 199.050781 154.054688 L 199.816406 155.011719 L 200.195312 156.160156 L 200.195312 157.691406 L 199.242188 159.410156 L 198.09375 159.984375 L 197.328125 160.175781 L 186.625 160.367188 L 185.859375 160.558594 L 186.050781 190.78125 L 187.582031 191.546875 L 191.59375 192.691406 L 195.226562 193.839844 L 199.433594 194.796875 L 202.492188 195.371094 L 206.3125 195.753906 L 206.503906 195.945312 L 212.238281 195.945312 L 214.726562 195.753906 L 217.210938 194.988281 L 219.121094 193.839844 L 220.269531 193.648438 L 221.414062 194.03125 L 222.371094 194.605469 L 223.136719 195.753906 L 223.136719 197.472656 L 222.371094 198.8125 L 220.84375 200.152344 L 219.3125 201.109375 L 215.679688 202.066406 L 213.960938 202.257812 L 204.019531 202.066406 L 200.386719 201.492188 L 197.136719 200.726562 L 194.652344 199.960938 L 192.359375 199.386719 L 189.683594 198.8125 L 184.523438 197.09375 L 182.226562 196.328125 L 179.359375 195.5625 L 174.773438 194.222656 L 172.859375 193.457031 L 170.757812 193.074219 L 168.65625 192.5 L 163.304688 191.355469 L 160.625 190.589844 L 159.480469 190.015625 L 157.757812 188.675781 L 156.996094 187.71875 L 156.421875 185.808594 L 156.230469 183.703125 L 156.230469 165.722656 L 155.847656 165.148438 L 145.140625 164.957031 L 144.761719 165.53125 L 144.570312 178.539062 L 144.378906 180.261719 L 144.1875 184.277344 L 143.421875 186 L 142.273438 187.527344 L 141.128906 188.292969 L 139.214844 189.058594 L 137.496094 189.25 L 136.15625 189.632812 L 131.953125 190.398438 L 129.46875 190.589844 L 126.980469 191.355469 L 122.585938 192.308594 L 119.910156 193.265625 L 118.378906 193.648438 L 112.644531 195.753906 L 111.117188 196.136719 L 109.96875 196.136719 L 108.820312 195.371094 L 108.058594 194.414062 L 107.675781 193.265625 L 107.675781 191.929688 L 108.25 190.972656 L 109.394531 190.207031 L 112.453125 188.867188 L 113.984375 188.101562 L 114.175781 187.527344 L 114.175781 160.75 L 113.601562 160.367188 L 105 160.175781 L 105 159.792969 L 103.277344 159.792969 L 101.367188 158.648438 L 100.601562 157.308594 L 100.601562 155.585938 L 101.175781 154.4375 L 102.324219 153.292969 L 102.703125 153.292969 L 102.703125 152.910156 L 104.808594 151.1875 L 107.675781 148.699219 L 110.542969 146.214844 L 113.21875 143.917969 L 113.601562 143.917969 L 113.984375 143.152344 L 115.894531 141.433594 L 116.277344 141.433594 L 116.46875 121.539062 L 116.851562 119.4375 L 117.617188 118.289062 L 118.761719 117.523438 L 119.335938 117.332031 L 130.613281 117.332031 L 132.335938 118.097656 L 133.289062 119.054688 L 133.863281 121.347656 L 134.054688 124.601562 L 134.628906 125.175781 L 135.777344 124.984375 L 135.777344 124.601562 L 136.921875 123.835938 L 139.597656 121.539062 L 142.082031 119.4375 L 144.761719 117.332031 L 147.246094 115.230469 L 148.773438 114.082031 Z M 149.539062 120.777344 L 148.964844 120.96875 L 148.011719 121.921875 L 146.289062 123.453125 L 144.1875 125.175781 L 141.511719 127.46875 L 139.214844 129.382812 L 137.113281 131.105469 L 135.011719 132.824219 L 135.011719 133.207031 L 134.246094 133.589844 L 131.378906 136.078125 L 130.039062 137.226562 L 130.039062 137.609375 L 129.085938 137.988281 L 128.320312 138.5625 L 128.320312 138.945312 L 127.9375 138.945312 L 127.9375 139.328125 L 127.171875 139.710938 L 125.453125 141.242188 L 123.351562 142.964844 L 121.4375 144.683594 L 118.761719 146.789062 L 116.660156 148.699219 L 114.746094 150.230469 L 113.027344 151.761719 L 111.6875 152.71875 L 111.6875 153.867188 L 112.070312 154.054688 L 116.660156 154.054688 L 118.378906 154.4375 L 119.527344 155.394531 L 120.101562 156.542969 L 120.292969 185.617188 L 120.484375 186 L 122.777344 186 L 128.128906 184.851562 L 129.660156 184.46875 L 134.628906 183.703125 L 137.304688 183.128906 L 137.6875 182.554688 L 137.878906 162.089844 L 138.453125 160.367188 L 139.40625 159.410156 L 140.554688 159.03125 L 159.289062 159.03125 L 161.199219 159.601562 L 161.964844 160.558594 L 162.15625 161.515625 L 162.347656 183.703125 L 162.921875 184.660156 L 163.683594 185.234375 L 167.507812 186 L 169.417969 186.382812 L 174.199219 187.71875 L 177.449219 188.675781 L 179.742188 188.675781 L 179.933594 157.117188 L 180.316406 155.777344 L 181.082031 154.820312 L 182.226562 154.246094 L 182.992188 154.054688 L 187.960938 154.054688 L 188.917969 153.867188 L 188.726562 152.910156 L 186.816406 151.1875 L 184.710938 149.464844 L 182.035156 147.171875 L 179.933594 145.449219 L 178.023438 143.726562 L 176.109375 142.199219 L 174.390625 140.667969 L 172.859375 139.328125 L 172.476562 139.328125 L 172.476562 138.945312 L 169.800781 136.84375 L 169.039062 136.078125 L 168.65625 136.078125 L 168.65625 135.695312 L 165.980469 133.589844 L 164.066406 131.871094 L 161.964844 130.148438 L 159.289062 127.851562 L 157.1875 126.132812 L 155.273438 124.601562 L 154.316406 123.644531 L 153.363281 122.878906 L 152.980469 122.878906 L 152.597656 122.113281 L 151.449219 121.160156 L 150.6875 120.777344 Z M 122.777344 123.070312 L 122.585938 123.261719 L 122.394531 135.121094 L 123.160156 135.503906 L 124.6875 134.164062 L 126.980469 132.25 L 127.554688 131.679688 L 127.746094 130.339844 L 127.746094 123.644531 L 127.363281 123.070312 Z M 122.777344 123.070312 " fill-opacity="1" fill-rule="nonzero"/><path fill="#2c687a" d="M 140.171875 210.097656 L 146.671875 210.097656 L 153.554688 210.863281 L 159.863281 212.203125 L 163.875 213.160156 L 169.800781 215.070312 L 172.859375 216.21875 L 176.875 217.75 L 180.125 218.898438 L 184.140625 220.425781 L 189.109375 222.148438 L 191.785156 223.105469 L 197.710938 224.824219 L 202.683594 226.164062 L 206.3125 226.738281 L 207.84375 226.929688 L 213.769531 227.695312 L 218.929688 227.886719 L 219.3125 228.078125 L 223.710938 228.078125 L 231.164062 227.503906 L 235.371094 226.929688 L 237.089844 226.738281 L 241.488281 225.78125 L 246.648438 224.0625 L 249.707031 222.914062 L 252.191406 221.574219 L 253.148438 221.765625 L 253.339844 222.53125 L 252.765625 223.488281 L 250.664062 224.824219 L 246.839844 227.3125 L 244.929688 228.460938 L 243.78125 229.035156 L 240.722656 230.753906 L 239.386719 231.519531 L 238.046875 232.09375 L 234.796875 233.625 L 232.3125 234.582031 L 229.445312 235.726562 L 226.960938 236.683594 L 223.328125 237.832031 L 219.3125 239.171875 L 216.0625 239.9375 L 211.859375 240.320312 L 211.476562 240.511719 L 208.417969 240.703125 L 204.785156 241.082031 L 201.535156 241.273438 L 185.667969 241.273438 L 175.726562 240.320312 L 172.667969 240.128906 L 167.125 238.980469 L 161.773438 237.257812 L 158.523438 236.300781 L 154.699219 234.773438 L 151.449219 233.433594 L 148.390625 231.902344 L 144.378906 229.992188 L 141.320312 228.269531 L 137.878906 225.972656 L 135.964844 224.632812 L 133.480469 222.914062 L 131.570312 221.574219 L 131.570312 221.191406 L 130.804688 220.808594 L 128.320312 218.898438 L 126.027344 217.175781 L 124.6875 216.027344 L 123.542969 214.6875 L 123.542969 213.542969 L 124.304688 212.96875 L 127.363281 212.203125 L 134.628906 210.671875 Z M 140.171875 210.097656 " fill-opacity="1" fill-rule="nonzero"/><path fill="#8b936a" d="M 264.234375 124.410156 L 271.882812 124.410156 L 274.75 124.601562 L 277.808594 125.558594 L 279.527344 126.324219 L 279.527344 126.707031 L 280.484375 127.085938 L 281.25 128.617188 L 282.585938 132.632812 L 283.160156 133.972656 L 284.5 138.945312 L 284.882812 141.242188 L 285.070312 142.964844 L 285.835938 146.023438 L 286.027344 147.554688 L 286.21875 148.507812 L 285.835938 151.1875 L 285.261719 151.761719 L 284.308594 152.144531 L 280.292969 152.144531 L 277.808594 151.570312 L 271.691406 149.464844 L 268.632812 147.9375 L 267.675781 147.171875 L 264.808594 146.023438 L 262.132812 145.066406 L 260.414062 144.300781 L 257.355469 143.726562 L 253.53125 142.964844 L 249.132812 142.582031 L 248.371094 142.390625 L 239.195312 142.390625 L 234.222656 143.152344 L 230.972656 143.726562 L 226.960938 144.492188 L 226.003906 144.875 L 224.855469 145.640625 L 221.796875 146.789062 L 219.695312 147.554688 L 218.355469 148.507812 L 216.253906 149.464844 L 214.34375 150.039062 L 212.621094 150.039062 L 212.429688 150.421875 L 209.945312 151.378906 L 205.742188 151.953125 L 204.976562 151.761719 L 203.0625 151.1875 L 201.726562 150.039062 L 200.195312 149.273438 L 198.859375 147.746094 L 198.667969 146.980469 L 196.945312 146.023438 L 196.757812 144.875 L 196.945312 144.492188 L 199.242188 144.109375 L 202.109375 143.726562 L 204.210938 143.152344 L 207.460938 142.582031 L 210.902344 141.625 L 213.386719 140.859375 L 217.210938 139.519531 L 221.035156 137.988281 L 222.945312 137.417969 L 223.902344 137.226562 L 223.902344 136.84375 L 227.53125 135.503906 L 229.828125 134.546875 L 231.164062 133.78125 L 232.503906 133.207031 L 235.945312 131.679688 L 238.621094 130.53125 L 241.871094 129.574219 L 243.589844 129 L 247.988281 127.46875 L 251.046875 126.707031 L 253.148438 125.941406 L 259.839844 124.792969 Z M 264.234375 124.410156 " fill-opacity="1" fill-rule="nonzero"/><path fill="#e19e63" d="M 223.328125 94.1875 L 225.621094 94.1875 L 225.8125 94.378906 L 227.339844 94.570312 L 229.0625 95.144531 L 231.355469 96.101562 L 231.738281 96.867188 L 232.3125 96.867188 L 233.269531 97.824219 L 234.222656 98.589844 L 234.605469 99.355469 L 235.5625 100.308594 L 236.707031 101.648438 L 237.28125 102.796875 L 238.238281 105.472656 L 238.621094 106.8125 L 238.621094 109.300781 L 237.855469 112.359375 L 237.089844 114.082031 L 236.328125 115.230469 L 235.371094 117.140625 L 234.988281 117.140625 L 234.605469 117.90625 L 234.03125 118.480469 L 233.078125 119.054688 L 232.503906 119.246094 L 232.503906 119.628906 L 232.121094 119.628906 L 231.929688 120.203125 L 230.019531 121.347656 L 225.238281 122.496094 L 223.519531 122.496094 L 220.84375 122.113281 L 218.164062 121.160156 L 216.445312 120.203125 L 215.488281 119.4375 L 215.105469 118.863281 L 213.960938 118.289062 L 212.8125 117.332031 L 212.238281 116.183594 L 211.667969 115.039062 L 210.902344 114.082031 L 210.136719 112.167969 L 209.5625 109.875 L 209.371094 107.578125 L 210.136719 104.328125 L 211.476562 101.648438 L 212.8125 99.546875 L 214.34375 98.015625 L 215.871094 97.058594 L 216.828125 96.292969 L 219.121094 95.144531 L 222.371094 94.378906 Z M 223.328125 94.1875 " fill-opacity="1" fill-rule="nonzero"/><path fill="#587e7c" d="M 274.941406 176.625 L 283.542969 176.625 L 283.925781 177.007812 L 284.117188 178.347656 L 283.351562 181.027344 L 282.203125 185.042969 L 281.25 187.527344 L 280.292969 189.632812 L 279.71875 191.164062 L 278.957031 192.691406 L 278.382812 194.03125 L 277.425781 195.753906 L 277.042969 196.902344 L 276.660156 196.902344 L 276.277344 197.855469 L 275.132812 199.769531 L 274.175781 201.109375 L 273.410156 202.640625 L 272.074219 204.359375 L 271.691406 204.359375 L 271.308594 205.316406 L 270.160156 206.847656 L 269.398438 207.613281 L 269.015625 207.613281 L 269.015625 207.996094 L 268.632812 207.996094 L 268.441406 208.566406 L 267.292969 208.757812 L 267.675781 205.699219 L 267.675781 202.066406 L 267.101562 199.769531 L 265.382812 196.519531 L 264.808594 195.945312 L 264.808594 195.5625 L 264.425781 195.5625 L 263.28125 194.222656 L 261.175781 192.691406 L 258.691406 191.164062 L 256.78125 190.207031 L 256.78125 189.824219 L 255.632812 189.441406 L 252.957031 187.71875 L 252 187.144531 L 250.664062 186 L 250.472656 184.851562 L 250.664062 183.511719 L 251.046875 182.746094 L 252.191406 181.789062 L 253.148438 181.214844 L 254.105469 180.453125 L 258.691406 179.113281 L 261.558594 178.347656 L 268.058594 177.390625 L 269.78125 177.007812 L 270.351562 177.007812 Z M 274.941406 176.625 " fill-opacity="1" fill-rule="nonzero"/><path fill="#8b936a" d="M 184.140625 125.367188 L 189.109375 125.367188 L 194.84375 125.75 L 197.710938 126.324219 L 201.726562 127.46875 L 203.828125 127.851562 L 206.121094 128.617188 L 208.417969 129.382812 L 211.09375 130.339844 L 213.003906 130.914062 L 214.152344 131.679688 L 218.164062 133.398438 L 218.929688 134.164062 L 219.121094 135.503906 L 218.355469 136.269531 L 216.636719 136.84375 L 214.726562 137.609375 L 213.386719 138.179688 L 210.902344 138.945312 L 206.3125 140.285156 L 201.726562 141.242188 L 196.375 142.007812 L 192.550781 142.007812 L 191.019531 141.433594 L 189.875 140.667969 L 188.535156 139.519531 L 186.433594 137.796875 L 184.902344 136.460938 L 184.902344 136.078125 L 184.140625 135.695312 L 182.417969 134.355469 L 181.464844 133.398438 L 180.507812 132.441406 L 180.316406 131.871094 L 179.933594 131.871094 L 178.976562 130.722656 L 177.257812 129.382812 L 176.492188 128.425781 L 175.347656 127.660156 L 175.347656 126.894531 L 178.785156 125.941406 L 181.652344 125.558594 Z M 184.140625 125.367188 " fill-opacity="1" fill-rule="nonzero"/></svg>